<svg version="1.2" xmlns="http://www.w3.org/2000/svg" viewBox="0 0 1931 1532" width="1931" height="1532">
	<title>risk game apac background -svg</title>
	<defs>
		<clipPath clipPathUnits="userSpaceOnUse" id="cp1">
			<path d="m222.8 227.1h1483.1v1043.9h-1483.1z"/>
		</clipPath>
	</defs>
	<style>
		tspan { white-space:pre } 
		.s0 { fill: #e8edf3;stroke: #00112c;stroke-linecap: round;stroke-linejoin: round;stroke-width: 2 } 
		.s1 { fill: #85dfa1;stroke: #00112c;stroke-linecap: round;stroke-linejoin: round;stroke-width: 2 } 
		.s2 { fill: #0abf53;stroke: #00112c;stroke-linecap: round;stroke-linejoin: round;stroke-width: 2 } 
		.s3 { fill: #00112c;stroke: #00112c;stroke-linecap: round;stroke-linejoin: round;stroke-width: 2 } 
		.s4 { fill: #ffffff;stroke: #00112c;stroke-linecap: round;stroke-linejoin: round;stroke-width: 2 } 
		.s5 { fill: #eef0f3;stroke: #00112c;stroke-linecap: round;stroke-linejoin: round;stroke-width: 2 } 
		.s6 { fill: none;stroke: #ffffff;stroke-linecap: round;stroke-linejoin: round;stroke-width: 2 } 
		.t7 { font-size: 13px;fill: #000000;font-weight: 400;font-family: "LiberationSans", "Liberation Sans" } 
		.s8 { fill: #0abf53 } 
		.s9 { fill: #85dfa1 } 
		.s10 { fill: #00112c;stroke: #0abf53;stroke-linecap: round;stroke-linejoin: round;stroke-width: 2 } 
		.s11 { fill: #00112c;stroke: #85dfa1;stroke-linecap: round;stroke-linejoin: round;stroke-width: 2 } 
	</style>
	<path id="Layer" class="s0" d="m1480.7 165.2h-1019.6c156.6-84 328.9-130.5 509.8-130.5 180.9 0 353.2 46.4 509.8 130.5z"/>
	<g id="Layer">
		<path id="Layer" class="s1" d="m1369.9 165.2h424.9v336.9c-108.1-147.3-254.6-264.6-424.9-336.9z"/>
		<path id="Layer" class="s1" d="m147 502.1v-336.9h425c-170.3 72.3-316.9 189.6-425 336.9z"/>
		<path id="Layer" class="s1" d="m1369.8 165.2h-797.9c122.6-52.1 257.4-80.9 399-80.9 141.6 0 276.4 28.8 398.9 80.9z"/>
		<path id="Layer" class="s2" d="m147 1341.9v-839.8c108.1-147.3 254.7-264.6 425-336.9h797.9c170.3 72.3 316.9 189.6 424.9 336.9v839.8z"/>
	</g>
	<g id="Layer">
		<g id="Layer">
			<g id="Layer">
				<g id="Clip-Path" clip-path="url(#cp1)">
					<path id="Layer" class="s3" d="m222.8 224.4h1483.1v1046.6h-1483.1z"/>
				</g>
			</g>
			<path id="Layer" class="s4" d="m183 201.8l39.8 36.1v1033.1l-39.8 36.1z"/>
			<path id="Layer" class="s0" d="m1745.7 201.8l-39.8 36.1h-1483.1l-39.8-36.1z"/>
			<path id="Layer" class="s0" d="m183 1307.1l39.8-36.1h1483.1l39.8 36.1z"/>
			<path id="Layer" class="s5" d="m1745.7 1307.1l-39.8-36.1v-1033.1l39.8-36.1z"/>
		</g>
	</g>
	<g id="Layer">
		<path id="Layer" class="s2" d="m1386.4 1421.1c-14.6 0-26.4-11.8-26.4-26.4 0-14.6 11.8-26.4 26.4-26.4 14.6 0 26.4 11.8 26.4 26.4 0 14.6-11.8 26.4-26.4 26.4z"/>
		<path id="Layer" class="s1" d="m1268.2 1421.1c-14.6 0-26.4-11.8-26.4-26.4 0-14.6 11.8-26.4 26.4-26.4 14.6 0 26.4 11.8 26.4 26.4 0 14.6-11.8 26.4-26.4 26.4z"/>
		<path id="Layer" class="s2" d="m1150 1421.1c-14.6 0-26.4-11.8-26.4-26.4 0-14.6 11.8-26.4 26.4-26.4 14.6 0 26.4 11.8 26.4 26.4 0 14.6-11.8 26.4-26.4 26.4z"/>
		<path id="Layer" class="s1" d="m1031.8 1421.1c-14.6 0-26.4-11.8-26.4-26.4 0-14.6 11.8-26.4 26.4-26.4 14.6 0 26.4 11.8 26.4 26.4 0 14.6-11.8 26.4-26.4 26.4z"/>
		<path id="Layer" class="s2" d="m913.6 1421.1c-14.6 0-26.4-11.8-26.4-26.4 0-14.6 11.8-26.4 26.4-26.4 14.6 0 26.4 11.8 26.4 26.4 0 14.6-11.8 26.4-26.4 26.4z"/>
		<path id="Layer" class="s1" d="m795.5 1421.1c-14.6 0-26.4-11.8-26.4-26.4 0-14.6 11.8-26.4 26.4-26.4 14.6 0 26.4 11.8 26.4 26.4 0 14.6-11.8 26.4-26.4 26.4z"/>
		<path id="Layer" class="s2" d="m677.3 1421.1c-14.6 0-26.4-11.8-26.4-26.4 0-14.6 11.8-26.4 26.4-26.4 14.6 0 26.4 11.8 26.4 26.4 0 14.6-11.8 26.4-26.4 26.4z"/>
		<path id="Layer" class="s1" d="m559.1 1421.1c-14.6 0-26.4-11.8-26.4-26.4 0-14.6 11.8-26.4 26.4-26.4 14.6 0 26.4 11.8 26.4 26.4 0 14.6-11.8 26.4-26.4 26.4z"/>
		<path id="Layer" class="s2" d="m1622.8 1421.1c-14.6 0-26.4-11.8-26.4-26.4 0-14.6 11.8-26.4 26.4-26.4 14.6 0 26.4 11.8 26.4 26.4 0 14.6-11.8 26.4-26.4 26.4z"/>
		<path id="Layer" class="s1" d="m1504.6 1421.1c-14.6 0-26.4-11.8-26.4-26.4 0-14.6 11.8-26.4 26.4-26.4 14.6 0 26.4 11.8 26.4 26.4 0 14.6-11.8 26.4-26.4 26.4z"/>
		<path id="Layer" class="s1" d="m1740.9 1421.1c-14.6 0-26.4-11.8-26.4-26.4 0-14.6 11.8-26.4 26.4-26.4 14.6 0 26.4 11.8 26.4 26.4 0 14.6-11.8 26.4-26.4 26.4z"/>
		<path id="Layer" class="s2" d="m440.9 1421.1c-14.6 0-26.4-11.8-26.4-26.4 0-14.6 11.8-26.4 26.4-26.4 14.6 0 26.4 11.8 26.4 26.4 0 14.6-11.8 26.4-26.4 26.4z"/>
		<path id="Layer" class="s1" d="m322.7 1421.1c-14.6 0-26.4-11.8-26.4-26.4 0-14.6 11.8-26.4 26.4-26.4 14.6 0 26.4 11.8 26.4 26.4 0 14.6-11.8 26.4-26.4 26.4z"/>
		<path id="Layer" class="s2" d="m204.5 1421.1c-14.6 0-26.4-11.8-26.4-26.4 0-14.6 11.8-26.4 26.4-26.4 14.6 0 26.4 11.8 26.4 26.4 0 14.6-11.8 26.4-26.4 26.4z"/>
		<g id="Layer">
			<path id="Layer" class="s6" d="m1398.5 1394.7c0-8.3-6.7-15.1-15.1-15.1"/>
			<path id="Layer" class="s6" d="m1280.3 1394.7c0-8.3-6.7-15.1-15.1-15.1"/>
			<path id="Layer" class="s6" d="m1162.2 1394.7c0-8.3-6.7-15.1-15.1-15.1"/>
			<path id="Layer" class="s6" d="m1044 1394.7c0-8.3-6.7-15.1-15.1-15.1"/>
			<path id="Layer" class="s6" d="m1634.9 1394.7c0-8.3-6.7-15.1-15.1-15.1"/>
			<path id="Layer" class="s6" d="m1516.7 1394.7c0-8.3-6.7-15.1-15.1-15.1"/>
			<path id="Layer" class="s6" d="m1753.1 1394.7c0-8.3-6.7-15.1-15.1-15.1"/>
			<path id="Layer" class="s6" d="m925.8 1394.7c0-8.3-6.7-15.1-15.1-15.1"/>
			<path id="Layer" class="s6" d="m807.6 1394.7c0-8.3-6.7-15.1-15.1-15.1"/>
			<path id="Layer" class="s6" d="m689.4 1394.7c0-8.3-6.7-15.1-15.1-15.1"/>
			<path id="Layer" class="s6" d="m571.2 1394.7c0-8.3-6.7-15.1-15.1-15.1"/>
			<path id="Layer" class="s6" d="m453 1394.7c0-8.3-6.7-15.1-15.1-15.1"/>
			<path id="Layer" class="s6" d="m216.7 1394.7c0-8.3-6.7-15.1-15.1-15.1"/>
			<path id="Layer" class="s6" d="m334.9 1394.7c0-8.3-6.7-15.1-15.1-15.1"/>
		</g>
	</g>
	<g id="Layer">
		<path id="Layer" class="s2" d="m445.1 140c-14.9 0-26.9-12.3-26.9-27.5 0-15.2 12-27.5 26.9-27.5 14.9 0 26.9 12.3 26.9 27.5 0 15.2-12 27.5-26.9 27.5z"/>
		<path id="Layer" class="s1" d="m1503.2 140c-14.9 0-26.9-12.3-26.9-27.5 0-15.2 12-27.5 26.9-27.5 14.9 0 26.9 12.3 26.9 27.5 0 15.2-12 27.5-26.9 27.5z"/>
		<path id="Layer" class="s6" d="m428.7 112.5c0-8.7 6.9-15.7 15.3-15.7"/>
		<path id="Layer" class="s2" d="m205 140c-14.9 0-26.9-12.3-26.9-27.5 0-15.2 12-27.5 26.9-27.5 14.9 0 26.9 12.3 26.9 27.5 0 15.2-12 27.5-26.9 27.5z"/>
		<path id="Layer" class="s1" d="m325.9 140c-14.9 0-26.9-12.3-26.9-27.5 0-15.2 12-27.5 26.9-27.5 14.9 0 26.9 12.3 26.9 27.5 0 15.2-12 27.5-26.9 27.5z"/>
		<path id="Layer" class="s6" d="m186.9 112.5c0-8.7 6.9-15.7 15.3-15.7"/>
		<path id="Layer" class="s6" d="m310.6 112.5c0-8.7 6.9-15.7 15.3-15.7"/>
		<path id="Layer" class="s6" d="m1488.4 112.5c0-8.7 6.9-15.7 15.3-15.7"/>
		<path id="Layer" class="s2" d="m1633.1 140c-14.9 0-26.9-12.3-26.9-27.5 0-15.2 12-27.5 26.9-27.5 14.9 0 26.9 12.3 26.9 27.5 0 15.2-12 27.5-26.9 27.5z"/>
		<path id="Layer" class="s1" d="m1755.8 140c-14.9 0-26.9-12.3-26.9-27.5 0-15.2 12-27.5 26.9-27.5 14.9 0 26.9 12.3 26.9 27.5 0 15.2-12 27.5-26.9 27.5z"/>
		<path id="Layer" class="s6" d="m1617.7 112.5c0-8.7 6.9-15.7 15.3-15.7"/>
		<path id="Layer" class="s6" d="m1741 112.5c0-8.7 6.9-15.7 15.3-15.7"/>
	</g>
	<path id="Layer" class="s6" d="m193.6 188.8h291.8"/>
	<path id="Layer" class="s6" d="m1443.6 188.8h291.7"/>
	<path id="Layer" class="s6" d="m193.6 1317.9h291.8"/>
	<path id="Layer" class="s6" d="m1443.6 1317.9h291.7"/>
	<g id="Layer">
		<path id="Layer" class="s6" d="m116.7 1390.3v-17.1"/>
		<path id="Layer" class="s6" d="m70.8 1386.2l19.4-19.4"/>
		<path id="Layer" class="s6" d="m66.8 1340.4h17.1"/>
	</g>
	<g id="Layer">
		<path id="Layer" class="s6" d="m63.8 162.2h17.1"/>
		<path id="Layer" class="s6" d="m67.9 116.4l19.4 19.4"/>
		<path id="Layer" class="s6" d="m113.7 112.3v17.1"/>
	</g>
	<g id="Layer">
		<path id="Layer" class="s2" d="m103.4 855.1c-55.2 0-99.9-44.7-99.9-99.9 0-55.2 44.7-99.9 99.9-99.9 55.2 0 99.9 44.7 99.9 99.9 0 55.2-44.7 99.9-99.9 99.9z"/>
		<path id="Layer" class="s1" d="m77.2 1307.2c0 0-5.5-36-50.7-51.6v-383.7l29.1-29.1h130.9v464.3h-109.3z"/>
		<path id="Layer" class="s3" d="m85.7 1293c0 0-5-32.8-46.2-47v-362.4l26.5-26.5h106.1v435.9z"/>
		<path id="Layer" class="s4" d="m158.2 905.4v325c0 8.6-7 15.6-15.6 15.6h-70.1c-8.6 0-15.6-7-15.6-15.6v-325c0-8.6 7-15.6 15.6-15.6h70.1c8.6 0 15.6 6.9 15.6 15.6z"/>
		<path id="Layer" class="s2" d="m71.4 1231.2v-326.7h72.2v326.7z"/>
		<path id="Layer" class="s4" d="m103.4 836.2c-44.8 0-81-36.2-81-81 0-44.8 36.2-81 81-81 44.8 0 81 36.2 81 81 0 44.8-36.2 81-81 81z"/>
		<path id="Layer" class="s1" d="m103.4 819.1c-35.3 0-63.9-28.6-63.9-63.9 0-35.3 28.6-63.9 63.9-63.9 35.3 0 63.9 28.6 63.9 63.9 0 35.3-28.6 63.9-63.9 63.9z"/>
		<path id="Layer" class="s4" d="m123.8 1351.1c-10 0-18-8-18-18 0-10 8-18 18-18 10 0 18 8 18 18 0 10-8 18-18 18z"/>
		<path id="Layer" class="s1" d="m186.5 201.8v464.3h-130.9l-29.1-29.1v-383.6c45.2-15.6 50.7-51.6 50.7-51.6z"/>
		<path id="Layer" class="s3" d="m172.1 216v435.9h-106.1l-26.5-26.5v-362.4c41.2-14.2 46.2-47 46.2-47z"/>
		<path id="Layer" class="s4" d="m142.6 619.2h-70.1c-8.6 0-15.6-7-15.6-15.6v-325c0-8.6 7-15.6 15.6-15.6h70.1c8.6 0 15.6 7 15.6 15.6v325c0 8.6-7 15.6-15.6 15.6z"/>
		<path id="Layer" class="s2" d="m143.6 277.8v326.7h-72.2v-326.7z"/>
		<path id="Layer" class="s4" d="m123.8 193.9c-10 0-18-8-18-18 0-10 8-18 18-18 10 0 18 8 18 18 0 10-8 18-18 18z"/>
		<path id="Layer" class="s6" d="m103.4 782.2l-23.4-23.4"/>
		<path id="Layer" class="s6" d="m132.8 784.5l-42.6-42.5"/>
	</g>
	<g id="Layer">
		<path id="Layer" class="s6" d="m1815.6 118.8v17.1"/>
		<path id="Layer" class="s6" d="m1861.4 122.8l-19.4 19.4"/>
		<path id="Layer" class="s6" d="m1865.5 168.6h-17.1"/>
	</g>
	<g id="Layer">
		<path id="Layer" class="s6" d="m1868.4 1346.9h-17"/>
		<path id="Layer" class="s6" d="m1864.4 1392.7l-19.4-19.4"/>
		<path id="Layer" class="s6" d="m1818.6 1396.7v-17.1"/>
	</g>
	<g id="Layer">
		<path id="Layer" class="s2" d="m1828.9 853.8c-55.2 0-99.9-44.7-99.9-99.9 0-55.2 44.7-99.9 99.9-99.9 55.2 0 99.9 44.7 99.9 99.9 0 55.2-44.7 99.9-99.9 99.9z"/>
		<path id="Layer" class="s1" d="m1855.1 201.9c0 0 5.5 36 50.7 51.6v383.6l-29.1 29.1h-130.9v-464.3z"/>
		<path id="Layer" class="s3" d="m1846.6 216.1c0 0 5 32.8 46.2 47v362.4l-26.5 26.5h-106.1v-435.9z"/>
		<path id="Layer" class="s4" d="m1774.1 603.7v-325c0-8.6 7-15.6 15.6-15.6h70.1c8.6 0 15.6 7 15.6 15.6v325c0 8.6-7 15.6-15.6 15.6h-70.1c-8.6 0-15.6-7-15.6-15.6z"/>
		<path id="Layer" class="s2" d="m1860.9 277.9v326.7h-72.2v-326.7z"/>
		<path id="Layer" class="s4" d="m1828.9 834.9c-44.8 0-81-36.2-81-81 0-44.8 36.2-81 81-81 44.8 0 81 36.2 81 81 0 44.8-36.2 81-81 81z"/>
		<path id="Layer" class="s1" d="m1828.9 817.8c-35.3 0-63.9-28.6-63.9-63.9 0-35.3 28.6-63.9 63.9-63.9 35.3 0 63.9 28.6 63.9 63.9 0 35.3-28.6 63.9-63.9 63.9z"/>
		<path id="Layer" class="s4" d="m1808.4 194c-10 0-18-8-18-18 0-10 8-18 18-18 10 0 18 8 18 18 0 10-8 18-18 18z"/>
		<path id="Layer" class="s1" d="m1855.1 1307.2h-109.3v-464.3h130.9l29.1 29.1v383.7c-45.2 15.6-50.7 51.6-50.7 51.6z"/>
		<path id="Layer" class="s3" d="m1846.6 1293h-86.4v-435.8h106.1l26.5 26.5v362.4c-41.2 14.2-46.2 47-46.2 47z"/>
		<path id="Layer" class="s4" d="m1789.7 889.9h70.1c8.6 0 15.6 7 15.6 15.6v325c0 8.6-7 15.6-15.6 15.6h-70.1c-8.6 0-15.6-7-15.6-15.6v-325c0-8.7 7-15.6 15.6-15.6z"/>
		<path id="Layer" class="s2" d="m1788.6 1231.3v-326.7h72.2v326.7z"/>
		<path id="Layer" class="s4" d="m1808.4 1351.2c-10 0-18-8-18-18 0-10 8-18 18-18 10 0 18 8 18 18 0 10-8 18-18 18z"/>
		<path id="Layer" class="s6" d="m1828.9 726.8l23.4 23.4"/>
		<path id="Layer" class="s6" d="m1799.5 724.6l42.5 42.5"/>
	</g>
	<g id="Layer">
		<path id="Layer" class="s2" d="m892.8 87.1c50 0 78.1-40.2 78.1-78.2 0 37.9 28.1 78.2 78.1 78.2-50 0-78.1 40.2-78.1 78.2 0-38-28.1-78.3-78.1-78.2z"/>
	</g>
	<text id="4 pt" style="transform: matrix(1,0,0,1,1333.821,254.091)" >
		<tspan x="0" y="0" class="t7">4 pt
</tspan>
	</text>
	<g id="Layer">
		<path id="Layer" class="s8" d="m254.4 1292.3c-1.8-5.1 0.9-10.7 6-12.5 5.1-1.8 10.7 0.9 12.5 6 1.8 5.1-0.9 10.7-6 12.5-1.1 0.4-2.3 0.6-3.4 0.5-4 0-7.7-2.5-9.1-6.5z"/>
		<path id="Layer" class="s8" d="m372.6 1292.3c-1.8-5.1 0.9-10.7 6-12.5 5.1-1.8 10.7 0.9 12.5 6 1.8 5.1-0.9 10.7-6 12.5-1.1 0.4-2.3 0.6-3.4 0.5-4 0-7.7-2.5-9.1-6.5z"/>
		<path id="Layer" class="s8" d="m490.8 1292.3c-1.8-5.1 0.9-10.7 6-12.5 5.1-1.8 10.7 0.9 12.5 6 1.8 5.1-0.9 10.7-6 12.5-1.1 0.4-2.3 0.6-3.4 0.5-4.1 0-7.7-2.5-9.1-6.5z"/>
		<path id="Layer" class="s8" d="m609 1292.3c-1.8-5.1 0.9-10.7 6-12.5 5.1-1.8 10.7 0.9 12.5 6 1.8 5.1-0.9 10.7-6 12.5-1.1 0.4-2.3 0.6-3.4 0.5-4.1 0-7.8-2.5-9.1-6.5z"/>
		<path id="Layer" class="s8" d="m727.1 1292.3c-1.8-5.1 0.9-10.7 6-12.5 5.1-1.8 10.7 0.9 12.5 6 1.8 5.1-0.9 10.7-6 12.5-1.1 0.4-2.3 0.6-3.4 0.5-4 0-7.7-2.5-9.1-6.5z"/>
		<path id="Layer" class="s8" d="m845.3 1292.3c-1.8-5.1 0.9-10.7 6-12.5 5.1-1.8 10.7 0.9 12.5 6 1.8 5.1-0.9 10.7-6 12.5-1.1 0.4-2.3 0.6-3.4 0.5-4 0-7.7-2.5-9.1-6.5z"/>
		<path id="Layer" class="s8" d="m963.5 1292.3c-1.8-5.1 0.9-10.7 6-12.5 5.1-1.8 10.7 0.9 12.5 6 1.8 5.1-0.9 10.7-6 12.5-1.1 0.4-2.3 0.6-3.4 0.5-4 0-7.7-2.5-9.1-6.5z"/>
		<path id="Layer" class="s8" d="m1081.7 1292.3c-1.8-5.1 0.9-10.7 6-12.5 5.1-1.8 10.7 0.9 12.5 6 1.8 5.1-0.9 10.7-6 12.5-1.1 0.4-2.3 0.6-3.4 0.5-4 0-7.7-2.5-9.1-6.5z"/>
		<path id="Layer" class="s8" d="m1199.9 1292.3c-1.8-5.1 0.9-10.7 6-12.5 5.1-1.8 10.7 0.9 12.5 6 1.8 5.1-0.9 10.7-6 12.5-1.1 0.4-2.3 0.6-3.4 0.5-4 0-7.7-2.5-9.1-6.5z"/>
		<path id="Layer" class="s8" d="m1318.1 1292.3c-1.8-5.1 0.9-10.7 6-12.5 5.1-1.8 10.7 0.9 12.5 6 1.8 5.1-0.9 10.7-6 12.5-1.1 0.4-2.3 0.6-3.4 0.5-4.1 0-7.7-2.5-9.1-6.5z"/>
		<path id="Layer" class="s8" d="m1436.3 1292.3c-1.8-5.1 0.9-10.7 6-12.5 5.1-1.8 10.7 0.9 12.5 6 1.8 5.1-0.9 10.7-6 12.5-1.1 0.4-2.3 0.6-3.4 0.5-4.1 0-7.8-2.5-9.1-6.5z"/>
		<path id="Layer" class="s8" d="m1554.4 1292.3c-1.8-5.1 0.9-10.7 6-12.5 5.1-1.8 10.7 0.9 12.5 6 1.8 5.1-0.9 10.7-6 12.5-1.1 0.4-2.3 0.6-3.4 0.5-4 0-7.7-2.5-9.1-6.5z"/>
		<path id="Layer" class="s8" d="m1672.6 1292.3c-1.8-5.1 0.9-10.7 6-12.5 5.1-1.8 10.7 0.9 12.5 6 1.8 5.1-0.9 10.7-6 12.5-1.1 0.4-2.3 0.6-3.4 0.5-4 0-7.7-2.5-9.1-6.5z"/>
	</g>
	<g id="Layer">
		<path id="Layer" class="s8" d="m254.4 223.1c-1.8-5.1 0.9-10.7 6-12.5 5.1-1.8 10.7 0.9 12.5 6 1.8 5.1-0.9 10.7-6 12.5-1.1 0.4-2.3 0.6-3.4 0.5-4 0-7.7-2.5-9.1-6.5z"/>
		<path id="Layer" class="s8" d="m372.6 223.1c-1.8-5.1 0.9-10.7 6-12.5 5.1-1.8 10.7 0.9 12.5 6 1.8 5.1-0.9 10.7-6 12.5-1.1 0.4-2.3 0.6-3.4 0.5-4 0-7.7-2.5-9.1-6.5z"/>
		<path id="Layer" class="s8" d="m490.8 223.1c-1.8-5.1 0.9-10.7 6-12.5 5.1-1.8 10.7 0.9 12.5 6 1.8 5.1-0.9 10.7-6 12.5-1.1 0.4-2.3 0.6-3.4 0.5-4.1 0-7.7-2.5-9.1-6.5z"/>
		<path id="Layer" class="s8" d="m609 223.1c-1.8-5.1 0.9-10.7 6-12.5 5.1-1.8 10.7 0.9 12.5 6 1.8 5.1-0.9 10.7-6 12.5-1.1 0.4-2.3 0.6-3.4 0.5-4.1 0-7.8-2.5-9.1-6.5z"/>
		<path id="Layer" class="s8" d="m727.1 223.1c-1.8-5.1 0.9-10.7 6-12.5 5.1-1.8 10.7 0.9 12.5 6 1.8 5.1-0.9 10.7-6 12.5-1.1 0.4-2.3 0.6-3.4 0.5-4 0-7.7-2.5-9.1-6.5z"/>
		<path id="Layer" class="s8" d="m845.3 223.1c-1.8-5.1 0.9-10.7 6-12.5 5.1-1.8 10.7 0.9 12.5 6 1.8 5.1-0.9 10.7-6 12.5-1.1 0.4-2.3 0.6-3.4 0.5-4 0-7.7-2.5-9.1-6.5z"/>
		<path id="Layer" class="s8" d="m963.5 223.1c-1.8-5.1 0.9-10.7 6-12.5 5.1-1.8 10.7 0.9 12.5 6 1.8 5.1-0.9 10.7-6 12.5-1.1 0.4-2.3 0.6-3.4 0.5-4 0-7.7-2.5-9.1-6.5z"/>
		<path id="Layer" class="s8" d="m1081.7 223.1c-1.8-5.1 0.9-10.7 6-12.5 5.1-1.8 10.7 0.9 12.5 6 1.8 5.1-0.9 10.7-6 12.5-1.1 0.4-2.3 0.6-3.4 0.5-4 0-7.7-2.5-9.1-6.5z"/>
		<path id="Layer" class="s8" d="m1199.9 223.1c-1.8-5.1 0.9-10.7 6-12.5 5.1-1.8 10.7 0.9 12.5 6 1.8 5.1-0.9 10.7-6 12.5-1.1 0.4-2.3 0.6-3.4 0.5-4 0-7.7-2.5-9.1-6.5z"/>
		<path id="Layer" class="s8" d="m1318.1 223.1c-1.8-5.1 0.9-10.7 6-12.5 5.1-1.8 10.7 0.9 12.5 6 1.8 5.1-0.9 10.7-6 12.5-1.1 0.4-2.3 0.6-3.4 0.5-4.1 0-7.7-2.5-9.1-6.5z"/>
		<path id="Layer" class="s8" d="m1436.3 223.1c-1.8-5.1 0.9-10.7 6-12.5 5.1-1.8 10.7 0.9 12.5 6 1.8 5.1-0.9 10.7-6 12.5-1.1 0.4-2.3 0.6-3.4 0.5-4.1 0-7.8-2.5-9.1-6.5z"/>
		<path id="Layer" class="s8" d="m1554.4 223.1c-1.8-5.1 0.9-10.7 6-12.5 5.1-1.8 10.7 0.9 12.5 6 1.8 5.1-0.9 10.7-6 12.5-1.1 0.4-2.3 0.6-3.4 0.5-4 0-7.7-2.5-9.1-6.5z"/>
		<path id="Layer" class="s8" d="m1672.6 223.1c-1.8-5.1 0.9-10.7 6-12.5 5.1-1.8 10.7 0.9 12.5 6 1.8 5.1-0.9 10.7-6 12.5-1.1 0.4-2.3 0.6-3.4 0.5-4 0-7.7-2.5-9.1-6.5z"/>
	</g>
	<g id="Layer">
		<path id="Layer" class="s9" d="m199 273.3c5.1-1.8 10.7 0.9 12.5 6 1.8 5.1-0.9 10.7-6 12.5-5.1 1.8-10.7-0.9-12.5-6-0.4-1.1-0.6-2.3-0.5-3.4 0-4 2.5-7.7 6.5-9.1z"/>
		<path id="Layer" class="s9" d="m199 391.5c5.1-1.8 10.7 0.9 12.5 6 1.8 5.1-0.9 10.7-6 12.5-5.1 1.8-10.7-0.9-12.5-6-0.4-1.1-0.6-2.3-0.5-3.4 0-4 2.5-7.7 6.5-9.1z"/>
		<path id="Layer" class="s9" d="m199 509.7c5.1-1.8 10.7 0.9 12.5 6 1.8 5.1-0.9 10.7-6 12.5-5.1 1.8-10.7-0.9-12.5-6-0.4-1.1-0.6-2.3-0.5-3.4 0-4.1 2.5-7.7 6.5-9.1z"/>
		<path id="Layer" class="s9" d="m199 627.9c5.1-1.8 10.7 0.9 12.5 6 1.8 5.1-0.9 10.7-6 12.5-5.1 1.8-10.7-0.9-12.5-6-0.4-1.1-0.6-2.3-0.5-3.4 0-4.1 2.5-7.8 6.5-9.1z"/>
		<path id="Layer" class="s9" d="m199 864.2c5.1-1.8 10.7 0.9 12.5 6 1.8 5.1-0.9 10.7-6 12.5-5.1 1.8-10.7-0.9-12.5-6-0.4-1.1-0.6-2.3-0.5-3.4 0-4 2.5-7.7 6.5-9.1z"/>
		<path id="Layer" class="s9" d="m199 982.4c5.1-1.8 10.7 0.9 12.5 6 1.8 5.1-0.9 10.7-6 12.5-5.1 1.8-10.7-0.9-12.5-6-0.4-1.1-0.6-2.3-0.5-3.4 0-4 2.5-7.7 6.5-9.1z"/>
		<path id="Layer" class="s9" d="m199 1100.6c5.1-1.8 10.7 0.9 12.5 6 1.8 5.1-0.9 10.7-6 12.5-5.1 1.8-10.7-0.9-12.5-6-0.4-1.1-0.6-2.3-0.5-3.4 0-4 2.5-7.7 6.5-9.1z"/>
		<path id="Layer" class="s9" d="m199 1218.8c5.1-1.8 10.7 0.9 12.5 6 1.8 5.1-0.9 10.7-6 12.5-5.1 1.8-10.7-0.9-12.5-6-0.4-1.1-0.6-2.3-0.5-3.4 0-4 2.5-7.7 6.5-9.1z"/>
	</g>
	<g id="Layer">
		<path id="Layer" class="s9" d="m1725.8 273.3c5.1-1.8 10.7 0.9 12.5 6 1.8 5.1-0.9 10.7-6 12.5-5.1 1.8-10.7-0.9-12.5-6-0.4-1.1-0.6-2.3-0.5-3.4 0-4 2.5-7.7 6.5-9.1z"/>
		<path id="Layer" class="s9" d="m1725.8 391.5c5.1-1.8 10.7 0.9 12.5 6 1.8 5.1-0.9 10.7-6 12.5-5.1 1.8-10.7-0.9-12.5-6-0.4-1.1-0.6-2.3-0.5-3.4 0-4 2.5-7.7 6.5-9.1z"/>
		<path id="Layer" class="s9" d="m1725.8 509.7c5.1-1.8 10.7 0.9 12.5 6 1.8 5.1-0.9 10.7-6 12.5-5.1 1.8-10.7-0.9-12.5-6-0.4-1.1-0.6-2.3-0.5-3.4 0-4.1 2.5-7.7 6.5-9.1z"/>
		<path id="Layer" class="s9" d="m1725.8 627.9c5.1-1.8 10.7 0.9 12.5 6 1.8 5.1-0.9 10.7-6 12.5-5.1 1.8-10.7-0.9-12.5-6-0.4-1.1-0.6-2.3-0.5-3.4 0-4.1 2.5-7.8 6.5-9.1z"/>
		<path id="Layer" class="s9" d="m1725.8 864.2c5.1-1.8 10.7 0.9 12.5 6 1.8 5.1-0.9 10.7-6 12.5-5.1 1.8-10.7-0.9-12.5-6-0.4-1.1-0.6-2.3-0.5-3.4 0-4 2.5-7.7 6.5-9.1z"/>
		<path id="Layer" class="s9" d="m1725.8 982.4c5.1-1.8 10.7 0.9 12.5 6 1.8 5.1-0.9 10.7-6 12.5-5.1 1.8-10.7-0.9-12.5-6-0.4-1.1-0.6-2.3-0.5-3.4 0-4 2.5-7.7 6.5-9.1z"/>
		<path id="Layer" class="s9" d="m1725.8 1100.6c5.1-1.8 10.7 0.9 12.5 6 1.8 5.1-0.9 10.7-6 12.5-5.1 1.8-10.7-0.9-12.5-6-0.4-1.1-0.6-2.3-0.5-3.4 0-4 2.5-7.7 6.5-9.1z"/>
		<path id="Layer" class="s9" d="m1725.8 1218.8c5.1-1.8 10.7 0.9 12.5 6 1.8 5.1-0.9 10.7-6 12.5-5.1 1.8-10.7-0.9-12.5-6-0.4-1.1-0.6-2.3-0.5-3.4 0-4 2.5-7.7 6.5-9.1z"/>
	</g>
	<g id="Layer copy 3">
		<path id="Layer" class="s10" d="m149.2 1513.5v-42.4c0-8.6 7-15.6 15.6-15.6h325c8.6 0 15.6 7 15.6 15.6v42.4c0 8.6-7 15.6-15.6 15.6h-325c-8.6 0-15.6-7-15.6-15.6z"/>
		<path id="Layer" class="s11" d="m490.6 1514.6h-326.7v-44.5h326.7z"/>
	</g>
	<g id="Layer">
		<path id="Layer" class="s11" d="m576.8 1513.5v-42.4c0-8.6 7-15.6 15.6-15.6h325c8.6 0 15.6 7 15.6 15.6v42.4c0 8.6-7 15.6-15.6 15.6h-325c-8.6 0-15.6-7-15.6-15.6z"/>
		<path id="Layer" class="s10" d="m918.2 1514.6h-326.7v-44.5h326.7z"/>
	</g>
	<g id="Layer">
		<path id="Layer" class="s10" d="m1004.4 1513.5v-42.4c0-8.6 7-15.6 15.6-15.6h325c8.6 0 15.6 7 15.6 15.6v42.4c0 8.6-7 15.6-15.6 15.6h-325c-8.6 0-15.6-7-15.6-15.6z"/>
		<path id="Layer" class="s11" d="m1345.8 1514.6h-326.7v-44.5h326.7z"/>
	</g>
	<g id="Layer">
		<path id="Layer" class="s11" d="m1432 1513.5v-42.4c0-8.6 7-15.6 15.6-15.6h325c8.6 0 15.6 7 15.6 15.6v42.4c0 8.6-7 15.6-15.6 15.6h-325c-8.6 0-15.6-7-15.6-15.6z"/>
		<path id="Layer" class="s10" d="m1773.4 1514.6h-326.7v-44.5h326.7z"/>
	</g>
</svg>