<?xml version="1.0" encoding="utf-8"?>
<!-- Generator: Adobe Illustrator 26.5.0, SVG Export Plug-In . SVG Version: 6.00 Build 0)  -->
<svg version="1.1" id="Layer_1" xmlns="http://www.w3.org/2000/svg" xmlns:xlink="http://www.w3.org/1999/xlink" x="0px" y="0px"
	 viewBox="0 0 2160 1620" style="enable-background:new 0 0 2160 1620;" xml:space="preserve">
<style type="text/css">
	.st0{fill:#00112C;stroke:#00112C;stroke-width:2;stroke-linecap:round;stroke-linejoin:round;stroke-miterlimit:10;}
	.st1{fill:#E8EDF3;stroke:#00112C;stroke-width:2;stroke-linecap:round;stroke-linejoin:round;stroke-miterlimit:10;}
	.st2{fill:#85DFA1;stroke:#00112C;stroke-width:2;stroke-linecap:round;stroke-linejoin:round;stroke-miterlimit:10;}
	.st3{fill:#0ABF53;stroke:#00112C;stroke-width:2;stroke-linecap:round;stroke-linejoin:round;stroke-miterlimit:10;}
	
		.st4{clip-path:url(#SVGID_00000073701953641227770380000014332317681162767770_);fill:#00112C;stroke:#00112C;stroke-width:2;stroke-linecap:round;stroke-linejoin:round;stroke-miterlimit:10;}
	.st5{fill:#FFFFFF;stroke:#00112C;stroke-width:2;stroke-linecap:round;stroke-linejoin:round;stroke-miterlimit:10;}
	.st6{fill:#EEF0F3;stroke:#00112C;stroke-width:2;stroke-linecap:round;stroke-linejoin:round;stroke-miterlimit:10;}
	.st7{fill:none;stroke:#FFFFFF;stroke-width:2;stroke-linecap:round;stroke-linejoin:round;stroke-miterlimit:10;}
	.st8{stroke:#E8EDF3;stroke-miterlimit:10;stroke-dasharray:0,8;}
	.st9{font-family:'MyriadPro-Regular';}
	.st10{font-size:11.7286px;}
	.st11{fill:#0ABF53;}
	.st12{fill:#85DFA1;}
	.st13{fill:#00112C;stroke:#0ABF53;stroke-width:2;stroke-linecap:round;stroke-linejoin:round;stroke-miterlimit:10;}
	.st14{fill:#00112C;stroke:#85DFA1;stroke-width:2;stroke-linecap:round;stroke-linejoin:round;stroke-miterlimit:10;}
</style>
<rect class="st0" width="2160" height="1620"/>
<path class="st1" d="M1012.9,64.7c-180.9,0-353.2,46.5-509.8,130.5h1019.6C1366.1,111.1,1193.8,64.7,1012.9,64.7z"/>
<g>
	<path class="st2" d="M1836.8,532.1V195.2h-424.9C1582.2,267.5,1728.7,384.8,1836.8,532.1z"/>
	<path class="st2" d="M614,195.2H189v336.9C297.1,384.8,443.7,267.5,614,195.2z"/>
	<path class="st2" d="M1012.9,114.3c-141.6,0-276.4,28.8-399,80.9h797.9C1289.3,143.1,1154.5,114.3,1012.9,114.3z"/>
	<path class="st3" d="M1836.8,1371.9V532.1c-108-147.3-254.6-264.6-424.9-336.9H614C443.7,267.5,297.1,384.8,189,532.1v839.8H1836.8
		z"/>
</g>
<g>
	<g>
		<g>
			<defs>
				<rect id="SVGID_1_" x="264.8" y="257.1" width="1483.1" height="1043.9"/>
			</defs>
			<clipPath id="SVGID_00000047051555443347444960000003063551803508166327_">
				<use xlink:href="#SVGID_1_"  style="overflow:visible;"/>
			</clipPath>
			
				<rect x="264.8" y="254.4" style="clip-path:url(#SVGID_00000047051555443347444960000003063551803508166327_);fill:#00112C;stroke:#00112C;stroke-width:2;stroke-linecap:round;stroke-linejoin:round;stroke-miterlimit:10;" width="1483.1" height="1046.6"/>
		</g>
		<polygon class="st5" points="225,1337.1 264.8,1301 264.8,267.9 225,231.8 		"/>
		<polygon class="st1" points="1787.7,231.8 1747.9,267.9 264.8,267.9 225,231.8 		"/>
		<polygon class="st1" points="225,1337.1 264.8,1301 1747.9,1301 1787.7,1337.1 		"/>
		<polygon class="st6" points="1787.7,1337.1 1747.9,1301 1747.9,267.9 1787.7,231.8 		"/>
	</g>
</g>
<g>
	<circle class="st3" cx="1428.4" cy="1424.7" r="26.4"/>
	<circle class="st2" cx="1310.2" cy="1424.7" r="26.4"/>
	<circle class="st3" cx="1192" cy="1424.7" r="26.4"/>
	<circle class="st2" cx="1073.8" cy="1424.7" r="26.4"/>
	<circle class="st3" cx="955.6" cy="1424.7" r="26.4"/>
	<circle class="st2" cx="837.5" cy="1424.7" r="26.4"/>
	<circle class="st3" cx="719.3" cy="1424.7" r="26.4"/>
	<circle class="st2" cx="601.1" cy="1424.7" r="26.4"/>
	<circle class="st3" cx="1664.8" cy="1424.7" r="26.4"/>
	<circle class="st2" cx="1546.6" cy="1424.7" r="26.4"/>
	<circle class="st2" cx="1782.9" cy="1424.7" r="26.4"/>
	<circle class="st3" cx="482.9" cy="1424.7" r="26.4"/>
	<circle class="st2" cx="364.7" cy="1424.7" r="26.4"/>
	<circle class="st3" cx="246.5" cy="1424.7" r="26.4"/>
	<g>
		<path class="st7" d="M1440.5,1424.7c0-8.3-6.7-15.1-15.1-15.1"/>
		<path class="st7" d="M1322.3,1424.7c0-8.3-6.7-15.1-15.1-15.1"/>
		<path class="st7" d="M1204.2,1424.7c0-8.3-6.7-15.1-15.1-15.1"/>
		<path class="st7" d="M1086,1424.7c0-8.3-6.7-15.1-15.1-15.1"/>
		<path class="st7" d="M1676.9,1424.7c0-8.3-6.7-15.1-15.1-15.1"/>
		<path class="st7" d="M1558.7,1424.7c0-8.3-6.7-15.1-15.1-15.1"/>
		<path class="st7" d="M1795.1,1424.7c0-8.3-6.7-15.1-15.1-15.1"/>
		<path class="st7" d="M967.8,1424.7c0-8.3-6.7-15.1-15.1-15.1"/>
		<path class="st7" d="M849.6,1424.7c0-8.3-6.7-15.1-15.1-15.1"/>
		<path class="st7" d="M731.4,1424.7c0-8.3-6.7-15.1-15.1-15.1"/>
		<path class="st7" d="M613.2,1424.7c0-8.3-6.7-15.1-15.1-15.1"/>
		<path class="st7" d="M495,1424.7c0-8.3-6.7-15.1-15.1-15.1"/>
		<path class="st7" d="M258.7,1424.7c0-8.3-6.7-15.1-15.1-15.1"/>
		<path class="st7" d="M376.9,1424.7c0-8.3-6.7-15.1-15.1-15.1"/>
	</g>
</g>
<g>
	<ellipse class="st3" cx="487.1" cy="142.5" rx="26.9" ry="27.5"/>
	<ellipse class="st2" cx="1545.2" cy="142.5" rx="26.9" ry="27.5"/>
	<path class="st7" d="M470.7,142.5c0-8.7,6.9-15.7,15.3-15.7"/>
	<ellipse class="st3" cx="247" cy="142.5" rx="26.9" ry="27.5"/>
	<ellipse class="st2" cx="367.9" cy="142.5" rx="26.9" ry="27.5"/>
	<path class="st7" d="M228.9,142.5c0-8.7,6.9-15.7,15.3-15.7"/>
	<path class="st7" d="M352.6,142.5c0-8.7,6.9-15.7,15.3-15.7"/>
	<path class="st7" d="M1530.4,142.5c0-8.7,6.9-15.7,15.3-15.7"/>
	<ellipse class="st3" cx="1675.1" cy="142.5" rx="26.9" ry="27.5"/>
	<ellipse class="st2" cx="1797.8" cy="142.5" rx="26.9" ry="27.5"/>
	<path class="st7" d="M1659.7,142.5c0-8.7,6.9-15.7,15.3-15.7"/>
	<path class="st7" d="M1783,142.5c0-8.7,6.9-15.7,15.3-15.7"/>
</g>
<line class="st7" x1="235.6" y1="218.8" x2="527.4" y2="218.8"/>
<line class="st7" x1="1485.6" y1="218.8" x2="1777.3" y2="218.8"/>
<line class="st7" x1="235.6" y1="1347.9" x2="527.4" y2="1347.9"/>
<line class="st7" x1="1485.6" y1="1347.9" x2="1777.3" y2="1347.9"/>
<g>
	<line class="st7" x1="158.7" y1="1420.3" x2="158.7" y2="1403.2"/>
	<line class="st7" x1="112.8" y1="1416.2" x2="132.2" y2="1396.8"/>
	<line class="st7" x1="108.8" y1="1370.4" x2="125.9" y2="1370.4"/>
</g>
<g>
	<line class="st7" x1="105.8" y1="192.2" x2="122.9" y2="192.2"/>
	<line class="st7" x1="109.9" y1="146.4" x2="129.3" y2="165.8"/>
	<line class="st7" x1="155.7" y1="142.3" x2="155.7" y2="159.4"/>
</g>
<g>
	<circle class="st3" cx="145.4" cy="785.2" r="99.9"/>
	<path class="st2" d="M119.2,1337.2c0,0-5.5-36-50.7-51.6V901.9l29.1-29.1h130.9v464.3H119.2z"/>
	<path class="st0" d="M127.7,1323c0,0-5-32.8-46.2-47V913.6l26.5-26.5h106.1V1323H127.7z"/>
	<path class="st5" d="M200.2,935.4v325c0,8.6-7,15.6-15.6,15.6h-70.1c-8.6,0-15.6-7-15.6-15.6v-325c0-8.6,7-15.6,15.6-15.6h70.1
		C193.2,919.8,200.2,926.7,200.2,935.4z"/>
	
		<rect x="-13.8" y="1061.7" transform="matrix(6.123234e-17 -1 1 6.123234e-17 -948.3182 1247.3831)" class="st3" width="326.7" height="72.2"/>
	<circle class="st5" cx="145.4" cy="785.2" r="81"/>
	<circle class="st2" cx="145.4" cy="785.2" r="63.9"/>
	<circle class="st5" cx="165.8" cy="1363.1" r="18"/>
	<path class="st2" d="M119.2,231.8c0,0-5.5,36-50.7,51.6V667l29.1,29.1h130.9V231.8H119.2z"/>
	<path class="st0" d="M127.7,246c0,0-5,32.8-46.2,47v362.4l26.5,26.5h106.1V246H127.7z"/>
	<path class="st5" d="M200.2,633.6v-325c0-8.6-7-15.6-15.6-15.6h-70.1c-8.6,0-15.6,7-15.6,15.6v325c0,8.6,7,15.6,15.6,15.6h70.1
		C193.2,649.2,200.2,642.2,200.2,633.6z"/>
	
		<rect x="-13.8" y="435" transform="matrix(-4.490116e-11 1 -1 -4.490116e-11 620.6479 321.5831)" class="st3" width="326.7" height="72.2"/>
	<circle class="st5" cx="165.8" cy="205.9" r="18"/>
	<line class="st7" x1="145.4" y1="812.2" x2="122" y2="788.8"/>
	<line class="st7" x1="174.8" y1="814.5" x2="132.2" y2="772"/>
</g>
<g>
	<line class="st7" x1="1857.6" y1="148.8" x2="1857.6" y2="165.9"/>
	<line class="st7" x1="1903.4" y1="152.8" x2="1884" y2="172.2"/>
	<line class="st7" x1="1907.5" y1="198.6" x2="1890.4" y2="198.6"/>
</g>
<g>
	<line class="st7" x1="1910.4" y1="1376.9" x2="1893.4" y2="1376.9"/>
	<line class="st7" x1="1906.4" y1="1422.7" x2="1887" y2="1403.3"/>
	<line class="st7" x1="1860.6" y1="1426.7" x2="1860.6" y2="1409.6"/>
</g>
<g>
	<circle class="st3" cx="1870.9" cy="783.9" r="99.9"/>
	<path class="st2" d="M1897.1,231.9c0,0,5.5,36,50.7,51.6v383.6l-29.1,29.1h-130.9V231.9H1897.1z"/>
	<path class="st0" d="M1888.6,246.1c0,0,5,32.8,46.2,47v362.4l-26.5,26.5h-106.1V246.1H1888.6z"/>
	<path class="st5" d="M1816.1,633.7v-325c0-8.6,7-15.6,15.6-15.6h70.1c8.6,0,15.6,7,15.6,15.6v325c0,8.6-7,15.6-15.6,15.6h-70.1
		C1823.1,649.3,1816.1,642.3,1816.1,633.7z"/>
	
		<rect x="1703.4" y="435.1" transform="matrix(-1.836970e-16 1 -1 -1.836970e-16 2337.9646 -1395.5229)" class="st3" width="326.7" height="72.2"/>
	<circle class="st5" cx="1870.9" cy="783.9" r="81"/>
	<circle class="st2" cx="1870.9" cy="783.9" r="63.9"/>
	<circle class="st5" cx="1850.4" cy="206" r="18"/>
	<path class="st2" d="M1897.1,1337.3c0,0,5.5-36,50.7-51.6V902l-29.1-29.1h-130.9v464.3H1897.1z"/>
	<path class="st0" d="M1888.6,1323.1c0,0,5-32.8,46.2-47V913.7l-26.5-26.5h-106.1v435.8H1888.6z"/>
	<path class="st5" d="M1816.1,935.5v325c0,8.6,7,15.6,15.6,15.6h70.1c8.6,0,15.6-7,15.6-15.6v-325c0-8.6-7-15.6-15.6-15.6h-70.1
		C1823.1,919.9,1816.1,926.8,1816.1,935.5z"/>
	
		<rect x="1703.4" y="1061.8" transform="matrix(4.488949e-11 -1 1 4.488949e-11 768.7878 2964.6997)" class="st3" width="326.7" height="72.2"/>
	<circle class="st5" cx="1850.4" cy="1363.2" r="18"/>
	<line class="st7" x1="1870.9" y1="756.8" x2="1894.3" y2="780.2"/>
	<line class="st7" x1="1841.5" y1="754.6" x2="1884" y2="797.1"/>
</g>
<g>
	<path class="st3" d="M1012.9,195.3c0-38,28.1-78.2,78.1-78.2c-50,0-78.1-40.3-78.1-78.2c0,38-28.1,78.2-78.1,78.2
		C984.8,117,1012.9,157.3,1012.9,195.3z"/>
</g>
<text transform="matrix(1 0 0 1 1375.8207 284.0913)" class="st8 st9 st10">4 pt</text>
<g>
	<path class="st11" d="M296.4,1322.3c-1.8-5.1,0.9-10.7,6-12.5l0,0l0,0l0,0c5.1-1.8,10.7,0.9,12.5,6l0,0c1.8,5.1-0.9,10.7-6,12.5
		l0,0c-1.1,0.4-2.3,0.6-3.4,0.5l0,0C301.5,1328.8,297.8,1326.3,296.4,1322.3z"/>
	<path class="st11" d="M414.6,1322.3c-1.8-5.1,0.9-10.7,6-12.5l0,0l0,0l0,0c5.1-1.8,10.7,0.9,12.5,6l0,0c1.8,5.1-0.9,10.7-6,12.5
		l0,0c-1.1,0.4-2.3,0.6-3.4,0.5l0,0C419.7,1328.8,416,1326.3,414.6,1322.3z"/>
	<path class="st11" d="M532.8,1322.3c-1.8-5.1,0.9-10.7,6-12.5l0,0l0,0l0,0c5.1-1.8,10.7,0.9,12.5,6l0,0c1.8,5.1-0.9,10.7-6,12.5
		l0,0c-1.1,0.4-2.3,0.6-3.4,0.5l0,0C537.8,1328.8,534.2,1326.3,532.8,1322.3z"/>
	<path class="st11" d="M651,1322.3c-1.8-5.1,0.9-10.7,6-12.5l0,0l0,0l0,0c5.1-1.8,10.7,0.9,12.5,6l0,0c1.8,5.1-0.9,10.7-6,12.5l0,0
		c-1.1,0.4-2.3,0.6-3.4,0.5l0,0C656,1328.8,652.3,1326.3,651,1322.3z"/>
	<path class="st11" d="M769.1,1322.3c-1.8-5.1,0.9-10.7,6-12.5l0,0l0,0l0,0c5.1-1.8,10.7,0.9,12.5,6l0,0c1.8,5.1-0.9,10.7-6,12.5
		l0,0c-1.1,0.4-2.3,0.6-3.4,0.5l0,0C774.2,1328.8,770.5,1326.3,769.1,1322.3z"/>
	<path class="st11" d="M887.3,1322.3c-1.8-5.1,0.9-10.7,6-12.5l0,0l0,0l0,0c5.1-1.8,10.7,0.9,12.5,6l0,0c1.8,5.1-0.9,10.7-6,12.5
		l0,0c-1.1,0.4-2.3,0.6-3.4,0.5l0,0C892.4,1328.8,888.7,1326.3,887.3,1322.3z"/>
	<path class="st11" d="M1005.5,1322.3c-1.8-5.1,0.9-10.7,6-12.5l0,0l0,0l0,0c5.1-1.8,10.7,0.9,12.5,6l0,0c1.8,5.1-0.9,10.7-6,12.5
		l0,0c-1.1,0.4-2.3,0.6-3.4,0.5l0,0C1010.6,1328.8,1006.9,1326.3,1005.5,1322.3z"/>
	<path class="st11" d="M1123.7,1322.3c-1.8-5.1,0.9-10.7,6-12.5l0,0l0,0l0,0c5.1-1.8,10.7,0.9,12.5,6l0,0c1.8,5.1-0.9,10.7-6,12.5
		l0,0c-1.1,0.4-2.3,0.6-3.4,0.5l0,0C1128.8,1328.8,1125.1,1326.3,1123.7,1322.3z"/>
	<path class="st11" d="M1241.9,1322.3c-1.8-5.1,0.9-10.7,6-12.5l0,0l0,0l0,0c5.1-1.8,10.7,0.9,12.5,6l0,0c1.8,5.1-0.9,10.7-6,12.5
		l0,0c-1.1,0.4-2.3,0.6-3.4,0.5l0,0C1247,1328.8,1243.3,1326.3,1241.9,1322.3z"/>
	<path class="st11" d="M1360.1,1322.3c-1.8-5.1,0.9-10.7,6-12.5l0,0l0,0l0,0c5.1-1.8,10.7,0.9,12.5,6l0,0c1.8,5.1-0.9,10.7-6,12.5
		l0,0c-1.1,0.4-2.3,0.6-3.4,0.5l0,0C1365.1,1328.8,1361.5,1326.3,1360.1,1322.3z"/>
	<path class="st11" d="M1478.3,1322.3c-1.8-5.1,0.9-10.7,6-12.5l0,0l0,0l0,0c5.1-1.8,10.7,0.9,12.5,6l0,0c1.8,5.1-0.9,10.7-6,12.5
		l0,0c-1.1,0.4-2.3,0.6-3.4,0.5l0,0C1483.3,1328.8,1479.6,1326.3,1478.3,1322.3z"/>
	<path class="st11" d="M1596.4,1322.3c-1.8-5.1,0.9-10.7,6-12.5l0,0l0,0l0,0c5.1-1.8,10.7,0.9,12.5,6l0,0c1.8,5.1-0.9,10.7-6,12.5
		l0,0c-1.1,0.4-2.3,0.6-3.4,0.5l0,0C1601.5,1328.8,1597.8,1326.3,1596.4,1322.3z"/>
	<path class="st11" d="M1714.6,1322.3c-1.8-5.1,0.9-10.7,6-12.5l0,0l0,0l0,0c5.1-1.8,10.7,0.9,12.5,6l0,0c1.8,5.1-0.9,10.7-6,12.5
		l0,0c-1.1,0.4-2.3,0.6-3.4,0.5l0,0C1719.7,1328.8,1716,1326.3,1714.6,1322.3z"/>
</g>
<g>
	<path class="st11" d="M296.4,253.1c-1.8-5.1,0.9-10.7,6-12.5l0,0l0,0l0,0c5.1-1.8,10.7,0.9,12.5,6l0,0c1.8,5.1-0.9,10.7-6,12.5l0,0
		c-1.1,0.4-2.3,0.6-3.4,0.5l0,0C301.5,259.6,297.8,257.1,296.4,253.1z"/>
	<path class="st11" d="M414.6,253.1c-1.8-5.1,0.9-10.7,6-12.5l0,0l0,0l0,0c5.1-1.8,10.7,0.9,12.5,6l0,0c1.8,5.1-0.9,10.7-6,12.5l0,0
		c-1.1,0.4-2.3,0.6-3.4,0.5l0,0C419.7,259.6,416,257.1,414.6,253.1z"/>
	<path class="st11" d="M532.8,253.1c-1.8-5.1,0.9-10.7,6-12.5l0,0l0,0l0,0c5.1-1.8,10.7,0.9,12.5,6l0,0c1.8,5.1-0.9,10.7-6,12.5l0,0
		c-1.1,0.4-2.3,0.6-3.4,0.5l0,0C537.8,259.6,534.2,257.1,532.8,253.1z"/>
	<path class="st11" d="M651,253.1c-1.8-5.1,0.9-10.7,6-12.5l0,0l0,0l0,0c5.1-1.8,10.7,0.9,12.5,6l0,0c1.8,5.1-0.9,10.7-6,12.5l0,0
		c-1.1,0.4-2.3,0.6-3.4,0.5l0,0C656,259.6,652.3,257.1,651,253.1z"/>
	<path class="st11" d="M769.1,253.1c-1.8-5.1,0.9-10.7,6-12.5l0,0l0,0l0,0c5.1-1.8,10.7,0.9,12.5,6l0,0c1.8,5.1-0.9,10.7-6,12.5l0,0
		c-1.1,0.4-2.3,0.6-3.4,0.5l0,0C774.2,259.6,770.5,257.1,769.1,253.1z"/>
	<path class="st11" d="M887.3,253.1c-1.8-5.1,0.9-10.7,6-12.5l0,0l0,0l0,0c5.1-1.8,10.7,0.9,12.5,6l0,0c1.8,5.1-0.9,10.7-6,12.5l0,0
		c-1.1,0.4-2.3,0.6-3.4,0.5l0,0C892.4,259.6,888.7,257.1,887.3,253.1z"/>
	<path class="st11" d="M1005.5,253.1c-1.8-5.1,0.9-10.7,6-12.5l0,0l0,0l0,0c5.1-1.8,10.7,0.9,12.5,6l0,0c1.8,5.1-0.9,10.7-6,12.5
		l0,0c-1.1,0.4-2.3,0.6-3.4,0.5l0,0C1010.6,259.6,1006.9,257.1,1005.5,253.1z"/>
	<path class="st11" d="M1123.7,253.1c-1.8-5.1,0.9-10.7,6-12.5l0,0l0,0l0,0c5.1-1.8,10.7,0.9,12.5,6l0,0c1.8,5.1-0.9,10.7-6,12.5
		l0,0c-1.1,0.4-2.3,0.6-3.4,0.5l0,0C1128.8,259.6,1125.1,257.1,1123.7,253.1z"/>
	<path class="st11" d="M1241.9,253.1c-1.8-5.1,0.9-10.7,6-12.5l0,0l0,0l0,0c5.1-1.8,10.7,0.9,12.5,6l0,0c1.8,5.1-0.9,10.7-6,12.5
		l0,0c-1.1,0.4-2.3,0.6-3.4,0.5l0,0C1247,259.6,1243.3,257.1,1241.9,253.1z"/>
	<path class="st11" d="M1360.1,253.1c-1.8-5.1,0.9-10.7,6-12.5l0,0l0,0l0,0c5.1-1.8,10.7,0.9,12.5,6l0,0c1.8,5.1-0.9,10.7-6,12.5
		l0,0c-1.1,0.4-2.3,0.6-3.4,0.5l0,0C1365.1,259.6,1361.5,257.1,1360.1,253.1z"/>
	<path class="st11" d="M1478.3,253.1c-1.8-5.1,0.9-10.7,6-12.5l0,0l0,0l0,0c5.1-1.8,10.7,0.9,12.5,6l0,0c1.8,5.1-0.9,10.7-6,12.5
		l0,0c-1.1,0.4-2.3,0.6-3.4,0.5l0,0C1483.3,259.6,1479.6,257.1,1478.3,253.1z"/>
	<path class="st11" d="M1596.4,253.1c-1.8-5.1,0.9-10.7,6-12.5l0,0l0,0l0,0c5.1-1.8,10.7,0.9,12.5,6l0,0c1.8,5.1-0.9,10.7-6,12.5
		l0,0c-1.1,0.4-2.3,0.6-3.4,0.5l0,0C1601.5,259.6,1597.8,257.1,1596.4,253.1z"/>
	<path class="st11" d="M1714.6,253.1c-1.8-5.1,0.9-10.7,6-12.5l0,0l0,0l0,0c5.1-1.8,10.7,0.9,12.5,6l0,0c1.8,5.1-0.9,10.7-6,12.5
		l0,0c-1.1,0.4-2.3,0.6-3.4,0.5l0,0C1719.7,259.6,1716,257.1,1714.6,253.1z"/>
</g>
<g>
	<path class="st12" d="M241,303.3c5.1-1.8,10.7,0.9,12.5,6l0,0l0,0l0,0c1.8,5.1-0.9,10.7-6,12.5l0,0c-5.1,1.8-10.7-0.9-12.5-6l0,0
		c-0.4-1.1-0.6-2.3-0.5-3.4l0,0C234.5,308.4,237,304.7,241,303.3z"/>
	<path class="st12" d="M241,421.5c5.1-1.8,10.7,0.9,12.5,6l0,0l0,0l0,0c1.8,5.1-0.9,10.7-6,12.5l0,0c-5.1,1.8-10.7-0.9-12.5-6l0,0
		c-0.4-1.1-0.6-2.3-0.5-3.4l0,0C234.5,426.6,237,422.9,241,421.5z"/>
	<path class="st12" d="M241,539.7c5.1-1.8,10.7,0.9,12.5,6l0,0l0,0l0,0c1.8,5.1-0.9,10.7-6,12.5l0,0c-5.1,1.8-10.7-0.9-12.5-6l0,0
		c-0.4-1.1-0.6-2.3-0.5-3.4l0,0C234.5,544.7,237,541.1,241,539.7z"/>
	<path class="st12" d="M241,657.9c5.1-1.8,10.7,0.9,12.5,6l0,0l0,0l0,0c1.8,5.1-0.9,10.7-6,12.5l0,0c-5.1,1.8-10.7-0.9-12.5-6l0,0
		c-0.4-1.1-0.6-2.3-0.5-3.4l0,0C234.5,662.9,237,659.2,241,657.9z"/>
	<path class="st12" d="M241,894.2c5.1-1.8,10.7,0.9,12.5,6l0,0l0,0l0,0c1.8,5.1-0.9,10.7-6,12.5l0,0c-5.1,1.8-10.7-0.9-12.5-6l0,0
		c-0.4-1.1-0.6-2.3-0.5-3.4l0,0C234.5,899.3,237,895.6,241,894.2z"/>
	<path class="st12" d="M241,1012.4c5.1-1.8,10.7,0.9,12.5,6l0,0l0,0l0,0c1.8,5.1-0.9,10.7-6,12.5l0,0c-5.1,1.8-10.7-0.9-12.5-6l0,0
		c-0.4-1.1-0.6-2.3-0.5-3.4l0,0C234.5,1017.5,237,1013.8,241,1012.4z"/>
	<path class="st12" d="M241,1130.6c5.1-1.8,10.7,0.9,12.5,6l0,0l0,0l0,0c1.8,5.1-0.9,10.7-6,12.5l0,0c-5.1,1.8-10.7-0.9-12.5-6l0,0
		c-0.4-1.1-0.6-2.3-0.5-3.4l0,0C234.5,1135.7,237,1132,241,1130.6z"/>
	<path class="st12" d="M241,1248.8c5.1-1.8,10.7,0.9,12.5,6l0,0l0,0l0,0c1.8,5.1-0.9,10.7-6,12.5l0,0c-5.1,1.8-10.7-0.9-12.5-6l0,0
		c-0.4-1.1-0.6-2.3-0.5-3.4l0,0C234.5,1253.9,237,1250.2,241,1248.8z"/>
</g>
<g>
	<path class="st12" d="M1767.8,303.3c5.1-1.8,10.7,0.9,12.5,6l0,0l0,0l0,0c1.8,5.1-0.9,10.7-6,12.5l0,0c-5.1,1.8-10.7-0.9-12.5-6
		l0,0c-0.4-1.1-0.6-2.3-0.5-3.4l0,0C1761.3,308.4,1763.8,304.7,1767.8,303.3z"/>
	<path class="st12" d="M1767.8,421.5c5.1-1.8,10.7,0.9,12.5,6l0,0l0,0l0,0c1.8,5.1-0.9,10.7-6,12.5l0,0c-5.1,1.8-10.7-0.9-12.5-6
		l0,0c-0.4-1.1-0.6-2.3-0.5-3.4l0,0C1761.3,426.6,1763.8,422.9,1767.8,421.5z"/>
	<path class="st12" d="M1767.8,539.7c5.1-1.8,10.7,0.9,12.5,6l0,0l0,0l0,0c1.8,5.1-0.9,10.7-6,12.5l0,0c-5.1,1.8-10.7-0.9-12.5-6
		l0,0c-0.4-1.1-0.6-2.3-0.5-3.4l0,0C1761.3,544.7,1763.8,541.1,1767.8,539.7z"/>
	<path class="st12" d="M1767.8,657.9c5.1-1.8,10.7,0.9,12.5,6l0,0l0,0l0,0c1.8,5.1-0.9,10.7-6,12.5l0,0c-5.1,1.8-10.7-0.9-12.5-6
		l0,0c-0.4-1.1-0.6-2.3-0.5-3.4l0,0C1761.3,662.9,1763.8,659.2,1767.8,657.9z"/>
	<path class="st12" d="M1767.8,894.2c5.1-1.8,10.7,0.9,12.5,6l0,0l0,0l0,0c1.8,5.1-0.9,10.7-6,12.5l0,0c-5.1,1.8-10.7-0.9-12.5-6
		l0,0c-0.4-1.1-0.6-2.3-0.5-3.4l0,0C1761.3,899.3,1763.8,895.6,1767.8,894.2z"/>
	<path class="st12" d="M1767.8,1012.4c5.1-1.8,10.7,0.9,12.5,6l0,0l0,0l0,0c1.8,5.1-0.9,10.7-6,12.5l0,0c-5.1,1.8-10.7-0.9-12.5-6
		l0,0c-0.4-1.1-0.6-2.3-0.5-3.4l0,0C1761.3,1017.5,1763.8,1013.8,1767.8,1012.4z"/>
	<path class="st12" d="M1767.8,1130.6c5.1-1.8,10.7,0.9,12.5,6l0,0l0,0l0,0c1.8,5.1-0.9,10.7-6,12.5l0,0c-5.1,1.8-10.7-0.9-12.5-6
		l0,0c-0.4-1.1-0.6-2.3-0.5-3.4l0,0C1761.3,1135.7,1763.8,1132,1767.8,1130.6z"/>
	<path class="st12" d="M1767.8,1248.8c5.1-1.8,10.7,0.9,12.5,6l0,0l0,0l0,0c1.8,5.1-0.9,10.7-6,12.5l0,0c-5.1,1.8-10.7-0.9-12.5-6
		l0,0c-0.4-1.1-0.6-2.3-0.5-3.4l0,0C1761.3,1253.9,1763.8,1250.2,1767.8,1248.8z"/>
</g>
<g>
	<path class="st13" d="M206.8,1559.1h325c8.6,0,15.6-7,15.6-15.6v-42.4c0-8.6-7-15.6-15.6-15.6h-325c-8.6,0-15.6,7-15.6,15.6v42.4
		C191.2,1552.1,198.2,1559.1,206.8,1559.1z"/>
	
		<rect x="206" y="1500.1" transform="matrix(-1 -1.966020e-08 1.966020e-08 -1 738.6384 3044.6672)" class="st14" width="326.7" height="44.5"/>
</g>
<g>
	<path class="st14" d="M634.4,1559.1h325c8.6,0,15.6-7,15.6-15.6l0-42.4c0-8.6-7-15.6-15.6-15.6h-325c-8.6,0-15.6,7-15.6,15.6v42.4
		C618.8,1552.1,625.8,1559.1,634.4,1559.1z"/>
	
		<rect x="633.6" y="1500.1" transform="matrix(-1 -1.966020e-08 1.966020e-08 -1 1593.8323 3044.6672)" class="st13" width="326.7" height="44.5"/>
</g>
<g>
	<path class="st13" d="M1062,1559.1h325c8.6,0,15.6-7,15.6-15.6v-42.4c0-8.6-7-15.6-15.6-15.6h-325c-8.6,0-15.6,7-15.6,15.6v42.4
		C1046.4,1552.1,1053.4,1559.1,1062,1559.1z"/>
	
		<rect x="1061.2" y="1500.1" transform="matrix(-1 -1.966020e-08 1.966020e-08 -1 2449.0261 3044.6672)" class="st14" width="326.7" height="44.5"/>
</g>
<g>
	<path class="st14" d="M1489.6,1559.1h325c8.6,0,15.6-7,15.6-15.6v-42.4c0-8.6-7-15.6-15.6-15.6h-325c-8.6,0-15.6,7-15.6,15.6v42.4
		C1474,1552.1,1481,1559.1,1489.6,1559.1z"/>
	
		<rect x="1488.8" y="1500.1" transform="matrix(-1 -1.966020e-08 1.966020e-08 -1 3304.22 3044.6672)" class="st13" width="326.7" height="44.5"/>
</g>
</svg>
