<svg version="1.2" xmlns="http://www.w3.org/2000/svg" viewBox="0 0 1931 1415" width="1931" height="1415"><defs><clipPath clipPathUnits="userSpaceOnUse" id="cp1"><path d="m222.8 219.1h1483.1v1043.9h-1483.1z"/></clipPath></defs><style>tspan{white-space:pre}.a{fill:#fff;stroke:#00112c;stroke-linecap:round;stroke-linejoin:round;stroke-width:2}.b{fill:#85dfa1;stroke:#00112c;stroke-linecap:round;stroke-linejoin:round;stroke-width:2}.c{fill:#0abf53;stroke:#00112c;stroke-linecap:round;stroke-linejoin:round;stroke-width:2}.d{fill:#00112c;stroke:#00112c;stroke-linecap:round;stroke-linejoin:round;stroke-width:2}.e{fill:#e8edf3;stroke:#00112c;stroke-linecap:round;stroke-linejoin:round;stroke-width:2}.f{fill:none;stroke:#fff;stroke-linecap:round;stroke-linejoin:round;stroke-width:2}.g{font-size: 13px;fill: #000000;font-weight: 400;font-family: "LiberationSans", "Liberation Sans"}.h{fill:#0abf53}.i{fill:#85dfa1}.j{fill:#00112c;stroke:#85dfa1;stroke-linecap:round;stroke-linejoin:round;stroke-width:2}.k{fill:#00112c;stroke:#0abf53;stroke-linecap:round;stroke-linejoin:round;stroke-width:2}</style><path class="a" d="m1480.7 157.2h-1019.6c156.6-84 328.9-130.5 509.8-130.5 180.9 0 353.2 46.4 509.8 130.5z"/><path class="b" d="m1369.9 157.2h424.9v336.9c-108.1-147.3-254.6-264.6-424.9-336.9z"/><path class="b" d="m147 494.1v-336.9h425c-170.3 72.3-316.9 189.6-425 336.9z"/><path class="b" d="m1369.8 157.2h-797.9c122.6-52.1 257.4-80.9 399-80.9 141.6 0 276.4 28.8 398.9 80.9z"/><path class="c" d="m147 1333.9v-839.8c108.1-147.3 254.7-264.6 425-336.9h797.9c170.3 72.3 316.9 189.6 424.9 336.9v839.8z"/><g clip-path="url(#cp1)"><path class="d" d="m222.8 216.4h1483.1v1046.6h-1483.1z"/></g><path class="a" d="m183 193.8l39.8 36.1v1033.1l-39.8 36.1z"/><path class="e" d="m1745.7 193.8l-39.8 36.1h-1483.1l-39.8-36.1z"/><path class="e" d="m183 1299.1l39.8-36.1h1483.1l39.8 36.1z"/><path class="a" d="m1745.7 1299.1l-39.8-36.1v-1033.1l39.8-36.1z"/><path class="c" d="m1386.4 1413.1c-14.6 0-26.4-11.8-26.4-26.4 0-14.6 11.8-26.4 26.4-26.4 14.6 0 26.4 11.8 26.4 26.4 0 14.6-11.8 26.4-26.4 26.4z"/><path class="b" d="m1268.2 1413.1c-14.6 0-26.4-11.8-26.4-26.4 0-14.6 11.8-26.4 26.4-26.4 14.6 0 26.4 11.8 26.4 26.4 0 14.6-11.8 26.4-26.4 26.4z"/><path class="c" d="m1150 1413.1c-14.6 0-26.4-11.8-26.4-26.4 0-14.6 11.8-26.4 26.4-26.4 14.6 0 26.4 11.8 26.4 26.4 0 14.6-11.8 26.4-26.4 26.4z"/><path class="b" d="m1031.8 1413.1c-14.6 0-26.4-11.8-26.4-26.4 0-14.6 11.8-26.4 26.4-26.4 14.6 0 26.4 11.8 26.4 26.4 0 14.6-11.8 26.4-26.4 26.4z"/><path class="c" d="m913.6 1413.1c-14.6 0-26.4-11.8-26.4-26.4 0-14.6 11.8-26.4 26.4-26.4 14.6 0 26.4 11.8 26.4 26.4 0 14.6-11.8 26.4-26.4 26.4z"/><path class="b" d="m795.5 1413.1c-14.6 0-26.4-11.8-26.4-26.4 0-14.6 11.8-26.4 26.4-26.4 14.6 0 26.4 11.8 26.4 26.4 0 14.6-11.8 26.4-26.4 26.4z"/><path class="c" d="m677.3 1413.1c-14.6 0-26.4-11.8-26.4-26.4 0-14.6 11.8-26.4 26.4-26.4 14.6 0 26.4 11.8 26.4 26.4 0 14.6-11.8 26.4-26.4 26.4z"/><path class="b" d="m559.1 1413.1c-14.6 0-26.4-11.8-26.4-26.4 0-14.6 11.8-26.4 26.4-26.4 14.6 0 26.4 11.8 26.4 26.4 0 14.6-11.8 26.4-26.4 26.4z"/><path class="c" d="m1622.8 1413.1c-14.6 0-26.4-11.8-26.4-26.4 0-14.6 11.8-26.4 26.4-26.4 14.6 0 26.4 11.8 26.4 26.4 0 14.6-11.8 26.4-26.4 26.4z"/><path class="b" d="m1504.6 1413.1c-14.6 0-26.4-11.8-26.4-26.4 0-14.6 11.8-26.4 26.4-26.4 14.6 0 26.4 11.8 26.4 26.4 0 14.6-11.8 26.4-26.4 26.4z"/><path class="b" d="m1740.9 1413.1c-14.6 0-26.4-11.8-26.4-26.4 0-14.6 11.8-26.4 26.4-26.4 14.6 0 26.4 11.8 26.4 26.4 0 14.6-11.8 26.4-26.4 26.4z"/><path class="c" d="m440.9 1413.1c-14.6 0-26.4-11.8-26.4-26.4 0-14.6 11.8-26.4 26.4-26.4 14.6 0 26.4 11.8 26.4 26.4 0 14.6-11.8 26.4-26.4 26.4z"/><path class="b" d="m322.7 1413.1c-14.6 0-26.4-11.8-26.4-26.4 0-14.6 11.8-26.4 26.4-26.4 14.6 0 26.4 11.8 26.4 26.4 0 14.6-11.8 26.4-26.4 26.4z"/><path class="c" d="m204.5 1413.1c-14.6 0-26.4-11.8-26.4-26.4 0-14.6 11.8-26.4 26.4-26.4 14.6 0 26.4 11.8 26.4 26.4 0 14.6-11.8 26.4-26.4 26.4z"/><path class="f" d="m1398.5 1386.7c0-8.3-6.7-15.1-15.1-15.1"/><path class="f" d="m1280.3 1386.7c0-8.3-6.7-15.1-15.1-15.1"/><path class="f" d="m1162.2 1386.7c0-8.3-6.7-15.1-15.1-15.1"/><path class="f" d="m1044 1386.7c0-8.3-6.7-15.1-15.1-15.1"/><path class="f" d="m1634.9 1386.7c0-8.3-6.7-15.1-15.1-15.1"/><path class="f" d="m1516.7 1386.7c0-8.3-6.7-15.1-15.1-15.1"/><path class="f" d="m1753.1 1386.7c0-8.3-6.7-15.1-15.1-15.1"/><path class="f" d="m925.8 1386.7c0-8.3-6.7-15.1-15.1-15.1"/><path class="f" d="m807.6 1386.7c0-8.3-6.7-15.1-15.1-15.1"/><path class="f" d="m689.4 1386.7c0-8.3-6.7-15.1-15.1-15.1"/><path class="f" d="m571.2 1386.7c0-8.3-6.7-15.1-15.1-15.1"/><path class="f" d="m453 1386.7c0-8.3-6.7-15.1-15.1-15.1"/><path class="f" d="m216.7 1386.7c0-8.3-6.7-15.1-15.1-15.1"/><path class="f" d="m334.9 1386.7c0-8.3-6.7-15.1-15.1-15.1"/><path class="c" d="m445.1 132c-14.9 0-26.9-12.3-26.9-27.5 0-15.2 12-27.5 26.9-27.5 14.9 0 26.9 12.3 26.9 27.5 0 15.2-12 27.5-26.9 27.5z"/><path class="b" d="m1503.2 132c-14.9 0-26.9-12.3-26.9-27.5 0-15.2 12-27.5 26.9-27.5 14.9 0 26.9 12.3 26.9 27.5 0 15.2-12 27.5-26.9 27.5z"/><path class="f" d="m428.7 104.5c0-8.7 6.9-15.7 15.3-15.7"/><path class="c" d="m205 132c-14.9 0-26.9-12.3-26.9-27.5 0-15.2 12-27.5 26.9-27.5 14.9 0 26.9 12.3 26.9 27.5 0 15.2-12 27.5-26.9 27.5z"/><path class="b" d="m325.9 132c-14.9 0-26.9-12.3-26.9-27.5 0-15.2 12-27.5 26.9-27.5 14.9 0 26.9 12.3 26.9 27.5 0 15.2-12 27.5-26.9 27.5z"/><path class="f" d="m186.9 104.5c0-8.7 6.9-15.7 15.3-15.7"/><path class="f" d="m310.6 104.5c0-8.7 6.9-15.7 15.3-15.7"/><path class="f" d="m1488.4 104.5c0-8.7 6.9-15.7 15.3-15.7"/><path class="c" d="m1633.1 132c-14.9 0-26.9-12.3-26.9-27.5 0-15.2 12-27.5 26.9-27.5 14.9 0 26.9 12.3 26.9 27.5 0 15.2-12 27.5-26.9 27.5z"/><path class="b" d="m1755.8 132c-14.9 0-26.9-12.3-26.9-27.5 0-15.2 12-27.5 26.9-27.5 14.9 0 26.9 12.3 26.9 27.5 0 15.2-12 27.5-26.9 27.5z"/><path class="f" d="m1617.7 104.5c0-8.7 6.9-15.7 15.3-15.7"/><path class="f" d="m1741 104.5c0-8.7 6.9-15.7 15.3-15.7"/><path class="f" d="m193.6 180.8h291.8"/><path class="f" d="m1443.6 180.8h291.7"/><path class="f" d="m193.6 1309.9h291.8"/><path class="f" d="m1443.6 1309.9h291.7"/><path class="f" d="m116.7 1382.3v-17.1"/><path class="f" d="m70.8 1378.2l19.4-19.4"/><path class="f" d="m66.8 1332.4h17.1"/><path class="f" d="m63.8 154.2h17.1"/><path class="f" d="m67.9 108.4l19.4 19.4"/><path class="f" d="m113.7 104.3v17.1"/><path class="c" d="m103.4 847.1c-55.2 0-99.9-44.7-99.9-99.9 0-55.2 44.7-99.9 99.9-99.9 55.2 0 99.9 44.7 99.9 99.9 0 55.2-44.7 99.9-99.9 99.9z"/><path class="b" d="m77.2 1299.2c0 0-5.5-36-50.7-51.6v-383.7l29.1-29.1h130.9v464.3h-109.3z"/><path class="d" d="m85.7 1285c0 0-5-32.8-46.2-47v-362.4l26.5-26.5h106.1v435.9z"/><path class="a" d="m158.2 897.4v325c0 8.6-7 15.6-15.6 15.6h-70.1c-8.6 0-15.6-7-15.6-15.6v-325c0-8.6 7-15.6 15.6-15.6h70.1c8.6 0 15.6 6.9 15.6 15.6z"/><path class="c" d="m71.4 1223.2v-326.7h72.2v326.7z"/><path class="a" d="m103.4 828.2c-44.8 0-81-36.2-81-81 0-44.8 36.2-81 81-81 44.8 0 81 36.2 81 81 0 44.8-36.2 81-81 81z"/><path class="b" d="m103.4 811.1c-35.3 0-63.9-28.6-63.9-63.9 0-35.3 28.6-63.9 63.9-63.9 35.3 0 63.9 28.6 63.9 63.9 0 35.3-28.6 63.9-63.9 63.9z"/><path class="a" d="m123.8 1343.1c-10 0-18-8-18-18 0-10 8-18 18-18 10 0 18 8 18 18 0 10-8 18-18 18z"/><path class="b" d="m186.5 193.8v464.3h-130.9l-29.1-29.1v-383.6c45.2-15.6 50.7-51.6 50.7-51.6z"/><path class="d" d="m172.1 208v435.9h-106.1l-26.5-26.5v-362.4c41.2-14.2 46.2-47 46.2-47z"/><path class="a" d="m142.6 611.2h-70.1c-8.6 0-15.6-7-15.6-15.6v-325c0-8.6 7-15.6 15.6-15.6h70.1c8.6 0 15.6 7 15.6 15.6v325c0 8.6-7 15.6-15.6 15.6z"/><path class="c" d="m143.6 269.8v326.7h-72.2v-326.7z"/><path class="a" d="m142.6 611.2h-70.1c-8.6 0-15.6-7-15.6-15.6v-325c0-8.6 7-15.6 15.6-15.6h70.1c8.6 0 15.6 7 15.6 15.6v325c0 8.6-7 15.6-15.6 15.6z"/><path class="c" d="m143.6 269.8v326.7h-72.2v-326.7z"/><path class="a" d="m123.8 185.9c-10 0-18-8-18-18 0-10 8-18 18-18 10 0 18 8 18 18 0 10-8 18-18 18z"/><path class="f" d="m103.4 774.2l-23.4-23.4"/><path class="f" d="m132.8 776.5l-42.6-42.5"/><path class="f" d="m1815.6 110.8v17.1"/><path class="f" d="m1861.4 114.8l-19.4 19.4"/><path class="f" d="m1865.5 160.6h-17.1"/><path class="f" d="m1868.4 1338.9h-17"/><path class="f" d="m1864.4 1384.7l-19.4-19.4"/><path class="f" d="m1818.6 1388.7v-17.1"/><path class="c" d="m1828.9 845.8c-55.2 0-99.9-44.7-99.9-99.9 0-55.2 44.7-99.9 99.9-99.9 55.2 0 99.9 44.7 99.9 99.9 0 55.2-44.7 99.9-99.9 99.9z"/><path class="b" d="m1855.1 193.9c0 0 5.5 36 50.7 51.6v383.6l-29.1 29.1h-130.9v-464.3z"/><path class="d" d="m1846.6 208.1c0 0 5 32.8 46.2 47v362.4l-26.5 26.5h-106.1v-435.9z"/><path class="a" d="m1828.9 826.9c-44.8 0-81-36.2-81-81 0-44.8 36.2-81 81-81 44.8 0 81 36.2 81 81 0 44.8-36.2 81-81 81z"/><path class="a" d="m1774.1 595.7v-325c0-8.6 7-15.6 15.6-15.6h70.1c8.6 0 15.6 7 15.6 15.6v325c0 8.6-7 15.6-15.6 15.6h-70.1c-8.6 0-15.6-7-15.6-15.6z"/><path class="c" d="m1860.9 269.9v326.7h-72.2v-326.7z"/><path class="b" d="m1828.9 809.8c-35.3 0-63.9-28.6-63.9-63.9 0-35.3 28.6-63.9 63.9-63.9 35.3 0 63.9 28.6 63.9 63.9 0 35.3-28.6 63.9-63.9 63.9z"/><path class="a" d="m1808.4 186c-10 0-18-8-18-18 0-10 8-18 18-18 10 0 18 8 18 18 0 10-8 18-18 18z"/><path class="b" d="m1855.1 1299.2h-109.3v-464.3h130.9l29.1 29.1v383.7c-45.2 15.6-50.7 51.6-50.7 51.6z"/><path class="d" d="m1846.6 1285h-86.4v-435.8h106.1l26.5 26.5v362.4c-41.2 14.2-46.2 47-46.2 47z"/><path class="a" d="m1789.7 881.9h70.1c8.6 0 15.6 7 15.6 15.6v325c0 8.6-7 15.6-15.6 15.6h-70.1c-8.6 0-15.6-7-15.6-15.6v-325c0-8.7 7-15.6 15.6-15.6z"/><path class="c" d="m1788.6 1223.3v-326.7h72.2v326.7z"/><path class="a" d="m1808.4 1343.2c-10 0-18-8-18-18 0-10 8-18 18-18 10 0 18 8 18 18 0 10-8 18-18 18z"/><path class="f" d="m1828.9 718.8l23.4 23.4"/><path class="f" d="m1799.5 716.6l42.5 42.5"/><path class="c" d="m892.8 79.1c50 0 78.1-40.2 78.1-78.2 0 37.9 28.1 78.2 78.1 78.2-50 0-78.1 40.2-78.1 78.2 0-38-28.1-78.3-78.1-78.2z"/><text style="transform:matrix(1,0,0,1,1333.821,246.091)" ><tspan x="0" y="0" class="g">4 pt
</tspan></text><path class="h" d="m254.4 1284.3c-1.8-5.1 0.9-10.7 6-12.5 5.1-1.8 10.7 0.9 12.5 6 1.8 5.1-0.9 10.7-6 12.5-1.1 0.4-2.3 0.6-3.4 0.5-4 0-7.7-2.5-9.1-6.5z"/><path class="h" d="m372.6 1284.3c-1.8-5.1 0.9-10.7 6-12.5 5.1-1.8 10.7 0.9 12.5 6 1.8 5.1-0.9 10.7-6 12.5-1.1 0.4-2.3 0.6-3.4 0.5-4 0-7.7-2.5-9.1-6.5z"/><path class="h" d="m490.8 1284.3c-1.8-5.1 0.9-10.7 6-12.5 5.1-1.8 10.7 0.9 12.5 6 1.8 5.1-0.9 10.7-6 12.5-1.1 0.4-2.3 0.6-3.4 0.5-4.1 0-7.7-2.5-9.1-6.5z"/><path class="h" d="m609 1284.3c-1.8-5.1 0.9-10.7 6-12.5 5.1-1.8 10.7 0.9 12.5 6 1.8 5.1-0.9 10.7-6 12.5-1.1 0.4-2.3 0.6-3.4 0.5-4.1 0-7.8-2.5-9.1-6.5z"/><path class="h" d="m727.1 1284.3c-1.8-5.1 0.9-10.7 6-12.5 5.1-1.8 10.7 0.9 12.5 6 1.8 5.1-0.9 10.7-6 12.5-1.1 0.4-2.3 0.6-3.4 0.5-4 0-7.7-2.5-9.1-6.5z"/><path class="h" d="m845.3 1284.3c-1.8-5.1 0.9-10.7 6-12.5 5.1-1.8 10.7 0.9 12.5 6 1.8 5.1-0.9 10.7-6 12.5-1.1 0.4-2.3 0.6-3.4 0.5-4 0-7.7-2.5-9.1-6.5z"/><path class="h" d="m963.5 1284.3c-1.8-5.1 0.9-10.7 6-12.5 5.1-1.8 10.7 0.9 12.5 6 1.8 5.1-0.9 10.7-6 12.5-1.1 0.4-2.3 0.6-3.4 0.5-4 0-7.7-2.5-9.1-6.5z"/><path class="h" d="m1081.7 1284.3c-1.8-5.1 0.9-10.7 6-12.5 5.1-1.8 10.7 0.9 12.5 6 1.8 5.1-0.9 10.7-6 12.5-1.1 0.4-2.3 0.6-3.4 0.5-4 0-7.7-2.5-9.1-6.5z"/><path class="h" d="m1199.9 1284.3c-1.8-5.1 0.9-10.7 6-12.5 5.1-1.8 10.7 0.9 12.5 6 1.8 5.1-0.9 10.7-6 12.5-1.1 0.4-2.3 0.6-3.4 0.5-4 0-7.7-2.5-9.1-6.5z"/><path class="h" d="m1318.1 1284.3c-1.8-5.1 0.9-10.7 6-12.5 5.1-1.8 10.7 0.9 12.5 6 1.8 5.1-0.9 10.7-6 12.5-1.1 0.4-2.3 0.6-3.4 0.5-4.1 0-7.7-2.5-9.1-6.5z"/><path class="h" d="m1436.3 1284.3c-1.8-5.1 0.9-10.7 6-12.5 5.1-1.8 10.7 0.9 12.5 6 1.8 5.1-0.9 10.7-6 12.5-1.1 0.4-2.3 0.6-3.4 0.5-4.1 0-7.8-2.5-9.1-6.5z"/><path class="h" d="m1554.4 1284.3c-1.8-5.1 0.9-10.7 6-12.5 5.1-1.8 10.7 0.9 12.5 6 1.8 5.1-0.9 10.7-6 12.5-1.1 0.4-2.3 0.6-3.4 0.5-4 0-7.7-2.5-9.1-6.5z"/><path class="h" d="m1672.6 1284.3c-1.8-5.1 0.9-10.7 6-12.5 5.1-1.8 10.7 0.9 12.5 6 1.8 5.1-0.9 10.7-6 12.5-1.1 0.4-2.3 0.6-3.4 0.5-4 0-7.7-2.5-9.1-6.5z"/><path class="h" d="m254.4 215.1c-1.8-5.1 0.9-10.7 6-12.5 5.1-1.8 10.7 0.9 12.5 6 1.8 5.1-0.9 10.7-6 12.5-1.1 0.4-2.3 0.6-3.4 0.5-4 0-7.7-2.5-9.1-6.5z"/><path class="h" d="m372.6 215.1c-1.8-5.1 0.9-10.7 6-12.5 5.1-1.8 10.7 0.9 12.5 6 1.8 5.1-0.9 10.7-6 12.5-1.1 0.4-2.3 0.6-3.4 0.5-4 0-7.7-2.5-9.1-6.5z"/><path class="h" d="m490.8 215.1c-1.8-5.1 0.9-10.7 6-12.5 5.1-1.8 10.7 0.9 12.5 6 1.8 5.1-0.9 10.7-6 12.5-1.1 0.4-2.3 0.6-3.4 0.5-4.1 0-7.7-2.5-9.1-6.5z"/><path class="h" d="m609 215.1c-1.8-5.1 0.9-10.7 6-12.5 5.1-1.8 10.7 0.9 12.5 6 1.8 5.1-0.9 10.7-6 12.5-1.1 0.4-2.3 0.6-3.4 0.5-4.1 0-7.8-2.5-9.1-6.5z"/><path class="h" d="m727.1 215.1c-1.8-5.1 0.9-10.7 6-12.5 5.1-1.8 10.7 0.9 12.5 6 1.8 5.1-0.9 10.7-6 12.5-1.1 0.4-2.3 0.6-3.4 0.5-4 0-7.7-2.5-9.1-6.5z"/><path class="h" d="m845.3 215.1c-1.8-5.1 0.9-10.7 6-12.5 5.1-1.8 10.7 0.9 12.5 6 1.8 5.1-0.9 10.7-6 12.5-1.1 0.4-2.3 0.6-3.4 0.5-4 0-7.7-2.5-9.1-6.5z"/><path class="h" d="m963.5 215.1c-1.8-5.1 0.9-10.7 6-12.5 5.1-1.8 10.7 0.9 12.5 6 1.8 5.1-0.9 10.7-6 12.5-1.1 0.4-2.3 0.6-3.4 0.5-4 0-7.7-2.5-9.1-6.5z"/><path class="h" d="m1081.7 215.1c-1.8-5.1 0.9-10.7 6-12.5 5.1-1.8 10.7 0.9 12.5 6 1.8 5.1-0.9 10.7-6 12.5-1.1 0.4-2.3 0.6-3.4 0.5-4 0-7.7-2.5-9.1-6.5z"/><path class="h" d="m1199.9 215.1c-1.8-5.1 0.9-10.7 6-12.5 5.1-1.8 10.7 0.9 12.5 6 1.8 5.1-0.9 10.7-6 12.5-1.1 0.4-2.3 0.6-3.4 0.5-4 0-7.7-2.5-9.1-6.5z"/><path class="h" d="m1318.1 215.1c-1.8-5.1 0.9-10.7 6-12.5 5.1-1.8 10.7 0.9 12.5 6 1.8 5.1-0.9 10.7-6 12.5-1.1 0.4-2.3 0.6-3.4 0.5-4.1 0-7.7-2.5-9.1-6.5z"/><path class="h" d="m1436.3 215.1c-1.8-5.1 0.9-10.7 6-12.5 5.1-1.8 10.7 0.9 12.5 6 1.8 5.1-0.9 10.7-6 12.5-1.1 0.4-2.3 0.6-3.4 0.5-4.1 0-7.8-2.5-9.1-6.5z"/><path class="h" d="m1554.4 215.1c-1.8-5.1 0.9-10.7 6-12.5 5.1-1.8 10.7 0.9 12.5 6 1.8 5.1-0.9 10.7-6 12.5-1.1 0.4-2.3 0.6-3.4 0.5-4 0-7.7-2.5-9.1-6.5z"/><path class="h" d="m1672.6 215.1c-1.8-5.1 0.9-10.7 6-12.5 5.1-1.8 10.7 0.9 12.5 6 1.8 5.1-0.9 10.7-6 12.5-1.1 0.4-2.3 0.6-3.4 0.5-4 0-7.7-2.5-9.1-6.5z"/><path class="i" d="m199 265.3c5.1-1.8 10.7 0.9 12.5 6 1.8 5.1-0.9 10.7-6 12.5-5.1 1.8-10.7-0.9-12.5-6-0.4-1.1-0.6-2.3-0.5-3.4 0-4 2.5-7.7 6.5-9.1z"/><path class="i" d="m199 383.5c5.1-1.8 10.7 0.9 12.5 6 1.8 5.1-0.9 10.7-6 12.5-5.1 1.8-10.7-0.9-12.5-6-0.4-1.1-0.6-2.3-0.5-3.4 0-4 2.5-7.7 6.5-9.1z"/><path class="i" d="m199 501.7c5.1-1.8 10.7 0.9 12.5 6 1.8 5.1-0.9 10.7-6 12.5-5.1 1.8-10.7-0.9-12.5-6-0.4-1.1-0.6-2.3-0.5-3.4 0-4.1 2.5-7.7 6.5-9.1z"/><path class="i" d="m199 619.9c5.1-1.8 10.7 0.9 12.5 6 1.8 5.1-0.9 10.7-6 12.5-5.1 1.8-10.7-0.9-12.5-6-0.4-1.1-0.6-2.3-0.5-3.4 0-4.1 2.5-7.8 6.5-9.1z"/><path class="i" d="m199 856.2c5.1-1.8 10.7 0.9 12.5 6 1.8 5.1-0.9 10.7-6 12.5-5.1 1.8-10.7-0.9-12.5-6-0.4-1.1-0.6-2.3-0.5-3.4 0-4 2.5-7.7 6.5-9.1z"/><path class="i" d="m199 974.4c5.1-1.8 10.7 0.9 12.5 6 1.8 5.1-0.9 10.7-6 12.5-5.1 1.8-10.7-0.9-12.5-6-0.4-1.1-0.6-2.3-0.5-3.4 0-4 2.5-7.7 6.5-9.1z"/><path class="i" d="m199 1092.6c5.1-1.8 10.7 0.9 12.5 6 1.8 5.1-0.9 10.7-6 12.5-5.1 1.8-10.7-0.9-12.5-6-0.4-1.1-0.6-2.3-0.5-3.4 0-4 2.5-7.7 6.5-9.1z"/><path class="i" d="m199 1210.8c5.1-1.8 10.7 0.9 12.5 6 1.8 5.1-0.9 10.7-6 12.5-5.1 1.8-10.7-0.9-12.5-6-0.4-1.1-0.6-2.3-0.5-3.4 0-4 2.5-7.7 6.5-9.1z"/><path class="i" d="m1725.8 265.3c5.1-1.8 10.7 0.9 12.5 6 1.8 5.1-0.9 10.7-6 12.5-5.1 1.8-10.7-0.9-12.5-6-0.4-1.1-0.6-2.3-0.5-3.4 0-4 2.5-7.7 6.5-9.1z"/><path class="i" d="m1725.8 383.5c5.1-1.8 10.7 0.9 12.5 6 1.8 5.1-0.9 10.7-6 12.5-5.1 1.8-10.7-0.9-12.5-6-0.4-1.1-0.6-2.3-0.5-3.4 0-4 2.5-7.7 6.5-9.1z"/><path class="i" d="m1725.8 501.7c5.1-1.8 10.7 0.9 12.5 6 1.8 5.1-0.9 10.7-6 12.5-5.1 1.8-10.7-0.9-12.5-6-0.4-1.1-0.6-2.3-0.5-3.4 0-4.1 2.5-7.7 6.5-9.1z"/><path class="i" d="m1725.8 619.9c5.1-1.8 10.7 0.9 12.5 6 1.8 5.1-0.9 10.7-6 12.5-5.1 1.8-10.7-0.9-12.5-6-0.4-1.1-0.6-2.3-0.5-3.4 0-4.1 2.5-7.8 6.5-9.1z"/><path class="i" d="m1725.8 856.2c5.1-1.8 10.7 0.9 12.5 6 1.8 5.1-0.9 10.7-6 12.5-5.1 1.8-10.7-0.9-12.5-6-0.4-1.1-0.6-2.3-0.5-3.4 0-4 2.5-7.7 6.5-9.1z"/><path class="i" d="m1725.8 974.4c5.1-1.8 10.7 0.9 12.5 6 1.8 5.1-0.9 10.7-6 12.5-5.1 1.8-10.7-0.9-12.5-6-0.4-1.1-0.6-2.3-0.5-3.4 0-4 2.5-7.7 6.5-9.1z"/><path class="i" d="m1725.8 1092.6c5.1-1.8 10.7 0.9 12.5 6 1.8 5.1-0.9 10.7-6 12.5-5.1 1.8-10.7-0.9-12.5-6-0.4-1.1-0.6-2.3-0.5-3.4 0-4 2.5-7.7 6.5-9.1z"/><path class="i" d="m1725.8 1210.8c5.1-1.8 10.7 0.9 12.5 6 1.8 5.1-0.9 10.7-6 12.5-5.1 1.8-10.7-0.9-12.5-6-0.4-1.1-0.6-2.3-0.5-3.4 0-4 2.5-7.7 6.5-9.1z"/><path class="j" d="m681.9 1540.3v-70.9c0-14.4 11.7-26.1 26.1-26.1h543.9c14.4 0 26.1 11.7 26.1 26.1v70.9c0 14.4-11.7 26.1-26.1 26.1h-543.9c-14.4 0-26.1-11.7-26.1-26.1z"/><path class="k" d="m1253.3 1542h-546.7v-74.4h546.7z"/><path class="k" d="m225.8 280.4v-35.2c0-7.2 5.8-13 13-13h269.7c7.2 0 13 5.8 13 13v35.2c0 7.2-5.8 13-13 13h-269.7c-7.2 0-13-5.8-13-13z"/><path class="j" d="m521.4 280.4v-35.2c0-7.2 5.8-13 13-13h269.7c7.2 0 13 5.8 13 13v35.2c0 7.2-5.8 13-13 13h-269.7c-7.2 0-13-5.8-13-13z"/><path class="k" d="m817 280.4v-35.2c0-7.2 5.8-13 13-13h269.7c7.2 0 13 5.8 13 13v35.2c0 7.2-5.8 13-13 13h-269.7c-7.1 0-12.9-5.8-13-13z"/><path class="k" d="m1408.3 280.4v-35.2c0-7.2 5.8-13 13-13h269.7c7.2 0 13 5.8 13 13v35.2c0 7.2-5.8 13-13 13h-269.7c-7.2 0-13-5.8-13-13z"/><path class="j" d="m1112.6 280.4v-35.2c0-7.2 5.8-13 13-13h269.7c7.2 0 13 5.8 13 13v35.2c0 7.2-5.8 13-13 13h-269.7c-7.1 0-12.9-5.8-13-13z"/><path class="b" d="m2392.3 419v318.1 19h-20.5-94.7v-19h94.7v-318.1z"/><path class="a" d="m2371.8 419h20.5v32.5h-20.5z"/><path class="a" d="m2381.3 766.8c-13.2 0-23.9-10.7-23.9-23.9 0-13.2 10.7-23.9 23.9-23.9 13.2 0 23.9 10.7 23.9 23.9 0 13.2-10.7 23.9-23.9 23.9z"/><path class="c" d="m2381.3 425.2c-33.8 0-61.1-28-61.1-62.6 0-34.6 27.3-62.6 61.1-62.6 33.8 0 61.1 28 61.1 62.6 0 34.6-27.3 62.6-61.1 62.6z"/><path class="f" d="m2346.4 362.6c0-19.7 15.6-35.7 34.8-35.7"/><path class="b" d="m2614.2 551.3l-4 186.6v19h-20.5-94.7v-19h94.7l-6-186.6z"/><path class="a" d="m2614.2 551.3c-9.2 5.9-21 6-30.3 0.2l-0.3-0.2-1-32.5h32.5z"/><path class="a" d="m2599.2 767.6c-13.2 0-23.9-10.7-23.9-23.9 0-13.2 10.7-23.9 23.9-23.9 13.2 0 23.9 10.7 23.9 23.9 0 13.2-10.7 23.9-23.9 23.9z"/><path class="c" d="m2599.2 532.7c-43.8 0-79.2-36.3-79.2-81.2 0-44.9 35.4-81.2 79.2-81.2 43.8 0 79.2 36.3 79.2 81.2 0 44.9-35.4 81.2-79.2 81.2z"/><path class="f" d="m2554 451.5c0-25.6 20.2-46.3 45.2-46.3"/><path class="c" d="m512.5 1566.7v-24h-107v-75.8h107v-24l61.9 61.9z"/><path class="b" d="m522.7 1533.1v-10.6h-97.6v-33.4h97.6v-10.6l27.3 27.3z"/><path class="c" d="m1446.9 1442.9v24h107v75.8h-107v24l-61.9-61.9z"/><path class="b" d="m1436.7 1476.5v10.6h97.5v33.5h-97.5v10.5l-27.3-27.3z"/></svg>