<svg width="286" height="176" viewBox="0 0 286 176" fill="none" xmlns="http://www.w3.org/2000/svg">
<path d="M251.38 1H34.6C16.0432 1 1 16.0432 1 34.6V140.86C1 159.417 16.0432 174.46 34.6 174.46H251.38C269.937 174.46 284.98 159.417 284.98 140.86V34.6C284.98 16.0432 269.937 1 251.38 1Z" fill="#00112C" stroke="#00112C" stroke-width="2" stroke-linecap="round" stroke-linejoin="round"/>
<path d="M101.71 83.733L108.812 78.91V101.488H100.067V107H123.811V101.488H115.596V70.536H111.144L98.9009 78.91L101.71 83.733ZM140.51 107H147.347V93.22C147.347 88.556 149.891 85.8 153.283 85.8C156.304 85.8 158.318 87.39 158.318 92.16V107H165.155V91.312C165.155 83.256 160.491 80.5 155.191 80.5C151.534 80.5 148.725 81.984 147.241 84.846H147.029C147.347 81.401 147.347 77.903 147.347 76.154V68.204H140.51V107ZM171.708 107H178.545V94.651C178.545 90.093 180.4 86.595 184.269 86.595C185.276 86.595 186.336 86.86 187.449 87.443L188.827 81.56C187.502 80.659 186.283 80.5 185.223 80.5C181.831 80.5 179.605 82.302 178.333 85.058H178.227V81.136H171.708V107Z" fill="white"/>
</svg>
