<svg width="286" height="176" viewBox="0 0 286 176" fill="none" xmlns="http://www.w3.org/2000/svg">
<path d="M251.38 1H34.6C16.0432 1 1 16.0432 1 34.6V140.86C1 159.417 16.0432 174.46 34.6 174.46H251.38C269.937 174.46 284.98 159.417 284.98 140.86V34.6C284.98 16.0432 269.937 1 251.38 1Z" fill="#0ABE53" stroke="#00112C" stroke-width="2" stroke-linecap="round" stroke-linejoin="round"/>
<path d="M64.5847 82.27L73.9647 75.9V105.72H62.4147V113H93.7747V105.72H82.9247V64.84H77.0447L60.8747 75.9L64.5847 82.27ZM113.591 96.2C113.591 107.68 120.451 113.84 128.991 113.84C134.241 113.84 138.231 111.88 140.191 108.1H140.471V113H149.081V61.76H140.051V72.26C140.051 74.57 140.051 79.26 140.471 83.74H140.191C138.231 79.96 134.591 78 129.551 78C120.731 78 113.591 84.72 113.591 96.2ZM122.901 96.2C122.901 89.34 126.261 84.86 131.441 84.86C136.481 84.86 140.051 89.06 140.051 95.92C140.051 102.78 136.481 106.98 131.441 106.98C126.261 106.98 122.901 103.06 122.901 96.2ZM156.237 103.97C156.237 109.85 160.367 113.56 167.717 113.56C173.597 113.56 177.307 111.53 178.917 107.89H179.197V113H187.807V90.6C187.807 82.41 182.837 78 172.687 78C164.007 78 158.127 82.27 157.567 89.9H165.967C166.247 86.47 168.487 84.3 172.687 84.3C176.887 84.3 178.777 86.75 178.777 89.62C178.777 91.72 178.007 91.93 174.437 92.49L167.577 93.47C159.667 94.59 156.237 97.81 156.237 103.97ZM178.777 98.93C178.777 104.53 174.787 107.26 170.097 107.26C166.947 107.26 165.127 105.65 165.127 102.92C165.127 100.54 166.807 99.07 170.167 98.51L175.417 97.67C177.027 97.39 178.147 96.9 178.777 96.06V98.93ZM203.485 113H205.935L205.165 115.45C203.695 120.14 200.965 121.82 197.045 121.82H194.945V128.96H199.075C206.915 128.96 210.905 123.29 212.935 117.2L226.585 78.84H217.415L209.225 104.11H208.945L200.685 78.84H190.885L203.485 113Z" fill="#00112C"/>
</svg>
