<svg width="286" height="176" viewBox="0 0 286 176" fill="none" xmlns="http://www.w3.org/2000/svg">
<path d="M251.38 1H34.6C16.0432 1 1 16.0432 1 34.6V140.86C1 159.417 16.0432 174.46 34.6 174.46H251.38C269.937 174.46 284.98 159.417 284.98 140.86V34.6C284.98 16.0432 269.937 1 251.38 1Z" fill="#00112C" stroke="#00112C" stroke-width="2" stroke-linecap="round" stroke-linejoin="round"/>
<path d="M118.752 83.733L125.854 78.91V101.488H117.109V107H140.853V101.488H132.638V70.536H128.186L115.943 78.91L118.752 83.733ZM146.437 107H153.274V99.792L156.56 96.294L163.821 107H171.665L161.012 91.577L170.711 81.136H163.079L153.274 91.842V68.204H146.437V107Z" fill="white"/>
</svg>
