<svg width="286" height="176" viewBox="0 0 286 176" fill="none" xmlns="http://www.w3.org/2000/svg">
<path d="M251.38 1H34.6C16.0432 1 1 16.0432 1 34.6V140.86C1 159.417 16.0432 174.46 34.6 174.46H251.38C269.937 174.46 284.98 159.417 284.98 140.86V34.6C284.98 16.0432 269.937 1 251.38 1Z" fill="#0ABE53" stroke="#00112C" stroke-width="2" stroke-linecap="round" stroke-linejoin="round"/>
<path d="M110.634 82.27L120.014 75.9V105.72H108.464V113H139.824V105.72H128.974V64.84H123.094L106.924 75.9L110.634 82.27ZM147.199 113H156.229V103.48L160.569 98.86L170.159 113H180.519L166.449 92.63L179.259 78.84H169.179L156.229 92.98V61.76H147.199V113Z" fill="#00112C"/>
</svg>
