<svg width="286" height="176" viewBox="0 0 286 176" fill="none" xmlns="http://www.w3.org/2000/svg">
<path d="M251.38 1H34.6C16.0432 1 1 16.0432 1 34.6V140.86C1 159.417 16.0432 174.46 34.6 174.46H251.38C269.937 174.46 284.98 159.417 284.98 140.86V34.6C284.98 16.0432 269.937 1 251.38 1Z" fill="#E7ECF2" stroke="#00112C" stroke-width="2" stroke-linecap="round" stroke-linejoin="round"/>
<path d="M100.298 95.976C100.298 104.191 105.492 107.636 113.177 107.636C120.862 107.636 126.268 103.873 126.268 97.142C126.268 92.266 123.618 89.139 119.802 87.92C122.77 86.701 124.996 83.627 124.996 79.811C124.996 73.663 120.12 69.9 113.177 69.9C106.552 69.9 101.464 73.769 101.464 80.712H107.665C107.665 76.896 110.103 75.094 113.071 75.094C116.198 75.094 118.477 76.949 118.477 80.129C118.477 83.468 116.039 85.482 113.071 85.482H110.315V90.888H112.965C116.569 90.888 119.378 92.796 119.378 96.612C119.378 100.428 116.993 102.336 113.177 102.336C109.626 102.336 106.976 100.428 106.976 95.976H100.298ZM142.982 107.636C152.522 107.636 156.285 99.368 156.285 88.768C156.285 78.168 152.522 69.9 142.982 69.9C133.442 69.9 129.679 78.168 129.679 88.768C129.679 99.368 133.442 107.636 142.982 107.636ZM142.982 102.018C138.795 102.018 136.675 97.619 136.675 88.768C136.675 79.917 138.583 75.518 142.982 75.518C147.169 75.518 149.289 79.917 149.289 88.768C149.289 97.619 147.169 102.018 142.982 102.018ZM161.233 107H168.07V99.792L171.356 96.294L178.617 107H186.461L175.808 91.577L185.507 81.136H177.875L168.07 91.842V68.204H161.233V107Z" fill="#00112C"/>
<path d="M251.38 1H34.6C16.0432 1 1 16.0432 1 34.6V140.86C1 159.417 16.0432 174.46 34.6 174.46H251.38C269.937 174.46 284.98 159.417 284.98 140.86V34.6C284.98 16.0432 269.937 1 251.38 1Z" fill="#E7ECF2" stroke="#00112C" stroke-width="2" stroke-linecap="round" stroke-linejoin="round"/>
<path d="M71.5491 82.27L80.9291 75.9V105.72H69.3791V113H100.739V105.72H89.8891V64.84H84.0091L67.8391 75.9L71.5491 82.27ZM123.094 113.84C135.694 113.84 140.664 102.92 140.664 88.92C140.664 74.92 135.694 64 123.094 64C110.494 64 105.524 74.92 105.524 88.92C105.524 102.92 110.494 113.84 123.094 113.84ZM123.094 106.42C117.564 106.42 114.764 100.61 114.764 88.92C114.764 77.23 117.284 71.42 123.094 71.42C128.624 71.42 131.424 77.23 131.424 88.92C131.424 100.61 128.624 106.42 123.094 106.42ZM162.179 113.84C174.779 113.84 179.749 102.92 179.749 88.92C179.749 74.92 174.779 64 162.179 64C149.579 64 144.609 74.92 144.609 88.92C144.609 102.92 149.579 113.84 162.179 113.84ZM162.179 106.42C156.649 106.42 153.849 100.61 153.849 88.92C153.849 77.23 156.369 71.42 162.179 71.42C167.709 71.42 170.509 77.23 170.509 88.92C170.509 100.61 167.709 106.42 162.179 106.42ZM186.285 113H195.315V103.48L199.655 98.86L209.245 113H219.605L205.535 92.63L218.345 78.84H208.265L195.315 92.98V61.76H186.285V113Z" fill="#00112C"/>
</svg>
