<svg width="286" height="176" viewBox="0 0 286 176" fill="none" xmlns="http://www.w3.org/2000/svg">
<path d="M251.38 1H34.6C16.0432 1 1 16.0432 1 34.6V140.86C1 159.417 16.0432 174.46 34.6 174.46H251.38C269.937 174.46 284.98 159.417 284.98 140.86V34.6C284.98 16.0432 269.937 1 251.38 1Z" fill="#E7ECF2" stroke="#00112C" stroke-width="2" stroke-linecap="round" stroke-linejoin="round"/>
<path d="M91.5917 82.27L100.972 75.9V105.72H89.4217V113H120.782V105.72H109.932V64.84H104.052L87.8817 75.9L91.5917 82.27ZM143.137 113.84C155.737 113.84 160.707 102.92 160.707 88.92C160.707 74.92 155.737 64 143.137 64C130.537 64 125.567 74.92 125.567 88.92C125.567 102.92 130.537 113.84 143.137 113.84ZM143.137 106.42C137.607 106.42 134.807 100.61 134.807 88.92C134.807 77.23 137.327 71.42 143.137 71.42C148.667 71.42 151.467 77.23 151.467 88.92C151.467 100.61 148.667 106.42 143.137 106.42ZM167.242 113H176.272V103.48L180.612 98.86L190.202 113H200.562L186.492 92.63L199.302 78.84H189.222L176.272 92.98V61.76H167.242V113Z" fill="#00112C"/>
</svg>
