<svg width="286" height="176" viewBox="0 0 286 176" fill="none" xmlns="http://www.w3.org/2000/svg">
<path d="M251.38 1H34.6C16.0432 1 1 16.0432 1 34.6V140.86C1 159.417 16.0432 174.46 34.6 174.46H251.38C269.937 174.46 284.98 159.417 284.98 140.86V34.6C284.98 16.0432 269.937 1 251.38 1Z" fill="#E7ECF2" stroke="#00112C" stroke-width="2" stroke-linecap="round" stroke-linejoin="round"/>
<path d="M100.298 95.976C100.298 104.191 105.492 107.636 113.177 107.636C120.862 107.636 126.268 103.873 126.268 97.142C126.268 92.266 123.618 89.139 119.802 87.92C122.77 86.701 124.996 83.627 124.996 79.811C124.996 73.663 120.12 69.9 113.177 69.9C106.552 69.9 101.464 73.769 101.464 80.712H107.665C107.665 76.896 110.103 75.094 113.071 75.094C116.198 75.094 118.477 76.949 118.477 80.129C118.477 83.468 116.039 85.482 113.071 85.482H110.315V90.888H112.965C116.569 90.888 119.378 92.796 119.378 96.612C119.378 100.428 116.993 102.336 113.177 102.336C109.626 102.336 106.976 100.428 106.976 95.976H100.298ZM142.982 107.636C152.522 107.636 156.285 99.368 156.285 88.768C156.285 78.168 152.522 69.9 142.982 69.9C133.442 69.9 129.679 78.168 129.679 88.768C129.679 99.368 133.442 107.636 142.982 107.636ZM142.982 102.018C138.795 102.018 136.675 97.619 136.675 88.768C136.675 79.917 138.583 75.518 142.982 75.518C147.169 75.518 149.289 79.917 149.289 88.768C149.289 97.619 147.169 102.018 142.982 102.018ZM161.233 107H168.07V99.792L171.356 96.294L178.617 107H186.461L175.808 91.577L185.507 81.136H177.875L168.07 91.842V68.204H161.233V107Z" fill="#00112C"/>
<path d="M251.38 1H34.6C16.0432 1 1 16.0432 1 34.6V140.86C1 159.417 16.0432 174.46 34.6 174.46H251.38C269.937 174.46 284.98 159.417 284.98 140.86V34.6C284.98 16.0432 269.937 1 251.38 1Z" fill="#E7ECF2" stroke="#00112C" stroke-width="2" stroke-linecap="round" stroke-linejoin="round"/>
<path d="M88.6586 83.733L95.7606 78.91V101.488H87.0156V107H110.76V101.488H102.545V70.536H98.0926L85.8496 78.91L88.6586 83.733ZM127.686 107.636C137.226 107.636 140.989 99.368 140.989 88.768C140.989 78.168 137.226 69.9 127.686 69.9C118.146 69.9 114.383 78.168 114.383 88.768C114.383 99.368 118.146 107.636 127.686 107.636ZM127.686 102.018C123.499 102.018 121.379 97.619 121.379 88.768C121.379 79.917 123.287 75.518 127.686 75.518C131.873 75.518 133.993 79.917 133.993 88.768C133.993 97.619 131.873 102.018 127.686 102.018ZM157.279 107.636C166.819 107.636 170.582 99.368 170.582 88.768C170.582 78.168 166.819 69.9 157.279 69.9C147.739 69.9 143.976 78.168 143.976 88.768C143.976 99.368 147.739 107.636 157.279 107.636ZM157.279 102.018C153.092 102.018 150.972 97.619 150.972 88.768C150.972 79.917 152.88 75.518 157.279 75.518C161.466 75.518 163.586 79.917 163.586 88.768C163.586 97.619 161.466 102.018 157.279 102.018ZM175.53 107H182.367V99.792L185.653 96.294L192.914 107H200.758L190.105 91.577L199.804 81.136H192.172L182.367 91.842V68.204H175.53V107Z" fill="#00112C"/>
</svg>
