<svg width="286" height="176" viewBox="0 0 286 176" fill="none" xmlns="http://www.w3.org/2000/svg">
<path d="M251.38 1H34.6C16.0432 1 1 16.0432 1 34.6V140.86C1 159.417 16.0432 174.46 34.6 174.46H251.38C269.937 174.46 284.98 159.417 284.98 140.86V34.6C284.98 16.0432 269.937 1 251.38 1Z" fill="#79DBA0" stroke="#00112C" stroke-width="2" stroke-linecap="round" stroke-linejoin="round"/>
<path d="M27.9136 82.27L37.2936 75.9V105.72H25.7436V113H57.1036V105.72H46.2536V64.84H40.3736L24.2036 75.9L27.9136 82.27ZM61.3287 102.5H82.5387V113H91.4987V102.5H97.5887V95.22H91.4987V64.84H83.8687L61.3287 96.76V102.5ZM70.0087 95.22L82.5387 78V95.22H70.0087ZM116.005 96.2C116.005 107.68 122.865 113.84 131.405 113.84C136.655 113.84 140.645 111.88 142.605 108.1H142.885V113H151.495V61.76H142.465V72.26C142.465 74.57 142.465 79.26 142.885 83.74H142.605C140.645 79.96 137.005 78 131.965 78C123.145 78 116.005 84.72 116.005 96.2ZM125.315 96.2C125.315 89.34 128.675 84.86 133.855 84.86C138.895 84.86 142.465 89.06 142.465 95.92C142.465 102.78 138.895 106.98 133.855 106.98C128.675 106.98 125.315 103.06 125.315 96.2ZM158.651 103.97C158.651 109.85 162.781 113.56 170.131 113.56C176.011 113.56 179.721 111.53 181.331 107.89H181.611V113H190.221V90.6C190.221 82.41 185.251 78 175.101 78C166.421 78 160.541 82.27 159.981 89.9H168.381C168.661 86.47 170.901 84.3 175.101 84.3C179.301 84.3 181.191 86.75 181.191 89.62C181.191 91.72 180.421 91.93 176.851 92.49L169.991 93.47C162.081 94.59 158.651 97.81 158.651 103.97ZM181.191 98.93C181.191 104.53 177.201 107.26 172.511 107.26C169.361 107.26 167.541 105.65 167.541 102.92C167.541 100.54 169.221 99.07 172.581 98.51L177.831 97.67C179.441 97.39 180.561 96.9 181.191 96.06V98.93ZM205.899 113H208.349L207.579 115.45C206.109 120.14 203.379 121.82 199.459 121.82H197.359V128.96H201.489C209.329 128.96 213.319 123.29 215.349 117.2L228.999 78.84H219.829L211.639 104.11H211.359L203.099 78.84H193.299L205.899 113ZM230.386 102.64C230.386 110.13 236.406 113.84 245.856 113.84C255.166 113.84 261.606 110.34 261.606 102.78C261.606 95.85 256.566 93.82 251.246 92.91L245.016 91.93C241.096 91.3 239.836 90.18 239.836 88.01C239.836 85.49 242.146 83.95 245.856 83.95C249.496 83.95 252.366 85.7 252.366 89.06H260.626C260.626 81.78 254.536 78 245.926 78C237.246 78 231.156 81.99 231.156 89.06C231.156 95.57 235.916 97.67 241.656 98.58L247.886 99.63C251.176 100.12 252.646 101.03 252.646 103.48C252.646 106.49 250.686 107.89 245.856 107.89C242.426 107.89 238.856 106.56 238.856 102.64H230.386Z" fill="#00112C"/>
</svg>
