<svg width="286" height="176" viewBox="0 0 286 176" fill="none" xmlns="http://www.w3.org/2000/svg">
<path d="M251.38 1H34.6C16.0432 1 1 16.0432 1 34.6V140.86C1 159.417 16.0432 174.46 34.6 174.46H251.38C269.937 174.46 284.98 159.417 284.98 140.86V34.6C284.98 16.0432 269.937 1 251.38 1Z" fill="#79DBA0" stroke="#00112C" stroke-width="2" stroke-linecap="round" stroke-linejoin="round"/>
<path d="M103.955 83.733L111.057 78.91V101.488H102.312V107H126.056V101.488H117.841V70.536H113.389L101.146 78.91L103.955 83.733ZM130.103 97.248C130.686 103.555 134.979 107.636 142.876 107.636C149.713 107.636 155.702 103.714 155.702 95.34C155.702 87.92 150.72 83.68 144.095 83.68C141.392 83.68 139.272 84.422 138 85.641H137.735L138.318 76.154H153.688V70.536H132.329L131.163 91.577L137.364 92.266C138.636 90.411 140.12 88.98 142.823 88.98C146.374 88.98 148.865 91.418 148.865 95.658C148.865 100.057 146.109 102.336 142.823 102.336C139.007 102.336 137.205 99.845 136.781 97.248H130.103ZM161.233 107H168.07V99.792L171.356 96.294L178.617 107H186.461L175.808 91.577L185.507 81.136H177.875L168.07 91.842V68.204H161.233V107Z" fill="#00112C"/>
</svg>
