<svg width="286" height="176" viewBox="0 0 286 176" fill="none" xmlns="http://www.w3.org/2000/svg">
<path d="M251.38 1H34.6C16.0432 1 1 16.0432 1 34.6V140.86C1 159.417 16.0432 174.46 34.6 174.46H251.38C269.937 174.46 284.98 159.417 284.98 140.86V34.6C284.98 16.0432 269.937 1 251.38 1Z" fill="#79DBA0" stroke="#00112C" stroke-width="2" stroke-linecap="round" stroke-linejoin="round"/>
<path d="M91.5917 82.27L100.972 75.9V105.72H89.4217V113H120.782V105.72H109.932V64.84H104.052L87.8817 75.9L91.5917 82.27ZM126.127 100.12C126.897 108.45 132.567 113.84 142.997 113.84C152.027 113.84 159.937 108.66 159.937 97.6C159.937 87.8 153.357 82.2 144.607 82.2C141.037 82.2 138.237 83.18 136.557 84.79H136.207L136.977 72.26H157.277V64.84H129.067L127.527 92.63L135.717 93.54C137.397 91.09 139.357 89.2 142.927 89.2C147.617 89.2 150.907 92.42 150.907 98.02C150.907 103.83 147.267 106.84 142.927 106.84C137.887 106.84 135.507 103.55 134.947 100.12H126.127ZM167.242 113H176.272V103.48L180.612 98.86L190.202 113H200.562L186.492 92.63L199.302 78.84H189.222L176.272 92.98V61.76H167.242V113Z" fill="#00112C"/>
</svg>
