<svg width="286" height="176" viewBox="0 0 286 176" fill="none" xmlns="http://www.w3.org/2000/svg">
<path d="M251.38 1H34.6C16.0432 1 1 16.0432 1 34.6V140.86C1 159.417 16.0432 174.46 34.6 174.46H251.38C269.937 174.46 284.98 159.417 284.98 140.86V34.6C284.98 16.0432 269.937 1 251.38 1Z" fill="#00112C" stroke="#00112C" stroke-width="2" stroke-linecap="round" stroke-linejoin="round"/>
<path d="M70.8862 107H77.8822L92.5632 74.723V70.536H66.8052V76.419H85.2492L70.8862 107ZM107.143 94.28C107.143 102.972 112.337 107.636 118.803 107.636C122.778 107.636 125.799 106.152 127.283 103.29H127.495V107H134.014V68.204H127.177V76.154C127.177 77.903 127.177 81.454 127.495 84.846H127.283C125.799 81.984 123.043 80.5 119.227 80.5C112.549 80.5 107.143 85.588 107.143 94.28ZM114.192 94.28C114.192 89.086 116.736 85.694 120.658 85.694C124.474 85.694 127.177 88.874 127.177 94.068C127.177 99.262 124.474 102.442 120.658 102.442C116.736 102.442 114.192 99.474 114.192 94.28ZM139.432 100.163C139.432 104.615 142.559 107.424 148.124 107.424C152.576 107.424 155.385 105.887 156.604 103.131H156.816V107H163.335V90.04C163.335 83.839 159.572 80.5 151.887 80.5C145.315 80.5 140.863 83.733 140.439 89.51H146.799C147.011 86.913 148.707 85.27 151.887 85.27C155.067 85.27 156.498 87.125 156.498 89.298C156.498 90.888 155.915 91.047 153.212 91.471L148.018 92.213C142.029 93.061 139.432 95.499 139.432 100.163ZM156.498 96.347C156.498 100.587 153.477 102.654 149.926 102.654C147.541 102.654 146.163 101.435 146.163 99.368C146.163 97.566 147.435 96.453 149.979 96.029L153.954 95.393C155.173 95.181 156.021 94.81 156.498 94.174V96.347ZM175.206 107H177.061L176.478 108.855C175.365 112.406 173.298 113.678 170.33 113.678H168.74V119.084H171.867C177.803 119.084 180.824 114.791 182.361 110.18L192.696 81.136H185.753L179.552 100.269H179.34L173.086 81.136H165.666L175.206 107ZM193.746 99.156C193.746 104.827 198.304 107.636 205.459 107.636C212.508 107.636 217.384 104.986 217.384 99.262C217.384 94.015 213.568 92.478 209.54 91.789L204.823 91.047C201.855 90.57 200.901 89.722 200.901 88.079C200.901 86.171 202.65 85.005 205.459 85.005C208.215 85.005 210.388 86.33 210.388 88.874H216.642C216.642 83.362 212.031 80.5 205.512 80.5C198.94 80.5 194.329 83.521 194.329 88.874C194.329 93.803 197.933 95.393 202.279 96.082L206.996 96.877C209.487 97.248 210.6 97.937 210.6 99.792C210.6 102.071 209.116 103.131 205.459 103.131C202.862 103.131 200.159 102.124 200.159 99.156H193.746Z" fill="white"/>
</svg>
