<svg width="286" height="176" viewBox="0 0 286 176" fill="none" xmlns="http://www.w3.org/2000/svg">
<path d="M251.38 1H34.6C16.0432 1 1 16.0432 1 34.6V140.86C1 159.417 16.0432 174.46 34.6 174.46H251.38C269.937 174.46 284.98 159.417 284.98 140.86V34.6C284.98 16.0432 269.937 1 251.38 1Z" fill="#0ABE53" stroke="#00112C" stroke-width="2" stroke-linecap="round" stroke-linejoin="round"/>
<path d="M120.502 113V105.72H97.6117C97.8217 102.85 98.9417 100.54 104.542 96.83L110.142 93.33C116.302 89.41 120.362 85.84 120.362 78C120.362 69.25 113.712 64 104.192 64C96.0017 64 88.3017 67.99 87.7417 79.54H96.4917C96.7717 74.01 99.2917 71.28 104.052 71.28C109.092 71.28 111.262 74.57 111.262 78.21C111.262 82.76 108.602 84.79 104.122 87.59L98.5917 91.09C90.7517 96.13 87.6717 101.73 87.3217 113H120.502ZM143.137 113.84C155.737 113.84 160.707 102.92 160.707 88.92C160.707 74.92 155.737 64 143.137 64C130.537 64 125.567 74.92 125.567 88.92C125.567 102.92 130.537 113.84 143.137 113.84ZM143.137 106.42C137.607 106.42 134.807 100.61 134.807 88.92C134.807 77.23 137.327 71.42 143.137 71.42C148.667 71.42 151.467 77.23 151.467 88.92C151.467 100.61 148.667 106.42 143.137 106.42ZM167.242 113H176.272V103.48L180.612 98.86L190.202 113H200.562L186.492 92.63L199.302 78.84H189.222L176.272 92.98V61.76H167.242V113Z" fill="#00112C"/>
</svg>
