<svg width="286" height="176" viewBox="0 0 286 176" fill="none" xmlns="http://www.w3.org/2000/svg">
<path d="M251.38 1H34.6C16.0432 1 1 16.0432 1 34.6V140.86C1 159.417 16.0432 174.46 34.6 174.46H251.38C269.937 174.46 284.98 159.417 284.98 140.86V34.6C284.98 16.0432 269.937 1 251.38 1Z" fill="#E7ECF2" stroke="#00112C" stroke-width="2" stroke-linecap="round" stroke-linejoin="round"/>
<path d="M100.298 95.976C100.298 104.191 105.492 107.636 113.177 107.636C120.862 107.636 126.268 103.873 126.268 97.142C126.268 92.266 123.618 89.139 119.802 87.92C122.77 86.701 124.996 83.627 124.996 79.811C124.996 73.663 120.12 69.9 113.177 69.9C106.552 69.9 101.464 73.769 101.464 80.712H107.665C107.665 76.896 110.103 75.094 113.071 75.094C116.198 75.094 118.477 76.949 118.477 80.129C118.477 83.468 116.039 85.482 113.071 85.482H110.315V90.888H112.965C116.569 90.888 119.378 92.796 119.378 96.612C119.378 100.428 116.993 102.336 113.177 102.336C109.626 102.336 106.976 100.428 106.976 95.976H100.298ZM142.982 107.636C152.522 107.636 156.285 99.368 156.285 88.768C156.285 78.168 152.522 69.9 142.982 69.9C133.442 69.9 129.679 78.168 129.679 88.768C129.679 99.368 133.442 107.636 142.982 107.636ZM142.982 102.018C138.795 102.018 136.675 97.619 136.675 88.768C136.675 79.917 138.583 75.518 142.982 75.518C147.169 75.518 149.289 79.917 149.289 88.768C149.289 97.619 147.169 102.018 142.982 102.018ZM161.233 107H168.07V99.792L171.356 96.294L178.617 107H186.461L175.808 91.577L185.507 81.136H177.875L168.07 91.842V68.204H161.233V107Z" fill="#00112C"/>
<path d="M251.38 1H34.6C16.0432 1 1 16.0432 1 34.6V140.86C1 159.417 16.0432 174.46 34.6 174.46H251.38C269.937 174.46 284.98 159.417 284.98 140.86V34.6C284.98 16.0432 269.937 1 251.38 1Z" fill="#E7ECF2" stroke="#00112C" stroke-width="2" stroke-linecap="round" stroke-linejoin="round"/>
<path d="M30.4303 95.976C30.4303 104.191 35.6243 107.636 43.3093 107.636C50.9943 107.636 56.4003 103.873 56.4003 97.142C56.4003 92.266 53.7503 89.139 49.9343 87.92C52.9023 86.701 55.1283 83.627 55.1283 79.811C55.1283 73.663 50.2523 69.9 43.3093 69.9C36.6843 69.9 31.5963 73.769 31.5963 80.712H37.7973C37.7973 76.896 40.2353 75.094 43.2033 75.094C46.3303 75.094 48.6093 76.949 48.6093 80.129C48.6093 83.468 46.1713 85.482 43.2033 85.482H40.4473V90.888H43.0973C46.7013 90.888 49.5103 92.796 49.5103 96.612C49.5103 100.428 47.1253 102.336 43.3093 102.336C39.7583 102.336 37.1083 100.428 37.1083 95.976H30.4303ZM72.8878 107H79.7248V93.273C79.7248 88.45 82.2688 85.8 85.4488 85.8C88.2578 85.8 90.0598 87.337 90.0598 91.842V107H96.8438V93.326C96.8438 88.609 99.3348 85.8 102.568 85.8C105.536 85.8 107.179 87.337 107.179 91.842V107H114.016V91.1C114.016 83.256 109.829 80.5 104.582 80.5C101.031 80.5 97.7978 81.772 95.8898 85.535C94.3528 81.931 91.2258 80.5 87.4628 80.5C83.9118 80.5 81.1028 81.931 79.6188 84.846H79.4068V81.136H72.8878V107ZM118.9 94.068C118.9 102.707 124.359 107.636 132.627 107.636C140.471 107.636 146.301 102.548 146.301 94.068C146.301 85.429 140.842 80.5 132.627 80.5C124.73 80.5 118.9 85.588 118.9 94.068ZM125.949 94.068C125.949 88.927 128.599 85.747 132.627 85.747C136.655 85.747 139.252 88.768 139.252 94.068C139.252 99.209 136.655 102.442 132.627 102.442C128.599 102.442 125.949 99.209 125.949 94.068ZM151.483 107H158.32V93.379C158.32 88.556 160.864 85.8 164.256 85.8C167.277 85.8 169.291 87.443 169.291 92.16V107H176.128V91.312C176.128 83.256 171.464 80.5 166.164 80.5C162.56 80.5 159.698 81.931 158.214 84.846H158.002V81.136H151.483V107ZM183.635 98.52C183.635 104.668 186.285 107 193.016 107H196.832V101.488H193.864C191.32 101.488 190.419 100.534 190.419 98.255V86.224H196.832V81.136H190.419V73.292H183.635V81.136H178.759V86.224H183.635V98.52ZM201.301 107H208.138V93.22C208.138 88.556 210.682 85.8 214.074 85.8C217.095 85.8 219.109 87.39 219.109 92.16V107H225.946V91.312C225.946 83.256 221.282 80.5 215.982 80.5C212.325 80.5 209.516 81.984 208.032 84.846H207.82C208.138 81.401 208.138 77.903 208.138 76.154V68.204H201.301V107ZM230.697 99.156C230.697 104.827 235.255 107.636 242.41 107.636C249.459 107.636 254.335 104.986 254.335 99.262C254.335 94.015 250.519 92.478 246.491 91.789L241.774 91.047C238.806 90.57 237.852 89.722 237.852 88.079C237.852 86.171 239.601 85.005 242.41 85.005C245.166 85.005 247.339 86.33 247.339 88.874H253.593C253.593 83.362 248.982 80.5 242.463 80.5C235.891 80.5 231.28 83.521 231.28 88.874C231.28 93.803 234.884 95.393 239.23 96.082L243.947 96.877C246.438 97.248 247.551 97.937 247.551 99.792C247.551 102.071 246.067 103.131 242.41 103.131C239.813 103.131 237.11 102.124 237.11 99.156H230.697Z" fill="#00112C"/>
</svg>
