<svg width="286" height="176" viewBox="0 0 286 176" fill="none" xmlns="http://www.w3.org/2000/svg">
<path d="M251.38 1H34.6C16.0432 1 1 16.0432 1 34.6V140.86C1 159.417 16.0432 174.46 34.6 174.46H251.38C269.937 174.46 284.98 159.417 284.98 140.86V34.6C284.98 16.0432 269.937 1 251.38 1Z" fill="#E7ECF2" stroke="#00112C" stroke-width="2" stroke-linecap="round" stroke-linejoin="round"/>
<path d="M83.8855 83.733L90.9875 78.91V101.488H82.2425V107H105.987V101.488H97.7715V70.536H93.3195L81.0765 78.91L83.8855 83.733ZM120.99 94.28C120.99 102.972 126.184 107.636 132.65 107.636C136.625 107.636 139.646 106.152 141.13 103.29H141.342V107H147.861V68.204H141.024V76.154C141.024 77.903 141.024 81.454 141.342 84.846H141.13C139.646 81.984 136.89 80.5 133.074 80.5C126.396 80.5 120.99 85.588 120.99 94.28ZM128.039 94.28C128.039 89.086 130.583 85.694 134.505 85.694C138.321 85.694 141.024 88.874 141.024 94.068C141.024 99.262 138.321 102.442 134.505 102.442C130.583 102.442 128.039 99.474 128.039 94.28ZM153.279 100.163C153.279 104.615 156.406 107.424 161.971 107.424C166.423 107.424 169.232 105.887 170.451 103.131H170.663V107H177.182V90.04C177.182 83.839 173.419 80.5 165.734 80.5C159.162 80.5 154.71 83.733 154.286 89.51H160.646C160.858 86.913 162.554 85.27 165.734 85.27C168.914 85.27 170.345 87.125 170.345 89.298C170.345 90.888 169.762 91.047 167.059 91.471L161.865 92.213C155.876 93.061 153.279 95.499 153.279 100.163ZM170.345 96.347C170.345 100.587 167.324 102.654 163.773 102.654C161.388 102.654 160.01 101.435 160.01 99.368C160.01 97.566 161.282 96.453 163.826 96.029L167.801 95.393C169.02 95.181 169.868 94.81 170.345 94.174V96.347ZM189.053 107H190.908L190.325 108.855C189.212 112.406 187.145 113.678 184.177 113.678H182.587V119.084H185.714C191.65 119.084 194.671 114.791 196.208 110.18L206.543 81.136H199.6L193.399 100.269H193.187L186.933 81.136H179.513L189.053 107Z" fill="#00112C"/>
</svg>
