<svg width="286" height="176" viewBox="0 0 286 176" fill="none" xmlns="http://www.w3.org/2000/svg">
<path d="M251.38 1H34.6C16.0432 1 1 16.0432 1 34.6V140.86C1 159.417 16.0432 174.46 34.6 174.46H251.38C269.937 174.46 284.98 159.417 284.98 140.86V34.6C284.98 16.0432 269.937 1 251.38 1Z" fill="white" stroke="#00112C" stroke-width="2" stroke-linecap="round" stroke-linejoin="round"/>
<path d="M98.3179 95.976C98.3179 104.191 103.512 107.636 111.197 107.636C118.882 107.636 124.288 103.873 124.288 97.142C124.288 92.266 121.638 89.139 117.822 87.92C120.79 86.701 123.016 83.627 123.016 79.811C123.016 73.663 118.14 69.9 111.197 69.9C104.572 69.9 99.4839 73.769 99.4839 80.712H105.685C105.685 76.896 108.123 75.094 111.091 75.094C114.218 75.094 116.497 76.949 116.497 80.129C116.497 83.468 114.059 85.482 111.091 85.482H108.335V90.888H110.985C114.589 90.888 117.398 92.796 117.398 96.612C117.398 100.428 115.013 102.336 111.197 102.336C107.646 102.336 104.996 100.428 104.996 95.976H98.3179ZM140.775 107H147.612V93.22C147.612 88.556 150.156 85.8 153.548 85.8C156.569 85.8 158.583 87.39 158.583 92.16V107H165.42V91.312C165.42 83.256 160.756 80.5 155.456 80.5C151.799 80.5 148.99 81.984 147.506 84.846H147.294C147.612 81.401 147.612 77.903 147.612 76.154V68.204H140.775V107ZM171.973 107H178.81V94.651C178.81 90.093 180.665 86.595 184.534 86.595C185.541 86.595 186.601 86.86 187.714 87.443L189.092 81.56C187.767 80.659 186.548 80.5 185.488 80.5C182.096 80.5 179.87 82.302 178.598 85.058H178.492V81.136H171.973V107Z" fill="#00112C"/>
</svg>
