<svg width="286" height="176" viewBox="0 0 286 176" fill="none" xmlns="http://www.w3.org/2000/svg">
<path d="M251.38 1H34.6C16.0432 1 1 16.0432 1 34.6V140.86C1 159.417 16.0432 174.46 34.6 174.46H251.38C269.937 174.46 284.98 159.417 284.98 140.86V34.6C284.98 16.0432 269.937 1 251.38 1Z" fill="white" stroke="#00112C" stroke-width="2" stroke-linecap="round" stroke-linejoin="round"/>
<path d="M42.9761 98.44C42.9761 109.29 49.8361 113.84 59.9861 113.84C70.1361 113.84 77.2761 108.87 77.2761 99.98C77.2761 93.54 73.7761 89.41 68.7361 87.8C72.6561 86.19 75.5961 82.13 75.5961 77.09C75.5961 68.97 69.1561 64 59.9861 64C51.2361 64 44.5161 69.11 44.5161 78.28H52.7061C52.7061 73.24 55.9261 70.86 59.8461 70.86C63.9761 70.86 66.9861 73.31 66.9861 77.51C66.9861 81.92 63.7661 84.58 59.8461 84.58H56.2061V91.72H59.7061C64.4661 91.72 68.1761 94.24 68.1761 99.28C68.1761 104.32 65.0261 106.84 59.9861 106.84C55.2961 106.84 51.7961 104.32 51.7961 98.44H42.9761ZM96.8121 96.2C96.8121 107.68 103.672 113.84 112.212 113.84C117.462 113.84 121.452 111.88 123.412 108.1H123.692V113H132.302V61.76H123.272V72.26C123.272 74.57 123.272 79.26 123.692 83.74H123.412C121.452 79.96 117.812 78 112.772 78C103.952 78 96.8121 84.72 96.8121 96.2ZM106.122 96.2C106.122 89.34 109.482 84.86 114.662 84.86C119.702 84.86 123.272 89.06 123.272 95.92C123.272 102.78 119.702 106.98 114.662 106.98C109.482 106.98 106.122 103.06 106.122 96.2ZM139.459 103.97C139.459 109.85 143.589 113.56 150.939 113.56C156.819 113.56 160.529 111.53 162.139 107.89H162.419V113H171.029V90.6C171.029 82.41 166.059 78 155.909 78C147.229 78 141.349 82.27 140.789 89.9H149.189C149.469 86.47 151.709 84.3 155.909 84.3C160.109 84.3 161.999 86.75 161.999 89.62C161.999 91.72 161.229 91.93 157.659 92.49L150.799 93.47C142.889 94.59 139.459 97.81 139.459 103.97ZM161.999 98.93C161.999 104.53 158.009 107.26 153.319 107.26C150.169 107.26 148.349 105.65 148.349 102.92C148.349 100.54 150.029 99.07 153.389 98.51L158.639 97.67C160.249 97.39 161.369 96.9 161.999 96.06V98.93ZM186.706 113H189.156L188.386 115.45C186.916 120.14 184.186 121.82 180.266 121.82H178.166V128.96H182.296C190.136 128.96 194.126 123.29 196.156 117.2L209.806 78.84H200.636L192.446 104.11H192.166L183.906 78.84H174.106L186.706 113ZM211.193 102.64C211.193 110.13 217.213 113.84 226.663 113.84C235.973 113.84 242.413 110.34 242.413 102.78C242.413 95.85 237.373 93.82 232.053 92.91L225.823 91.93C221.903 91.3 220.643 90.18 220.643 88.01C220.643 85.49 222.953 83.95 226.663 83.95C230.303 83.95 233.173 85.7 233.173 89.06H241.433C241.433 81.78 235.343 78 226.733 78C218.053 78 211.963 81.99 211.963 89.06C211.963 95.57 216.723 97.67 222.463 98.58L228.693 99.63C231.983 100.12 233.453 101.03 233.453 103.48C233.453 106.49 231.493 107.89 226.663 107.89C223.233 107.89 219.663 106.56 219.663 102.64H211.193Z" fill="#00112C"/>
</svg>
