<svg width="286" height="176" viewBox="0 0 286 176" fill="none" xmlns="http://www.w3.org/2000/svg">
<path d="M251.38 1H34.6C16.0432 1 1 16.0432 1 34.6V140.86C1 159.417 16.0432 174.46 34.6 174.46H251.38C269.937 174.46 284.98 159.417 284.98 140.86V34.6C284.98 16.0432 269.937 1 251.38 1Z" fill="white" stroke="#00112C" stroke-width="2" stroke-linecap="round" stroke-linejoin="round"/>
<path d="M125.844 107V101.488H108.513C108.672 99.315 109.52 97.566 113.76 94.757L118 92.107C122.664 89.139 125.738 86.436 125.738 80.5C125.738 73.875 120.703 69.9 113.495 69.9C107.294 69.9 101.464 72.921 101.04 81.666H107.665C107.877 77.479 109.785 75.412 113.389 75.412C117.205 75.412 118.848 77.903 118.848 80.659C118.848 84.104 116.834 85.641 113.442 87.761L109.255 90.411C103.319 94.227 100.987 98.467 100.722 107H125.844ZM142.982 107.636C152.522 107.636 156.285 99.368 156.285 88.768C156.285 78.168 152.522 69.9 142.982 69.9C133.442 69.9 129.679 78.168 129.679 88.768C129.679 99.368 133.442 107.636 142.982 107.636ZM142.982 102.018C138.795 102.018 136.675 97.619 136.675 88.768C136.675 79.917 138.583 75.518 142.982 75.518C147.169 75.518 149.289 79.917 149.289 88.768C149.289 97.619 147.169 102.018 142.982 102.018ZM161.233 107H168.07V99.792L171.356 96.294L178.617 107H186.461L175.808 91.577L185.507 81.136H177.875L168.07 91.842V68.204H161.233V107Z" fill="#00112C"/>
<path d="M251.38 1H34.6C16.0432 1 1 16.0432 1 34.6V140.86C1 159.417 16.0432 174.46 34.6 174.46H251.38C269.937 174.46 284.98 159.417 284.98 140.86V34.6C284.98 16.0432 269.937 1 251.38 1Z" fill="white" stroke="#00112C" stroke-width="2" stroke-linecap="round" stroke-linejoin="round"/>
<path d="M87.0417 100.12C87.8117 108.45 93.4817 113.84 103.912 113.84C112.942 113.84 120.852 108.66 120.852 97.6C120.852 87.8 114.272 82.2 105.522 82.2C101.952 82.2 99.1517 83.18 97.4717 84.79H97.1217L97.8917 72.26H118.192V64.84H89.9817L88.4417 92.63L96.6317 93.54C98.3117 91.09 100.272 89.2 103.842 89.2C108.532 89.2 111.822 92.42 111.822 98.02C111.822 103.83 108.182 106.84 103.842 106.84C98.8017 106.84 96.4217 103.55 95.8617 100.12H87.0417ZM143.137 113.84C155.737 113.84 160.707 102.92 160.707 88.92C160.707 74.92 155.737 64 143.137 64C130.537 64 125.567 74.92 125.567 88.92C125.567 102.92 130.537 113.84 143.137 113.84ZM143.137 106.42C137.607 106.42 134.807 100.61 134.807 88.92C134.807 77.23 137.327 71.42 143.137 71.42C148.667 71.42 151.467 77.23 151.467 88.92C151.467 100.61 148.667 106.42 143.137 106.42ZM167.242 113H176.272V103.48L180.612 98.86L190.202 113H200.562L186.492 92.63L199.302 78.84H189.222L176.272 92.98V61.76H167.242V113Z" fill="#00112C"/>
</svg>
