<svg width="286" height="176" viewBox="0 0 286 176" fill="none" xmlns="http://www.w3.org/2000/svg">
<path d="M251.38 1H34.6C16.0432 1 1 16.0432 1 34.6V140.86C1 159.417 16.0432 174.46 34.6 174.46H251.38C269.937 174.46 284.98 159.417 284.98 140.86V34.6C284.98 16.0432 269.937 1 251.38 1Z" fill="white" stroke="#00112C" stroke-width="2" stroke-linecap="round" stroke-linejoin="round"/>
<path d="M106.084 100.12C106.854 108.45 112.524 113.84 122.954 113.84C131.984 113.84 139.894 108.66 139.894 97.6C139.894 87.8 133.314 82.2 124.564 82.2C120.994 82.2 118.194 83.18 116.514 84.79H116.164L116.934 72.26H137.234V64.84H109.024L107.484 92.63L115.674 93.54C117.354 91.09 119.314 89.2 122.884 89.2C127.574 89.2 130.864 92.42 130.864 98.02C130.864 103.83 127.224 106.84 122.884 106.84C117.844 106.84 115.464 103.55 114.904 100.12H106.084ZM147.199 113H156.229V103.48L160.569 98.86L170.159 113H180.519L166.449 92.63L179.259 78.84H169.179L156.229 92.98V61.76H147.199V113Z" fill="#00112C"/>
</svg>
