<svg width="286" height="176" viewBox="0 0 286 176" fill="none" xmlns="http://www.w3.org/2000/svg">
<path d="M251.38 1H34.6C16.0432 1 1 16.0432 1 34.6V140.86C1 159.417 16.0432 174.46 34.6 174.46H251.38C269.937 174.46 284.98 159.417 284.98 140.86V34.6C284.98 16.0432 269.937 1 251.38 1Z" fill="white" stroke="#00112C" stroke-width="2" stroke-linecap="round" stroke-linejoin="round"/>
<path d="M125.844 107V101.488H108.513C108.672 99.315 109.52 97.566 113.76 94.757L118 92.107C122.664 89.139 125.738 86.436 125.738 80.5C125.738 73.875 120.703 69.9 113.495 69.9C107.294 69.9 101.464 72.921 101.04 81.666H107.665C107.877 77.479 109.785 75.412 113.389 75.412C117.205 75.412 118.848 77.903 118.848 80.659C118.848 84.104 116.834 85.641 113.442 87.761L109.255 90.411C103.319 94.227 100.987 98.467 100.722 107H125.844ZM142.982 107.636C152.522 107.636 156.285 99.368 156.285 88.768C156.285 78.168 152.522 69.9 142.982 69.9C133.442 69.9 129.679 78.168 129.679 88.768C129.679 99.368 133.442 107.636 142.982 107.636ZM142.982 102.018C138.795 102.018 136.675 97.619 136.675 88.768C136.675 79.917 138.583 75.518 142.982 75.518C147.169 75.518 149.289 79.917 149.289 88.768C149.289 97.619 147.169 102.018 142.982 102.018ZM161.233 107H168.07V99.792L171.356 96.294L178.617 107H186.461L175.808 91.577L185.507 81.136H177.875L168.07 91.842V68.204H161.233V107Z" fill="#00112C"/>
<path d="M251.38 1H34.6C16.0432 1 1 16.0432 1 34.6V140.86C1 159.417 16.0432 174.46 34.6 174.46H251.38C269.937 174.46 284.98 159.417 284.98 140.86V34.6C284.98 16.0432 269.937 1 251.38 1Z" fill="white" stroke="#00112C" stroke-width="2" stroke-linecap="round" stroke-linejoin="round"/>
<path d="M100.51 97.248C101.093 103.555 105.386 107.636 113.283 107.636C120.12 107.636 126.109 103.714 126.109 95.34C126.109 87.92 121.127 83.68 114.502 83.68C111.799 83.68 109.679 84.422 108.407 85.641H108.142L108.725 76.154H124.095V70.536H102.736L101.57 91.577L107.771 92.266C109.043 90.411 110.527 88.98 113.23 88.98C116.781 88.98 119.272 91.418 119.272 95.658C119.272 100.057 116.516 102.336 113.23 102.336C109.414 102.336 107.612 99.845 107.188 97.248H100.51ZM142.982 107.636C152.522 107.636 156.285 99.368 156.285 88.768C156.285 78.168 152.522 69.9 142.982 69.9C133.442 69.9 129.679 78.168 129.679 88.768C129.679 99.368 133.442 107.636 142.982 107.636ZM142.982 102.018C138.795 102.018 136.675 97.619 136.675 88.768C136.675 79.917 138.583 75.518 142.982 75.518C147.169 75.518 149.289 79.917 149.289 88.768C149.289 97.619 147.169 102.018 142.982 102.018ZM161.233 107H168.07V99.792L171.356 96.294L178.617 107H186.461L175.808 91.577L185.507 81.136H177.875L168.07 91.842V68.204H161.233V107Z" fill="#00112C"/>
</svg>
