<svg width="286" height="176" viewBox="0 0 286 176" fill="none" xmlns="http://www.w3.org/2000/svg">
<path d="M251.38 1H34.6C16.0432 1 1 16.0432 1 34.6V140.86C1 159.417 16.0432 174.46 34.6 174.46H251.38C269.937 174.46 284.98 159.417 284.98 140.86V34.6C284.98 16.0432 269.937 1 251.38 1Z" fill="white" stroke="#00112C" stroke-width="2" stroke-linecap="round" stroke-linejoin="round"/>
<path d="M115.307 97.248C115.89 103.555 120.183 107.636 128.08 107.636C134.917 107.636 140.906 103.714 140.906 95.34C140.906 87.92 135.924 83.68 129.299 83.68C126.596 83.68 124.476 84.422 123.204 85.641H122.939L123.522 76.154H138.892V70.536H117.533L116.367 91.577L122.568 92.266C123.84 90.411 125.324 88.98 128.027 88.98C131.578 88.98 134.069 91.418 134.069 95.658C134.069 100.057 131.313 102.336 128.027 102.336C124.211 102.336 122.409 99.845 121.985 97.248H115.307ZM146.437 107H153.274V99.792L156.56 96.294L163.821 107H171.665L161.012 91.577L170.711 81.136H163.079L153.274 91.842V68.204H146.437V107Z" fill="#00112C"/>
</svg>
