<svg width="286" height="176" viewBox="0 0 286 176" fill="none" xmlns="http://www.w3.org/2000/svg">
<path d="M251.38 1H34.6C16.0432 1 1 16.0432 1 34.6V140.86C1 159.417 16.0432 174.46 34.6 174.46H251.38C269.937 174.46 284.98 159.417 284.98 140.86V34.6C284.98 16.0432 269.937 1 251.38 1Z" fill="#E7ECF2" stroke="#00112C" stroke-width="2" stroke-linecap="round" stroke-linejoin="round"/>
<path d="M48.5761 113H57.8161L77.2061 70.37V64.84H43.1861V72.61H67.5461L48.5761 113ZM96.4621 96.2C96.4621 107.68 103.322 113.84 111.862 113.84C117.112 113.84 121.102 111.88 123.062 108.1H123.342V113H131.952V61.76H122.922V72.26C122.922 74.57 122.922 79.26 123.342 83.74H123.062C121.102 79.96 117.462 78 112.422 78C103.602 78 96.4621 84.72 96.4621 96.2ZM105.772 96.2C105.772 89.34 109.132 84.86 114.312 84.86C119.352 84.86 122.922 89.06 122.922 95.92C122.922 102.78 119.352 106.98 114.312 106.98C109.132 106.98 105.772 103.06 105.772 96.2ZM139.109 103.97C139.109 109.85 143.239 113.56 150.589 113.56C156.469 113.56 160.179 111.53 161.789 107.89H162.069V113H170.679V90.6C170.679 82.41 165.709 78 155.559 78C146.879 78 140.999 82.27 140.439 89.9H148.839C149.119 86.47 151.359 84.3 155.559 84.3C159.759 84.3 161.649 86.75 161.649 89.62C161.649 91.72 160.879 91.93 157.309 92.49L150.449 93.47C142.539 94.59 139.109 97.81 139.109 103.97ZM161.649 98.93C161.649 104.53 157.659 107.26 152.969 107.26C149.819 107.26 147.999 105.65 147.999 102.92C147.999 100.54 149.679 99.07 153.039 98.51L158.289 97.67C159.899 97.39 161.019 96.9 161.649 96.06V98.93ZM186.356 113H188.806L188.036 115.45C186.566 120.14 183.836 121.82 179.916 121.82H177.816V128.96H181.946C189.786 128.96 193.776 123.29 195.806 117.2L209.456 78.84H200.286L192.096 104.11H191.816L183.556 78.84H173.756L186.356 113ZM210.843 102.64C210.843 110.13 216.863 113.84 226.313 113.84C235.623 113.84 242.063 110.34 242.063 102.78C242.063 95.85 237.023 93.82 231.703 92.91L225.473 91.93C221.553 91.3 220.293 90.18 220.293 88.01C220.293 85.49 222.603 83.95 226.313 83.95C229.953 83.95 232.823 85.7 232.823 89.06H241.083C241.083 81.78 234.993 78 226.383 78C217.703 78 211.613 81.99 211.613 89.06C211.613 95.57 216.373 97.67 222.113 98.58L228.343 99.63C231.633 100.12 233.103 101.03 233.103 103.48C233.103 106.49 231.143 107.89 226.313 107.89C222.883 107.89 219.313 106.56 219.313 102.64H210.843Z" fill="#00112C"/>
</svg>
