<svg width="286" height="176" viewBox="0 0 286 176" fill="none" xmlns="http://www.w3.org/2000/svg">
<path d="M251.38 1H34.6C16.0432 1 1 16.0432 1 34.6V140.86C1 159.417 16.0432 174.46 34.6 174.46H251.38C269.937 174.46 284.98 159.417 284.98 140.86V34.6C284.98 16.0432 269.937 1 251.38 1Z" fill="white" stroke="#00112C" stroke-width="2" stroke-linecap="round" stroke-linejoin="round"/>
<path d="M125.844 107V101.488H108.513C108.672 99.315 109.52 97.566 113.76 94.757L118 92.107C122.664 89.139 125.738 86.436 125.738 80.5C125.738 73.875 120.703 69.9 113.495 69.9C107.294 69.9 101.464 72.921 101.04 81.666H107.665C107.877 77.479 109.785 75.412 113.389 75.412C117.205 75.412 118.848 77.903 118.848 80.659C118.848 84.104 116.834 85.641 113.442 87.761L109.255 90.411C103.319 94.227 100.987 98.467 100.722 107H125.844ZM142.982 107.636C152.522 107.636 156.285 99.368 156.285 88.768C156.285 78.168 152.522 69.9 142.982 69.9C133.442 69.9 129.679 78.168 129.679 88.768C129.679 99.368 133.442 107.636 142.982 107.636ZM142.982 102.018C138.795 102.018 136.675 97.619 136.675 88.768C136.675 79.917 138.583 75.518 142.982 75.518C147.169 75.518 149.289 79.917 149.289 88.768C149.289 97.619 147.169 102.018 142.982 102.018ZM161.233 107H168.07V99.792L171.356 96.294L178.617 107H186.461L175.808 91.577L185.507 81.136H177.875L168.07 91.842V68.204H161.233V107Z" fill="#00112C"/>
<path d="M251.38 1H34.6C16.0432 1 1 16.0432 1 34.6V140.86C1 159.417 16.0432 174.46 34.6 174.46H251.38C269.937 174.46 284.98 159.417 284.98 140.86V34.6C284.98 16.0432 269.937 1 251.38 1Z" fill="white" stroke="#00112C" stroke-width="2" stroke-linecap="round" stroke-linejoin="round"/>
<path d="M47.6933 83.733L54.7953 78.91V101.488H46.0503V107H69.7943V101.488H61.5793V70.536H57.1273L44.8843 78.91L47.6933 83.733ZM86.4939 107H93.3309V93.273C93.3309 88.45 95.8749 85.8 99.0549 85.8C101.864 85.8 103.666 87.337 103.666 91.842V107H110.45V93.326C110.45 88.609 112.941 85.8 116.174 85.8C119.142 85.8 120.785 87.337 120.785 91.842V107H127.622V91.1C127.622 83.256 123.435 80.5 118.188 80.5C114.637 80.5 111.404 81.772 109.496 85.535C107.959 81.931 104.832 80.5 101.069 80.5C97.5179 80.5 94.7089 81.931 93.2249 84.846H93.0129V81.136H86.4939V107ZM132.506 94.068C132.506 102.707 137.965 107.636 146.233 107.636C154.077 107.636 159.907 102.548 159.907 94.068C159.907 85.429 154.448 80.5 146.233 80.5C138.336 80.5 132.506 85.588 132.506 94.068ZM139.555 94.068C139.555 88.927 142.205 85.747 146.233 85.747C150.261 85.747 152.858 88.768 152.858 94.068C152.858 99.209 150.261 102.442 146.233 102.442C142.205 102.442 139.555 99.209 139.555 94.068ZM165.089 107H171.926V93.379C171.926 88.556 174.47 85.8 177.862 85.8C180.883 85.8 182.897 87.443 182.897 92.16V107H189.734V91.312C189.734 83.256 185.07 80.5 179.77 80.5C176.166 80.5 173.304 81.931 171.82 84.846H171.608V81.136H165.089V107ZM197.241 98.52C197.241 104.668 199.891 107 206.622 107H210.438V101.488H207.47C204.926 101.488 204.025 100.534 204.025 98.255V86.224H210.438V81.136H204.025V73.292H197.241V81.136H192.365V86.224H197.241V98.52ZM214.907 107H221.744V93.22C221.744 88.556 224.288 85.8 227.68 85.8C230.701 85.8 232.715 87.39 232.715 92.16V107H239.552V91.312C239.552 83.256 234.888 80.5 229.588 80.5C225.931 80.5 223.122 81.984 221.638 84.846H221.426C221.744 81.401 221.744 77.903 221.744 76.154V68.204H214.907V107Z" fill="#00112C"/>
</svg>
