<svg width="286" height="176" viewBox="0 0 286 176" fill="none" xmlns="http://www.w3.org/2000/svg">
<path d="M251.38 1H34.6C16.0432 1 1 16.0432 1 34.6V140.86C1 159.417 16.0432 174.46 34.6 174.46H251.38C269.937 174.46 284.98 159.417 284.98 140.86V34.6C284.98 16.0432 269.937 1 251.38 1Z" fill="#E7ECF2" stroke="#00112C" stroke-width="2" stroke-linecap="round" stroke-linejoin="round"/>
<path d="M100.298 95.976C100.298 104.191 105.492 107.636 113.177 107.636C120.862 107.636 126.268 103.873 126.268 97.142C126.268 92.266 123.618 89.139 119.802 87.92C122.77 86.701 124.996 83.627 124.996 79.811C124.996 73.663 120.12 69.9 113.177 69.9C106.552 69.9 101.464 73.769 101.464 80.712H107.665C107.665 76.896 110.103 75.094 113.071 75.094C116.198 75.094 118.477 76.949 118.477 80.129C118.477 83.468 116.039 85.482 113.071 85.482H110.315V90.888H112.965C116.569 90.888 119.378 92.796 119.378 96.612C119.378 100.428 116.993 102.336 113.177 102.336C109.626 102.336 106.976 100.428 106.976 95.976H100.298ZM142.982 107.636C152.522 107.636 156.285 99.368 156.285 88.768C156.285 78.168 152.522 69.9 142.982 69.9C133.442 69.9 129.679 78.168 129.679 88.768C129.679 99.368 133.442 107.636 142.982 107.636ZM142.982 102.018C138.795 102.018 136.675 97.619 136.675 88.768C136.675 79.917 138.583 75.518 142.982 75.518C147.169 75.518 149.289 79.917 149.289 88.768C149.289 97.619 147.169 102.018 142.982 102.018ZM161.233 107H168.07V99.792L171.356 96.294L178.617 107H186.461L175.808 91.577L185.507 81.136H177.875L168.07 91.842V68.204H161.233V107Z" fill="#00112C"/>
<path d="M251.38 1H34.6C16.0432 1 1 16.0432 1 34.6V140.86C1 159.417 16.0432 174.46 34.6 174.46H251.38C269.937 174.46 284.98 159.417 284.98 140.86V34.6C284.98 16.0432 269.937 1 251.38 1Z" fill="#E7ECF2" stroke="#00112C" stroke-width="2" stroke-linecap="round" stroke-linejoin="round"/>
<path d="M57.3836 87.8C57.3836 70.09 49.2636 64 39.2536 64C30.5736 64 22.5236 69.67 22.5236 80.1C22.5236 90.39 29.5936 95.64 37.6436 95.64C41.9136 95.64 46.1836 93.75 48.0736 90.74V90.81C47.7236 102.71 44.7836 106.84 39.2536 106.84C34.2836 106.84 32.5336 104.04 32.2536 100.47H23.5036C24.0636 108.59 28.5436 113.84 38.9736 113.84C50.2436 113.84 57.3836 107.19 57.3836 87.8ZM39.1836 88.64C34.7736 88.64 31.4836 85.28 31.4836 79.96C31.4836 74.15 34.9836 71 39.4636 71C44.0136 71 47.2336 74.5 47.3036 79.75V79.89C47.3036 85.14 43.9436 88.64 39.1836 88.64ZM79.4587 113.84C92.0587 113.84 97.0287 102.92 97.0287 88.92C97.0287 74.92 92.0587 64 79.4587 64C66.8587 64 61.8887 74.92 61.8887 88.92C61.8887 102.92 66.8587 113.84 79.4587 113.84ZM79.4587 106.42C73.9287 106.42 71.1287 100.61 71.1287 88.92C71.1287 77.23 73.6487 71.42 79.4587 71.42C84.9887 71.42 87.7887 77.23 87.7887 88.92C87.7887 100.61 84.9887 106.42 79.4587 106.42ZM116.005 96.2C116.005 107.68 122.865 113.84 131.405 113.84C136.655 113.84 140.645 111.88 142.605 108.1H142.885V113H151.495V61.76H142.465V72.26C142.465 74.57 142.465 79.26 142.885 83.74H142.605C140.645 79.96 137.005 78 131.965 78C123.145 78 116.005 84.72 116.005 96.2ZM125.315 96.2C125.315 89.34 128.675 84.86 133.855 84.86C138.895 84.86 142.465 89.06 142.465 95.92C142.465 102.78 138.895 106.98 133.855 106.98C128.675 106.98 125.315 103.06 125.315 96.2ZM158.651 103.97C158.651 109.85 162.781 113.56 170.131 113.56C176.011 113.56 179.721 111.53 181.331 107.89H181.611V113H190.221V90.6C190.221 82.41 185.251 78 175.101 78C166.421 78 160.541 82.27 159.981 89.9H168.381C168.661 86.47 170.901 84.3 175.101 84.3C179.301 84.3 181.191 86.75 181.191 89.62C181.191 91.72 180.421 91.93 176.851 92.49L169.991 93.47C162.081 94.59 158.651 97.81 158.651 103.97ZM181.191 98.93C181.191 104.53 177.201 107.26 172.511 107.26C169.361 107.26 167.541 105.65 167.541 102.92C167.541 100.54 169.221 99.07 172.581 98.51L177.831 97.67C179.441 97.39 180.561 96.9 181.191 96.06V98.93ZM205.899 113H208.349L207.579 115.45C206.109 120.14 203.379 121.82 199.459 121.82H197.359V128.96H201.489C209.329 128.96 213.319 123.29 215.349 117.2L228.999 78.84H219.829L211.639 104.11H211.359L203.099 78.84H193.299L205.899 113ZM230.386 102.64C230.386 110.13 236.406 113.84 245.856 113.84C255.166 113.84 261.606 110.34 261.606 102.78C261.606 95.85 256.566 93.82 251.246 92.91L245.016 91.93C241.096 91.3 239.836 90.18 239.836 88.01C239.836 85.49 242.146 83.95 245.856 83.95C249.496 83.95 252.366 85.7 252.366 89.06H260.626C260.626 81.78 254.536 78 245.926 78C237.246 78 231.156 81.99 231.156 89.06C231.156 95.57 235.916 97.67 241.656 98.58L247.886 99.63C251.176 100.12 252.646 101.03 252.646 103.48C252.646 106.49 250.686 107.89 245.856 107.89C242.426 107.89 238.856 106.56 238.856 102.64H230.386Z" fill="#00112C"/>
</svg>
