<svg width="286" height="176" viewBox="0 0 286 176" fill="none" xmlns="http://www.w3.org/2000/svg">
<path d="M251.38 1H34.6C16.0432 1 1 16.0432 1 34.6V140.86C1 159.417 16.0432 174.46 34.6 174.46H251.38C269.937 174.46 284.98 159.417 284.98 140.86V34.6C284.98 16.0432 269.937 1 251.38 1Z" fill="white" stroke="#00112C" stroke-width="2" stroke-linecap="round" stroke-linejoin="round"/>
<path d="M60.32 132H65.76L67.92 125.84H79.32L81.44 132H87.12L76.88 104.48H70.56L60.32 132ZM69.4 121.52L73.6 109.56H73.76L77.88 121.52H69.4ZM89.5019 124.32C89.5019 130.4 93.0219 132.48 97.0219 132.48C99.7419 132.48 101.822 131.4 102.942 129.2H103.102V132H107.982V112.48H102.862V122.8C102.862 126.44 101.022 128.48 98.4619 128.48C96.2219 128.48 94.6619 127.32 94.6619 123.68V112.48H89.5019V124.32ZM111.851 126.08C111.851 130.36 115.291 132.48 120.691 132.48C126.011 132.48 129.691 130.48 129.691 126.16C129.691 122.2 126.811 121.04 123.771 120.52L120.211 119.96C117.971 119.6 117.251 118.96 117.251 117.72C117.251 116.28 118.571 115.4 120.691 115.4C122.771 115.4 124.411 116.4 124.411 118.32H129.131C129.131 114.16 125.651 112 120.731 112C115.771 112 112.291 114.28 112.291 118.32C112.291 122.04 115.011 123.24 118.291 123.76L121.851 124.36C123.731 124.64 124.571 125.16 124.571 126.56C124.571 128.28 123.451 129.08 120.691 129.08C118.731 129.08 116.691 128.32 116.691 126.08H111.851ZM134.703 125.6C134.703 130.24 136.703 132 141.783 132H144.663V127.84H142.423C140.503 127.84 139.823 127.12 139.823 125.4V116.32H144.663V112.48H139.823V106.56H134.703V112.48H131.023V116.32H134.703V125.6ZM148.036 132H153.196V122.68C153.196 119.24 154.596 116.6 157.516 116.6C158.276 116.6 159.076 116.8 159.916 117.24L160.956 112.8C159.956 112.12 159.036 112 158.236 112C155.676 112 153.996 113.36 153.036 115.44H152.956V112.48H148.036V132ZM161.907 126.84C161.907 130.2 164.267 132.32 168.467 132.32C171.827 132.32 173.947 131.16 174.867 129.08H175.027V132H179.947V119.2C179.947 114.52 177.107 112 171.307 112C166.347 112 162.987 114.44 162.667 118.8H167.467C167.627 116.84 168.907 115.6 171.307 115.6C173.707 115.6 174.787 117 174.787 118.64C174.787 119.84 174.347 119.96 172.307 120.28L168.387 120.84C163.867 121.48 161.907 123.32 161.907 126.84ZM174.787 123.96C174.787 127.16 172.507 128.72 169.827 128.72C168.027 128.72 166.987 127.8 166.987 126.24C166.987 124.88 167.947 124.04 169.867 123.72L172.867 123.24C173.787 123.08 174.427 122.8 174.787 122.32V123.96ZM184.892 132H190.052V102.72H184.892V132ZM195.074 107.52H200.554V102.72H195.074V107.52ZM195.234 132H200.394V112.48H195.234V132ZM204.457 126.84C204.457 130.2 206.817 132.32 211.017 132.32C214.377 132.32 216.497 131.16 217.417 129.08H217.577V132H222.497V119.2C222.497 114.52 219.657 112 213.857 112C208.897 112 205.537 114.44 205.217 118.8H210.017C210.177 116.84 211.457 115.6 213.857 115.6C216.257 115.6 217.337 117 217.337 118.64C217.337 119.84 216.897 119.96 214.857 120.28L210.937 120.84C206.417 121.48 204.457 123.32 204.457 126.84ZM217.337 123.96C217.337 127.16 215.057 128.72 212.377 128.72C210.577 128.72 209.537 127.8 209.537 126.24C209.537 124.88 210.497 124.04 212.417 123.72L215.417 123.24C216.337 123.08 216.977 122.8 217.337 122.32V123.96Z" fill="#00112C"/>
<path fill-rule="evenodd" clip-rule="evenodd" d="M155.145 54.0748C148.388 47.2904 137.378 47.327 130.632 54.0729L120.082 64.6229C117.306 67.3992 117.306 71.8821 120.082 74.6584C122.859 77.4347 127.341 77.4347 130.118 74.6584L140.67 64.0813L140.678 64.0733C141.869 62.8687 143.853 62.8541 145.082 64.0834L155.757 74.7584C157.142 76.1433 158.96 76.8406 160.775 76.8406C162.59 76.8406 164.408 76.1433 165.793 74.7584C168.569 71.9821 168.569 67.4992 165.793 64.7229L155.147 54.0767L155.145 54.0748ZM151.603 57.6046C146.81 52.7908 138.971 52.8048 134.168 57.6084L133.752 58.0246L136.711 60.9698L137.126 60.5537C140.286 57.3626 145.449 57.3786 148.618 60.5479L149.102 61.0317L152.073 58.0745L151.603 57.6046ZM155.609 61.61L152.637 64.5672L153.775 65.705L156.739 62.7406L155.609 61.61ZM159.293 71.2229L157.31 69.2406L160.275 66.2761L162.257 68.2584C163.081 69.0821 163.081 70.3992 162.257 71.2229C161.842 71.6379 161.31 71.8406 160.775 71.8406C160.24 71.8406 159.708 71.6379 159.293 71.2229ZM133.18 64.5095L130.216 61.5601L129.086 62.6905L132.044 65.6485L133.18 64.5095ZM123.618 68.1584L125.55 66.2261L128.512 69.1882L126.581 71.1237C125.758 71.9466 124.441 71.9463 123.618 71.1229C122.794 70.2992 122.794 68.9821 123.618 68.1584Z" fill="#00112C"/>
</svg>
