<svg width="286" height="176" viewBox="0 0 286 176" fill="none" xmlns="http://www.w3.org/2000/svg">
<path d="M251.38 1H34.6C16.0432 1 1 16.0432 1 34.6V140.86C1 159.417 16.0432 174.46 34.6 174.46H251.38C269.937 174.46 284.98 159.417 284.98 140.86V34.6C284.98 16.0432 269.937 1 251.38 1Z" fill="white" stroke="#00112C" stroke-width="2" stroke-linecap="round" stroke-linejoin="round"/>
<path d="M93.192 130H96.456L97.752 126.304H104.592L105.864 130H109.272L103.128 113.488H99.336L93.192 130ZM98.64 123.712L101.16 116.536H101.256L103.728 123.712H98.64ZM110.701 125.392C110.701 129.04 112.813 130.288 115.213 130.288C116.845 130.288 118.093 129.64 118.765 128.32H118.861V130H121.789V118.288H118.717V124.48C118.717 126.664 117.613 127.888 116.077 127.888C114.733 127.888 113.797 127.192 113.797 125.008V118.288H110.701V125.392ZM124.111 126.448C124.111 129.016 126.175 130.288 129.415 130.288C132.607 130.288 134.815 129.088 134.815 126.496C134.815 124.12 133.087 123.424 131.263 123.112L129.127 122.776C127.783 122.56 127.351 122.176 127.351 121.432C127.351 120.568 128.143 120.04 129.415 120.04C130.663 120.04 131.647 120.64 131.647 121.792H134.479C134.479 119.296 132.391 118 129.439 118C126.463 118 124.375 119.368 124.375 121.792C124.375 124.024 126.007 124.744 127.975 125.056L130.111 125.416C131.239 125.584 131.743 125.896 131.743 126.736C131.743 127.768 131.071 128.248 129.415 128.248C128.239 128.248 127.015 127.792 127.015 126.448H124.111ZM137.822 126.16C137.822 128.944 139.022 130 142.07 130H143.798V127.504H142.454C141.302 127.504 140.894 127.072 140.894 126.04V120.592H143.798V118.288H140.894V114.736H137.822V118.288H135.614V120.592H137.822V126.16ZM145.822 130H148.918V124.408C148.918 122.344 149.758 120.76 151.51 120.76C151.966 120.76 152.446 120.88 152.95 121.144L153.574 118.48C152.974 118.072 152.422 118 151.942 118C150.406 118 149.398 118.816 148.822 120.064H148.774V118.288H145.822V130ZM154.144 126.904C154.144 128.92 155.56 130.192 158.08 130.192C160.096 130.192 161.368 129.496 161.92 128.248H162.016V130H164.968V122.32C164.968 119.512 163.264 118 159.784 118C156.808 118 154.792 119.464 154.6 122.08H157.48C157.576 120.904 158.344 120.16 159.784 120.16C161.224 120.16 161.872 121 161.872 121.984C161.872 122.704 161.608 122.776 160.384 122.968L158.032 123.304C155.32 123.688 154.144 124.792 154.144 126.904ZM161.872 125.176C161.872 127.096 160.504 128.032 158.896 128.032C157.816 128.032 157.192 127.48 157.192 126.544C157.192 125.728 157.768 125.224 158.92 125.032L160.72 124.744C161.272 124.648 161.656 124.48 161.872 124.192V125.176ZM167.935 130H171.031V112.432H167.935V130ZM174.045 115.312H177.333V112.432H174.045V115.312ZM174.141 130H177.237V118.288H174.141V130ZM179.674 126.904C179.674 128.92 181.09 130.192 183.61 130.192C185.626 130.192 186.898 129.496 187.45 128.248H187.546V130H190.498V122.32C190.498 119.512 188.794 118 185.314 118C182.338 118 180.322 119.464 180.13 122.08H183.01C183.106 120.904 183.874 120.16 185.314 120.16C186.754 120.16 187.402 121 187.402 121.984C187.402 122.704 187.138 122.776 185.914 122.968L183.562 123.304C180.85 123.688 179.674 124.792 179.674 126.904ZM187.402 125.176C187.402 127.096 186.034 128.032 184.426 128.032C183.346 128.032 182.722 127.48 182.722 126.544C182.722 125.728 183.298 125.224 184.45 125.032L186.25 124.744C186.802 124.648 187.186 124.48 187.402 124.192V125.176Z" fill="#00112C"/>
<path fill-rule="evenodd" clip-rule="evenodd" d="M155.145 60.0748C148.388 53.2904 137.378 53.327 130.632 60.0729L120.082 70.6229C117.306 73.3992 117.306 77.8821 120.082 80.6584C122.859 83.4347 127.341 83.4347 130.118 80.6584L140.67 70.0813L140.678 70.0733C141.869 68.8687 143.853 68.8541 145.082 70.0834L155.757 80.7584C157.142 82.1433 158.96 82.8406 160.775 82.8406C162.59 82.8406 164.408 82.1433 165.793 80.7584C168.569 77.9821 168.569 73.4992 165.793 70.7229L155.147 60.0767L155.145 60.0748ZM151.603 63.6046C146.81 58.7908 138.971 58.8048 134.168 63.6084L133.752 64.0246L136.711 66.9698L137.126 66.5537C140.286 63.3626 145.449 63.3786 148.618 66.5479L149.102 67.0317L152.073 64.0745L151.603 63.6046ZM155.609 67.61L152.637 70.5672L153.775 71.705L156.739 68.7406L155.609 67.61ZM159.293 77.2229L157.31 75.2406L160.275 72.2761L162.257 74.2584C163.081 75.0821 163.081 76.3992 162.257 77.2229C161.842 77.6379 161.31 77.8406 160.775 77.8406C160.24 77.8406 159.708 77.6379 159.293 77.2229ZM133.18 70.5095L130.216 67.5601L129.086 68.6905L132.044 71.6485L133.18 70.5095ZM123.618 74.1584L125.55 72.2261L128.512 75.1882L126.581 77.1237C125.758 77.9466 124.441 77.9463 123.618 77.1229C122.794 76.2992 122.794 74.9821 123.618 74.1584Z" fill="#00112C"/>
</svg>
