<svg width="286" height="176" viewBox="0 0 286 176" fill="none" xmlns="http://www.w3.org/2000/svg">
<path d="M251.38 1H34.6C16.0432 1 1 16.0432 1 34.6V140.86C1 159.417 16.0432 174.46 34.6 174.46H251.38C269.937 174.46 284.98 159.417 284.98 140.86V34.6C284.98 16.0432 269.937 1 251.38 1Z" fill="#0ABE53" stroke="#00112C" stroke-width="2" stroke-linecap="round" stroke-linejoin="round"/>
<path d="M101.505 135H106.945L109.105 128.84H120.505L122.625 135H128.305L118.065 107.48H111.745L101.505 135ZM110.585 124.52L114.785 112.56H114.945L119.065 124.52H110.585ZM130.38 123.96C130.38 132.48 135.34 135.48 142.26 135.48C149.18 135.48 154.1 132.48 154.1 123.96V107.48H148.7V123.88C148.7 128.4 146.58 130.88 142.26 130.88C137.9 130.88 135.78 128.4 135.78 123.88V107.48H130.38V123.96ZM159.641 135H169.281C178.961 135 184.041 129.2 184.041 121.24C184.041 113.28 178.961 107.48 169.281 107.48H159.641V135ZM169.081 111.92C175.961 111.92 178.521 116.24 178.521 121.24C178.521 126.24 175.961 130.56 169.081 130.56H165.001V111.92H169.081Z" fill="#00112C"/>
<path d="M110.46 91H117.668L120.53 82.838H135.635L138.444 91H145.97L132.402 54.536H124.028L110.46 91ZM122.491 77.114L128.056 61.267H128.268L133.727 77.114H122.491ZM147.589 80.612C147.801 86.707 151.564 90.629 157.977 91.477V97.36H163.383V91.424C169.796 90.576 173.771 86.495 173.771 80.347C173.771 74.782 170.538 71.761 164.814 70.118L160.415 68.793C157.023 67.786 155.274 66.726 155.274 63.758C155.274 60.578 157.712 59.094 160.68 59.094C163.489 59.094 165.768 60.578 166.192 64.023H172.817C172.446 58.67 168.736 55.013 163.383 54.112V48.388H157.977V54.112C152.041 55.119 148.331 59.041 148.331 64.553C148.331 71.072 153.207 73.669 156.864 74.782L161.263 76.054C164.602 77.061 166.828 78.227 166.828 81.248C166.828 84.693 164.337 86.548 160.68 86.548C157.076 86.548 154.532 84.481 154.32 80.612H147.589Z" fill="#00112C"/>
</svg>
