<svg width="286" height="176" viewBox="0 0 286 176" fill="none" xmlns="http://www.w3.org/2000/svg">
<path d="M251.38 1H34.6C16.0432 1 1 16.0432 1 34.6V140.86C1 159.417 16.0432 174.46 34.6 174.46H251.38C269.937 174.46 284.98 159.417 284.98 140.86V34.6C284.98 16.0432 269.937 1 251.38 1Z" fill="#00112C" stroke="#00112C" stroke-width="2" stroke-linecap="round" stroke-linejoin="round"/>
<path d="M118.303 130H121.567L122.863 126.304H129.703L130.975 130H134.383L128.239 113.488H124.447L118.303 130ZM123.751 123.712L126.271 116.536H126.367L128.839 123.712H123.751ZM135.628 123.376C135.628 128.488 138.604 130.288 142.756 130.288C146.908 130.288 149.86 128.488 149.86 123.376V113.488H146.62V123.328C146.62 126.04 145.348 127.528 142.756 127.528C140.14 127.528 138.868 126.04 138.868 123.328V113.488H135.628V123.376ZM153.184 130H158.968C164.776 130 167.824 126.52 167.824 121.744C167.824 116.968 164.776 113.488 158.968 113.488H153.184V130ZM158.848 116.152C162.976 116.152 164.512 118.744 164.512 121.744C164.512 124.744 162.976 127.336 158.848 127.336H156.4V116.152H158.848Z" fill="white"/>
<path d="M110.46 91H117.668L120.53 82.838H135.635L138.444 91H145.97L132.402 54.536H124.028L110.46 91ZM122.491 77.114L128.056 61.267H128.268L133.727 77.114H122.491ZM147.589 80.612C147.801 86.707 151.564 90.629 157.977 91.477V97.36H163.383V91.424C169.796 90.576 173.771 86.495 173.771 80.347C173.771 74.782 170.538 71.761 164.814 70.118L160.415 68.793C157.023 67.786 155.274 66.726 155.274 63.758C155.274 60.578 157.712 59.094 160.68 59.094C163.489 59.094 165.768 60.578 166.192 64.023H172.817C172.446 58.67 168.736 55.013 163.383 54.112V48.388H157.977V54.112C152.041 55.119 148.331 59.041 148.331 64.553C148.331 71.072 153.207 73.669 156.864 74.782L161.263 76.054C164.602 77.061 166.828 78.227 166.828 81.248C166.828 84.693 164.337 86.548 160.68 86.548C157.076 86.548 154.532 84.481 154.32 80.612H147.589Z" fill="white"/>
</svg>
