<svg width="286" height="176" viewBox="0 0 286 176" fill="none" xmlns="http://www.w3.org/2000/svg">
<path d="M251.38 1H34.6C16.0432 1 1 16.0432 1 34.6V140.86C1 159.417 16.0432 174.46 34.6 174.46H251.38C269.937 174.46 284.98 159.417 284.98 140.86V34.6C284.98 16.0432 269.937 1 251.38 1Z" fill="#79DBA0" stroke="#00112C" stroke-width="2" stroke-linecap="round" stroke-linejoin="round"/>
<path fill-rule="evenodd" clip-rule="evenodd" d="M133.403 62.8644L132.132 61.5929C129.481 58.9416 129.481 54.6337 132.132 51.9824C134.783 49.3311 139.091 49.3311 141.743 51.9824L141.75 51.9897L143.007 53.2573L144.257 52.0074C146.908 49.3561 151.216 49.3561 153.868 52.0074C156.519 54.6587 156.519 58.9666 153.868 61.6179L152.612 62.873L155.14 65.4002L156.408 64.1323C159.059 61.481 163.367 61.481 166.018 64.1323C168.669 66.7837 168.669 71.0916 166.018 73.7429C163.367 76.394 159.054 76.3963 156.402 73.712L155.159 72.469L152.619 75.0088L153.868 76.2574C156.519 78.9087 156.519 83.2166 153.868 85.8679C151.216 88.5192 146.908 88.5192 144.257 85.8679L143 84.6107L141.743 85.8679C139.091 88.5192 134.783 88.5192 132.132 85.8679C129.481 83.2166 129.481 78.9087 132.132 76.2574L133.385 75.0049L130.858 72.4781L129.593 73.7429C126.942 76.3942 122.634 76.3942 119.982 73.7429C117.331 71.0916 117.331 66.7837 119.982 64.1323C122.634 61.481 126.942 61.481 129.593 64.1323L129.6 64.1396L130.859 65.4088L133.403 62.8644ZM135.668 55.5179C136.365 54.8202 137.505 54.8192 138.204 55.515L139.473 56.7946L136.939 59.3288L135.668 58.0574C134.969 57.3587 134.969 56.2166 135.668 55.5179ZM136.92 71.4694L134.395 68.9441L136.939 66.3999L139.464 68.9251L136.92 71.4694ZM136.92 78.5404L135.668 79.7929C134.969 80.4916 134.969 81.6337 135.668 82.3324C136.366 83.0311 137.508 83.0311 138.207 82.3324L139.46 81.0799L136.92 78.5404ZM146.544 81.0838L147.793 82.3324C148.491 83.0311 149.633 83.0311 150.332 82.3324C151.031 81.6337 151.031 80.4916 150.332 79.7929L149.083 78.5443L146.544 81.0838ZM145.548 75.0088L143.004 77.553L140.456 75.0049L143 72.4607L145.548 75.0088ZM149.083 71.4733L151.613 68.9441L149.064 66.396L146.535 68.9251L149.083 71.4733ZM143.001 60.3374L145.527 62.8626L143 65.3896L140.475 62.8643L143.001 60.3374ZM149.077 59.3375L150.332 58.0824C151.031 57.3837 151.031 56.2416 150.332 55.5429C149.633 54.8442 148.491 54.8442 147.793 55.5429L146.537 56.798L149.077 59.3375ZM162.483 67.6679C161.784 66.9692 160.642 66.9692 159.943 67.6679L158.686 68.9251L159.956 70.1954C160.654 70.9039 161.786 70.9038 162.483 70.2073C163.181 69.5087 163.181 68.3666 162.483 67.6679ZM123.518 67.6679C124.216 66.9701 125.356 66.9692 126.055 67.665L127.322 68.9429L126.057 70.2073C125.359 70.906 124.217 70.906 123.518 70.2073C122.819 69.5087 122.819 68.3666 123.518 67.6679Z" fill="#00112C"/>
<path d="M111.056 121.744C111.056 126.64 114.152 130.288 119.24 130.288C123.32 130.288 126.056 128.056 126.704 124.408H123.44C122.888 126.496 121.616 127.528 119.288 127.528C116.312 127.528 114.368 125.08 114.368 121.744C114.368 118.336 116.288 115.96 119.288 115.96C121.496 115.96 122.888 116.992 123.44 119.08H126.704C126.056 115.408 123.392 113.2 119.288 113.2C114.272 113.2 111.056 116.872 111.056 121.744ZM129.159 130H132.255V123.76C132.255 121.648 133.407 120.4 134.943 120.4C136.311 120.4 137.223 121.12 137.223 123.28V130H140.319V122.896C140.319 119.248 138.207 118 135.807 118C134.151 118 132.879 118.672 132.207 119.968H132.111C132.255 118.408 132.255 116.824 132.255 116.032V112.432H129.159V130ZM143.19 115.312H146.478V112.432H143.19V115.312ZM143.286 130H146.382V118.288H143.286V130ZM149.491 130H152.587V123.832C152.587 121.648 153.739 120.4 155.275 120.4C156.643 120.4 157.555 121.144 157.555 123.28V130H160.651V122.896C160.651 119.248 158.539 118 156.139 118C154.507 118 153.211 118.648 152.539 119.968H152.443V118.288H149.491V130ZM162.806 126.904C162.806 128.92 164.222 130.192 166.742 130.192C168.758 130.192 170.03 129.496 170.582 128.248H170.678V130H173.63V122.32C173.63 119.512 171.926 118 168.446 118C165.47 118 163.454 119.464 163.262 122.08H166.142C166.238 120.904 167.006 120.16 168.446 120.16C169.886 120.16 170.534 121 170.534 121.984C170.534 122.704 170.27 122.776 169.046 122.968L166.694 123.304C163.982 123.688 162.806 124.792 162.806 126.904ZM170.534 125.176C170.534 127.096 169.166 128.032 167.558 128.032C166.478 128.032 165.854 127.48 165.854 126.544C165.854 125.728 166.43 125.224 167.582 125.032L169.382 124.744C169.934 124.648 170.318 124.48 170.534 124.192V125.176Z" fill="#00112C"/>
</svg>
