<svg width="286" height="176" viewBox="0 0 286 176" fill="none" xmlns="http://www.w3.org/2000/svg">
<path d="M251.38 1H34.6C16.0432 1 1 16.0432 1 34.6V140.86C1 159.417 16.0432 174.46 34.6 174.46H251.38C269.937 174.46 284.98 159.417 284.98 140.86V34.6C284.98 16.0432 269.937 1 251.38 1Z" fill="#00112C" stroke="#00112C" stroke-width="2" stroke-linecap="round" stroke-linejoin="round"/>
<path d="M118.362 121.744C118.362 126.64 121.458 130.288 126.546 130.288C130.626 130.288 133.362 128.056 134.01 124.408H130.746C130.194 126.496 128.922 127.528 126.594 127.528C123.618 127.528 121.674 125.08 121.674 121.744C121.674 118.336 123.594 115.96 126.594 115.96C128.802 115.96 130.194 116.992 130.746 119.08H134.01C133.362 115.408 130.698 113.2 126.594 113.2C121.578 113.2 118.362 116.872 118.362 121.744ZM136.635 130H139.851L139.755 118.96H139.851L148.179 130H151.035V113.488H147.819L147.915 124.528H147.819L139.539 113.488H136.635V130ZM159.045 130H162.285V123.592L168.453 113.488H165.045L160.773 120.592H160.677L156.621 113.488H152.973L159.045 123.688V130Z" fill="white"/>
<path d="M132.784 78.651H140.098V82.096H132.784V85.647H140.098V91H146.882V85.647H154.196V82.096H146.882V78.651H154.196V75.1H146.935L158.489 54.536H151.175L143.755 68.475H143.543L136.335 54.536H128.491L140.045 75.1H132.784V78.651Z" fill="white"/>
</svg>
