<svg width="286" height="176" viewBox="0 0 286 176" fill="none" xmlns="http://www.w3.org/2000/svg">
<path d="M251.38 1H34.6C16.0432 1 1 16.0432 1 34.6V140.86C1 159.417 16.0432 174.46 34.6 174.46H251.38C269.937 174.46 284.98 159.417 284.98 140.86V34.6C284.98 16.0432 269.937 1 251.38 1Z" fill="#0ABE53" stroke="#00112C" stroke-width="2" stroke-linecap="round" stroke-linejoin="round"/>
<path d="M105.468 135H125.788V130.56H110.828V123.08H122.588V118.84H110.828V111.92H125.428V107.48H105.468V135ZM129.978 123.96C129.978 132.48 134.938 135.48 141.858 135.48C148.778 135.48 153.698 132.48 153.698 123.96V107.48H148.298V123.88C148.298 128.4 146.178 130.88 141.858 130.88C137.498 130.88 135.378 128.4 135.378 123.88V107.48H129.978V123.96ZM159.238 135H164.598V125H170.078L176.398 135H182.238L175.398 124.36C179.238 123.04 181.198 120 181.198 116.04C181.198 110.64 177.718 107.48 171.038 107.48H159.238V135ZM170.798 111.8C173.998 111.8 175.758 113.4 175.758 116.08C175.758 118.8 174.118 120.8 170.798 120.8H164.598V111.8H170.798Z" fill="#00112C"/>
<path d="M128.915 70.807H132.254C132.201 71.284 132.201 72.344 132.201 72.821V74.517H128.968L127.908 78.068H132.572C133.685 85.965 137.819 91.636 145.822 91.636C152.659 91.636 156.316 87.502 157.641 81.301H151.175C150.168 84.534 148.631 86.124 145.928 86.124C142.377 86.124 140.257 83.421 139.515 78.068H146.988L148.048 74.517H139.25C139.197 74.146 139.197 73.192 139.197 72.768C139.197 72.291 139.197 71.284 139.25 70.807H148.26L149.267 67.256H139.568C140.363 62.009 142.536 59.412 146.087 59.412C149.055 59.412 150.486 61.214 151.387 64.818H157.8C156.634 58.405 153.136 53.9 145.928 53.9C138.031 53.9 133.844 59.412 132.572 67.256H129.922L128.915 70.807Z" fill="#00112C"/>
</svg>
