<svg width="286" height="176" viewBox="0 0 286 176" fill="none" xmlns="http://www.w3.org/2000/svg">
<path d="M251.38 1H34.6C16.0432 1 1 16.0432 1 34.6V140.86C1 159.417 16.0432 174.46 34.6 174.46H251.38C269.937 174.46 284.98 159.417 284.98 140.86V34.6C284.98 16.0432 269.937 1 251.38 1Z" fill="#00112C" stroke="#00112C" stroke-width="2" stroke-linecap="round" stroke-linejoin="round"/>
<path d="M120.981 130H133.173V127.336H124.197V122.848H131.253V120.304H124.197V116.152H132.957V113.488H120.981V130ZM135.687 123.376C135.687 128.488 138.663 130.288 142.815 130.288C146.967 130.288 149.919 128.488 149.919 123.376V113.488H146.679V123.328C146.679 126.04 145.407 127.528 142.815 127.528C140.199 127.528 138.927 126.04 138.927 123.328V113.488H135.687V123.376ZM153.243 130H156.459V124H159.747L163.539 130H167.043L162.939 123.616C165.243 122.824 166.419 121 166.419 118.624C166.419 115.384 164.331 113.488 160.323 113.488H153.243V130ZM160.179 116.08C162.099 116.08 163.155 117.04 163.155 118.648C163.155 120.28 162.171 121.48 160.179 121.48H156.459V116.08H160.179Z" fill="white"/>
<path d="M128.915 70.807H132.254C132.201 71.284 132.201 72.344 132.201 72.821V74.517H128.968L127.908 78.068H132.572C133.685 85.965 137.819 91.636 145.822 91.636C152.659 91.636 156.316 87.502 157.641 81.301H151.175C150.168 84.534 148.631 86.124 145.928 86.124C142.377 86.124 140.257 83.421 139.515 78.068H146.988L148.048 74.517H139.25C139.197 74.146 139.197 73.192 139.197 72.768C139.197 72.291 139.197 71.284 139.25 70.807H148.26L149.267 67.256H139.568C140.363 62.009 142.536 59.412 146.087 59.412C149.055 59.412 150.486 61.214 151.387 64.818H157.8C156.634 58.405 153.136 53.9 145.928 53.9C138.031 53.9 133.844 59.412 132.572 67.256H129.922L128.915 70.807Z" fill="white"/>
</svg>
