<svg width="286" height="176" viewBox="0 0 286 176" fill="none" xmlns="http://www.w3.org/2000/svg">
<path d="M251.38 1H34.6C16.0432 1 1 16.0432 1 34.6V140.86C1 159.417 16.0432 174.46 34.6 174.46H251.38C269.937 174.46 284.98 159.417 284.98 140.86V34.6C284.98 16.0432 269.937 1 251.38 1Z" fill="#79DBA0" stroke="#00112C" stroke-width="2" stroke-linecap="round" stroke-linejoin="round"/>
<path d="M81.944 130H85.16V123.016H92.936V130H96.152V113.488H92.936V120.28H85.16V113.488H81.944V130ZM98.7658 124.144C98.7658 128.056 101.238 130.288 104.982 130.288C108.534 130.288 111.174 127.984 111.174 124.144C111.174 120.232 108.702 118 104.982 118C101.406 118 98.7658 120.304 98.7658 124.144ZM101.958 124.144C101.958 121.816 103.158 120.376 104.982 120.376C106.806 120.376 107.982 121.744 107.982 124.144C107.982 126.472 106.806 127.936 104.982 127.936C103.158 127.936 101.958 126.472 101.958 124.144ZM113.52 130H116.616V123.832C116.616 121.648 117.768 120.4 119.304 120.4C120.672 120.4 121.584 121.144 121.584 123.28V130H124.68V122.896C124.68 119.248 122.568 118 120.168 118C118.536 118 117.24 118.648 116.568 119.968H116.472V118.288H113.52V130ZM127.215 131.296C127.287 134.128 129.567 135.472 132.831 135.472C136.575 135.472 139.047 133.72 139.047 129.328V118.288H136.095V119.968H135.999C135.303 118.648 134.103 118 132.351 118C129.351 118 126.879 120.304 126.879 124.24C126.879 128.176 129.207 130.288 132.159 130.288C133.983 130.288 135.327 129.64 135.999 128.32H136.095V129.328C136.095 132.208 134.919 133.312 132.879 133.312C131.247 133.312 130.191 132.568 130.119 131.296H127.215ZM130.071 124.24C130.071 121.864 131.247 120.352 132.999 120.352C134.727 120.352 135.951 121.792 135.951 124.192C135.951 126.52 134.727 127.936 132.999 127.936C131.247 127.936 130.071 126.616 130.071 124.24ZM147.471 130H150.687V125.128L152.895 122.776L158.343 130H162.039L154.959 120.592L161.655 113.488H157.935L150.687 121.312V113.488H147.471V130ZM162.183 124.144C162.183 128.056 164.655 130.288 168.399 130.288C171.951 130.288 174.591 127.984 174.591 124.144C174.591 120.232 172.119 118 168.399 118C164.823 118 162.183 120.304 162.183 124.144ZM165.375 124.144C165.375 121.816 166.575 120.376 168.399 120.376C170.223 120.376 171.399 121.744 171.399 124.144C171.399 126.472 170.223 127.936 168.399 127.936C166.575 127.936 165.375 126.472 165.375 124.144ZM176.937 130H180.034V123.832C180.034 121.648 181.185 120.4 182.722 120.4C184.09 120.4 185.002 121.144 185.002 123.28V130H188.098V122.896C188.098 119.248 185.986 118 183.585 118C181.954 118 180.657 118.648 179.985 119.968H179.889V118.288H176.937V130ZM190.633 131.296C190.705 134.128 192.985 135.472 196.249 135.472C199.993 135.472 202.465 133.72 202.465 129.328V118.288H199.513V119.968H199.417C198.721 118.648 197.521 118 195.769 118C192.769 118 190.297 120.304 190.297 124.24C190.297 128.176 192.625 130.288 195.577 130.288C197.401 130.288 198.745 129.64 199.417 128.32H199.513V129.328C199.513 132.208 198.337 133.312 196.297 133.312C194.665 133.312 193.609 132.568 193.537 131.296H190.633ZM193.489 124.24C193.489 121.864 194.665 120.352 196.417 120.352C198.145 120.352 199.369 121.792 199.369 124.192C199.369 126.52 198.145 127.936 196.417 127.936C194.665 127.936 193.489 126.616 193.489 124.24Z" fill="#00112C"/>
<path fill-rule="evenodd" clip-rule="evenodd" d="M167.325 80.675C166.85 80.075 166.125 79.725 165.35 79.725V75.275C165.35 75.275 165.35 75.075 165.35 75C165.35 74.925 165.35 74.8 165.35 74.7V59.95C165.325 59.275 165.05 58.65 164.575 58.175C164.1 57.7 163.475 57.45 162.8 57.45L155.35 57.5C154.35 57.5 153.45 58.1 153.075 59.025C153.075 59.025 153.842 59.35 155.375 60L153.075 59.025V59.1C153.075 59.1 153 59.225 152.975 59.325C152.9 59.5 152.8 59.775 152.675 60.1C152.425 60.75 152.125 61.675 151.8 62.75C151.175 64.9 150.525 67.85 150.525 70.75C150.525 73.325 151.25 75.175 152.55 76.325C153.175 76.875 153.8 77.175 154.325 77.325C154.575 77.4 154.8 77.45 155 77.475C155.1 77.475 155.175 77.475 155.25 77.475C155.275 77.475 155.325 77.475 155.35 77.475H155.4C155.4 77.475 155.4 77.475 155.4 74.975V77.475H160.4V79.7H147.9V67.475C149.275 67.475 150.4 66.35 150.4 64.975C150.4 63.6 149.275 62.475 147.9 62.475V59.975C149.275 59.975 150.4 58.85 150.4 57.475C150.4 56.1 149.275 54.975 147.9 54.975V47.5C147.9 46.125 146.775 45 145.4 45H137.9C137.275 45 136.7 45.225 136.225 45.65C136.225 45.65 136.783 46.2667 137.9 47.5L136.225 45.65H136.2L136.125 45.75C136.05 45.825 135.975 45.9 135.85 46.025C135.625 46.25 135.3 46.575 134.9 47C134.125 47.825 133.125 49.025 132.1 50.5C130.1 53.4 127.9 57.65 127.9 62.525C127.9 66.925 128.625 69.775 129.5 71.6C129.95 72.525 130.425 73.175 130.875 73.65C131.1 73.875 131.3 74.05 131.475 74.2C131.575 74.275 131.65 74.325 131.725 74.375C131.75 74.375 131.8 74.425 131.825 74.45H131.875V74.5C131.875 74.5 132.275 73.775 133.075 72.325L131.875 74.525C132.25 74.725 132.675 74.825 133.1 74.825L142.875 74.775V79.775H138.45L136.55 78.15C136.1 77.775 135.525 77.55 134.925 77.55H120.5C119.6 77.55 118.775 78.025 118.325 78.8C117.875 79.575 117.875 80.525 118.325 81.3L125.675 93.8C126.125 94.575 126.95 95.025 127.825 95.025H162.825C163.975 95.025 164.975 94.225 165.25 93.125L167.75 82.85C167.925 82.1 167.75 81.325 167.275 80.725L167.325 80.675ZM155.775 72.5C155.675 72.3 155.5 71.8 155.5 70.75C155.5 68.525 156.025 66.1 156.6 64.15C156.775 63.525 156.975 62.95 157.125 62.5H160.35V72.5H155.775ZM134.175 69.775C134.175 69.775 134.05 69.55 133.975 69.4C133.5 68.425 132.85 66.375 132.85 62.5C132.85 59.1 134.425 55.85 136.15 53.325C137 52.075 137.875 51.075 138.5 50.375C138.625 50.225 138.75 50.1 138.85 50H142.825V55H140.325C138.95 55 137.825 56.125 137.825 57.5C137.825 58.875 138.95 60 140.325 60H142.825V62.5H140.325C138.95 62.5 137.825 63.625 137.825 65C137.825 66.375 138.95 67.5 140.325 67.5H142.825V69.725H134.125L134.175 69.775ZM129.3 90.05L124.9 82.55H134L135.9 84.175C136.35 84.575 136.925 84.775 137.525 84.775H161.775C161.775 84.775 162.025 84.875 162.15 84.9L160.9 90.05H129.275H129.3Z" fill="#00112C"/>
<path d="M251.38 1H34.6C16.0432 1 1 16.0432 1 34.6V140.86C1 159.417 16.0432 174.46 34.6 174.46H251.38C269.937 174.46 284.98 159.417 284.98 140.86V34.6C284.98 16.0432 269.937 1 251.38 1Z" fill="#79DBA0" stroke="#00112C" stroke-width="2" stroke-linecap="round" stroke-linejoin="round"/>
<path d="M81.944 130H85.16V123.016H92.936V130H96.152V113.488H92.936V120.28H85.16V113.488H81.944V130ZM98.7658 124.144C98.7658 128.056 101.238 130.288 104.982 130.288C108.534 130.288 111.174 127.984 111.174 124.144C111.174 120.232 108.702 118 104.982 118C101.406 118 98.7658 120.304 98.7658 124.144ZM101.958 124.144C101.958 121.816 103.158 120.376 104.982 120.376C106.806 120.376 107.982 121.744 107.982 124.144C107.982 126.472 106.806 127.936 104.982 127.936C103.158 127.936 101.958 126.472 101.958 124.144ZM113.52 130H116.616V123.832C116.616 121.648 117.768 120.4 119.304 120.4C120.672 120.4 121.584 121.144 121.584 123.28V130H124.68V122.896C124.68 119.248 122.568 118 120.168 118C118.536 118 117.24 118.648 116.568 119.968H116.472V118.288H113.52V130ZM127.215 131.296C127.287 134.128 129.567 135.472 132.831 135.472C136.575 135.472 139.047 133.72 139.047 129.328V118.288H136.095V119.968H135.999C135.303 118.648 134.103 118 132.351 118C129.351 118 126.879 120.304 126.879 124.24C126.879 128.176 129.207 130.288 132.159 130.288C133.983 130.288 135.327 129.64 135.999 128.32H136.095V129.328C136.095 132.208 134.919 133.312 132.879 133.312C131.247 133.312 130.191 132.568 130.119 131.296H127.215ZM130.071 124.24C130.071 121.864 131.247 120.352 132.999 120.352C134.727 120.352 135.951 121.792 135.951 124.192C135.951 126.52 134.727 127.936 132.999 127.936C131.247 127.936 130.071 126.616 130.071 124.24ZM147.471 130H150.687V125.128L152.895 122.776L158.343 130H162.039L154.959 120.592L161.655 113.488H157.935L150.687 121.312V113.488H147.471V130ZM162.183 124.144C162.183 128.056 164.655 130.288 168.399 130.288C171.951 130.288 174.591 127.984 174.591 124.144C174.591 120.232 172.119 118 168.399 118C164.823 118 162.183 120.304 162.183 124.144ZM165.375 124.144C165.375 121.816 166.575 120.376 168.399 120.376C170.223 120.376 171.399 121.744 171.399 124.144C171.399 126.472 170.223 127.936 168.399 127.936C166.575 127.936 165.375 126.472 165.375 124.144ZM176.937 130H180.034V123.832C180.034 121.648 181.185 120.4 182.722 120.4C184.09 120.4 185.002 121.144 185.002 123.28V130H188.098V122.896C188.098 119.248 185.986 118 183.585 118C181.954 118 180.657 118.648 179.985 119.968H179.889V118.288H176.937V130ZM190.633 131.296C190.705 134.128 192.985 135.472 196.249 135.472C199.993 135.472 202.465 133.72 202.465 129.328V118.288H199.513V119.968H199.417C198.721 118.648 197.521 118 195.769 118C192.769 118 190.297 120.304 190.297 124.24C190.297 128.176 192.625 130.288 195.577 130.288C197.401 130.288 198.745 129.64 199.417 128.32H199.513V129.328C199.513 132.208 198.337 133.312 196.297 133.312C194.665 133.312 193.609 132.568 193.537 131.296H190.633ZM193.489 124.24C193.489 121.864 194.665 120.352 196.417 120.352C198.145 120.352 199.369 121.792 199.369 124.192C199.369 126.52 198.145 127.936 196.417 127.936C194.665 127.936 193.489 126.616 193.489 124.24Z" fill="#00112C"/>
<path fill-rule="evenodd" clip-rule="evenodd" d="M167.325 80.675C166.85 80.075 166.125 79.725 165.35 79.725V75.275C165.35 75.275 165.35 75.075 165.35 75C165.35 74.925 165.35 74.8 165.35 74.7V59.95C165.325 59.275 165.05 58.65 164.575 58.175C164.1 57.7 163.475 57.45 162.8 57.45L155.35 57.5C154.35 57.5 153.45 58.1 153.075 59.025C153.075 59.025 153.842 59.35 155.375 60L153.075 59.025V59.1C153.075 59.1 153 59.225 152.975 59.325C152.9 59.5 152.8 59.775 152.675 60.1C152.425 60.75 152.125 61.675 151.8 62.75C151.175 64.9 150.525 67.85 150.525 70.75C150.525 73.325 151.25 75.175 152.55 76.325C153.175 76.875 153.8 77.175 154.325 77.325C154.575 77.4 154.8 77.45 155 77.475C155.1 77.475 155.175 77.475 155.25 77.475C155.275 77.475 155.325 77.475 155.35 77.475H155.4C155.4 77.475 155.4 77.475 155.4 74.975V77.475H160.4V79.7H147.9V67.475C149.275 67.475 150.4 66.35 150.4 64.975C150.4 63.6 149.275 62.475 147.9 62.475V59.975C149.275 59.975 150.4 58.85 150.4 57.475C150.4 56.1 149.275 54.975 147.9 54.975V47.5C147.9 46.125 146.775 45 145.4 45H137.9C137.275 45 136.7 45.225 136.225 45.65C136.225 45.65 136.783 46.2667 137.9 47.5L136.225 45.65H136.2L136.125 45.75C136.05 45.825 135.975 45.9 135.85 46.025C135.625 46.25 135.3 46.575 134.9 47C134.125 47.825 133.125 49.025 132.1 50.5C130.1 53.4 127.9 57.65 127.9 62.525C127.9 66.925 128.625 69.775 129.5 71.6C129.95 72.525 130.425 73.175 130.875 73.65C131.1 73.875 131.3 74.05 131.475 74.2C131.575 74.275 131.65 74.325 131.725 74.375C131.75 74.375 131.8 74.425 131.825 74.45H131.875V74.5C131.875 74.5 132.275 73.775 133.075 72.325L131.875 74.525C132.25 74.725 132.675 74.825 133.1 74.825L142.875 74.775V79.775H138.45L136.55 78.15C136.1 77.775 135.525 77.55 134.925 77.55H120.5C119.6 77.55 118.775 78.025 118.325 78.8C117.875 79.575 117.875 80.525 118.325 81.3L125.675 93.8C126.125 94.575 126.95 95.025 127.825 95.025H162.825C163.975 95.025 164.975 94.225 165.25 93.125L167.75 82.85C167.925 82.1 167.75 81.325 167.275 80.725L167.325 80.675ZM155.775 72.5C155.675 72.3 155.5 71.8 155.5 70.75C155.5 68.525 156.025 66.1 156.6 64.15C156.775 63.525 156.975 62.95 157.125 62.5H160.35V72.5H155.775ZM134.175 69.775C134.175 69.775 134.05 69.55 133.975 69.4C133.5 68.425 132.85 66.375 132.85 62.5C132.85 59.1 134.425 55.85 136.15 53.325C137 52.075 137.875 51.075 138.5 50.375C138.625 50.225 138.75 50.1 138.85 50H142.825V55H140.325C138.95 55 137.825 56.125 137.825 57.5C137.825 58.875 138.95 60 140.325 60H142.825V62.5H140.325C138.95 62.5 137.825 63.625 137.825 65C137.825 66.375 138.95 67.5 140.325 67.5H142.825V69.725H134.125L134.175 69.775ZM129.3 90.05L124.9 82.55H134L135.9 84.175C136.35 84.575 136.925 84.775 137.525 84.775H161.775C161.775 84.775 162.025 84.875 162.15 84.9L160.9 90.05H129.275H129.3Z" fill="#00112C"/>
</svg>
