<svg width="286" height="176" viewBox="0 0 286 176" fill="none" xmlns="http://www.w3.org/2000/svg">
<path d="M251.38 1H34.6C16.0432 1 1 16.0432 1 34.6V140.86C1 159.417 16.0432 174.46 34.6 174.46H251.38C269.937 174.46 284.98 159.417 284.98 140.86V34.6C284.98 16.0432 269.937 1 251.38 1Z" fill="#E7ECF2" stroke="#00112C" stroke-width="2" stroke-linecap="round" stroke-linejoin="round"/>
<path d="M117.957 130H121.173V123.016H128.949V130H132.165V113.488H128.949V120.28H121.173V113.488H117.957V130ZM135.811 130H139.027V125.128L141.235 122.776L146.683 130H150.379L143.299 120.592L149.995 113.488H146.275L139.027 121.312V113.488H135.811V130ZM152.282 130H158.066C163.874 130 166.922 126.52 166.922 121.744C166.922 116.968 163.874 113.488 158.066 113.488H152.282V130ZM157.946 116.152C162.074 116.152 163.61 118.744 163.61 121.744C163.61 124.744 162.074 127.336 157.946 127.336H155.498V116.152H157.946Z" fill="#00112C"/>
<path d="M94.3313 94H101.433V78.577H118.605V94H125.707V57.536H118.605V72.535H101.433V57.536H94.3313V94ZM133.758 94H140.86V83.241L145.736 78.047L157.767 94H165.929L150.294 73.224L165.081 57.536H156.866L140.86 74.814V57.536H133.758V94ZM167.588 83.612C167.8 89.707 171.563 93.629 177.976 94.477V100.36H183.382V94.424C189.795 93.576 193.77 89.495 193.77 83.347C193.77 77.782 190.537 74.761 184.813 73.118L180.414 71.793C177.022 70.786 175.273 69.726 175.273 66.758C175.273 63.578 177.711 62.094 180.679 62.094C183.488 62.094 185.767 63.578 186.191 67.023H192.816C192.445 61.67 188.735 58.013 183.382 57.112V51.388H177.976V57.112C172.04 58.119 168.33 62.041 168.33 67.553C168.33 74.072 173.206 76.669 176.863 77.782L181.262 79.054C184.601 80.061 186.827 81.227 186.827 84.248C186.827 87.693 184.336 89.548 180.679 89.548C177.075 89.548 174.531 87.481 174.319 83.612H167.588Z" fill="#00112C"/>
</svg>
