<svg width="286" height="176" viewBox="0 0 286 176" fill="none" xmlns="http://www.w3.org/2000/svg">
<path d="M251.38 1H34.6C16.0432 1 1 16.0432 1 34.6V140.86C1 159.417 16.0432 174.46 34.6 174.46H251.38C269.937 174.46 284.98 159.417 284.98 140.86V34.6C284.98 16.0432 269.937 1 251.38 1Z" fill="#E7ECF2" stroke="#00112C" stroke-width="2" stroke-linecap="round" stroke-linejoin="round"/>
<path d="M102.429 135H107.789V123.36H120.749V135H126.109V107.48H120.749V118.8H107.789V107.48H102.429V135ZM132.185 135H137.545V126.88L141.225 122.96L150.305 135H156.465L144.665 119.32L155.825 107.48H149.625L137.545 120.52V107.48H132.185V135ZM159.637 135H169.277C178.957 135 184.037 129.2 184.037 121.24C184.037 113.28 178.957 107.48 169.277 107.48H159.637V135ZM169.077 111.92C175.957 111.92 178.517 116.24 178.517 121.24C178.517 126.24 175.957 130.56 169.077 130.56H164.997V111.92H169.077Z" fill="#00112C"/>
<path d="M94.3313 94H101.433V78.577H118.605V94H125.707V57.536H118.605V72.535H101.433V57.536H94.3313V94ZM133.758 94H140.86V83.241L145.736 78.047L157.767 94H165.929L150.294 73.224L165.081 57.536H156.866L140.86 74.814V57.536H133.758V94ZM167.588 83.612C167.8 89.707 171.563 93.629 177.976 94.477V100.36H183.382V94.424C189.795 93.576 193.77 89.495 193.77 83.347C193.77 77.782 190.537 74.761 184.813 73.118L180.414 71.793C177.022 70.786 175.273 69.726 175.273 66.758C175.273 63.578 177.711 62.094 180.679 62.094C183.488 62.094 185.767 63.578 186.191 67.023H192.816C192.445 61.67 188.735 58.013 183.382 57.112V51.388H177.976V57.112C172.04 58.119 168.33 62.041 168.33 67.553C168.33 74.072 173.206 76.669 176.863 77.782L181.262 79.054C184.601 80.061 186.827 81.227 186.827 84.248C186.827 87.693 184.336 89.548 180.679 89.548C177.075 89.548 174.531 87.481 174.319 83.612H167.588Z" fill="#00112C"/>
</svg>
