<svg width="286" height="176" viewBox="0 0 286 176" fill="none" xmlns="http://www.w3.org/2000/svg">
<path d="M251.38 1H34.6C16.0432 1 1 16.0432 1 34.6V140.86C1 159.417 16.0432 174.46 34.6 174.46H251.38C269.937 174.46 284.98 159.417 284.98 140.86V34.6C284.98 16.0432 269.937 1 251.38 1Z" fill="#E7ECF2" stroke="#00112C" stroke-width="2" stroke-linecap="round" stroke-linejoin="round"/>
<path d="M87.44 123.84C87.44 130.08 91.12 132.48 96.4 132.48C101.88 132.48 105.44 130.04 105.44 123.44V104.48H100.04V123.56C100.04 126.92 98.6 128.04 96.4 128.04C94.2 128.04 92.72 126.96 92.72 123.8V122.52H87.44V123.84ZM109.272 126.84C109.272 130.2 111.632 132.32 115.832 132.32C119.192 132.32 121.312 131.16 122.232 129.08H122.392V132H127.312V119.2C127.312 114.52 124.472 112 118.672 112C113.712 112 110.352 114.44 110.032 118.8H114.832C114.992 116.84 116.272 115.6 118.672 115.6C121.072 115.6 122.152 117 122.152 118.64C122.152 119.84 121.712 119.96 119.672 120.28L115.752 120.84C111.232 121.48 109.272 123.32 109.272 126.84ZM122.152 123.96C122.152 127.16 119.872 128.72 117.192 128.72C115.392 128.72 114.352 127.8 114.352 126.24C114.352 124.88 115.312 124.04 117.232 123.72L120.232 123.24C121.152 123.08 121.792 122.8 122.152 122.32V123.96ZM137.418 135.76C137.418 134.44 137.418 131.76 137.178 129.2H137.338C138.498 131.4 140.498 132.48 143.418 132.48C148.418 132.48 152.538 128.64 152.538 122.08C152.538 115.52 148.658 112 143.738 112C140.698 112 138.458 113.08 137.338 115.28H137.178V112.48H132.258V140.8H137.418V135.76ZM147.258 122.08C147.258 126.04 145.258 128.56 142.378 128.56C139.458 128.56 137.418 126.2 137.418 122.24V121.96C137.538 118.16 139.498 115.92 142.378 115.92C145.258 115.92 147.258 118.12 147.258 122.08ZM155.347 126.84C155.347 130.2 157.707 132.32 161.907 132.32C165.267 132.32 167.387 131.16 168.307 129.08H168.467V132H173.387V119.2C173.387 114.52 170.547 112 164.747 112C159.787 112 156.427 114.44 156.107 118.8H160.907C161.067 116.84 162.347 115.6 164.747 115.6C167.147 115.6 168.227 117 168.227 118.64C168.227 119.84 167.787 119.96 165.747 120.28L161.827 120.84C157.307 121.48 155.347 123.32 155.347 126.84ZM168.227 123.96C168.227 127.16 165.947 128.72 163.267 128.72C161.467 128.72 160.427 127.8 160.427 126.24C160.427 124.88 161.387 124.04 163.307 123.72L166.307 123.24C167.227 123.08 167.867 122.8 168.227 122.32V123.96ZM178.333 132H183.493V121.72C183.493 118.08 185.413 116 187.973 116C190.253 116 191.773 117.24 191.773 120.8V132H196.933V120.16C196.933 114.08 193.413 112 189.413 112C186.693 112 184.533 113.08 183.413 115.28H183.253V112.48H178.333V132Z" fill="#00112C"/>
<path fill-rule="evenodd" clip-rule="evenodd" d="M145.475 56.5001C145.475 57.8808 144.356 59.0001 142.975 59.0001C141.594 59.0001 140.475 57.8808 140.475 56.5001C140.475 55.1194 141.594 54.0001 142.975 54.0001C144.356 54.0001 145.475 55.1194 145.475 56.5001Z" fill="#00112C"/>
<path fill-rule="evenodd" clip-rule="evenodd" d="M155.475 64.0001C156.856 64.0001 157.975 62.8808 157.975 61.5001C157.975 60.1194 156.856 59.0001 155.475 59.0001C154.094 59.0001 152.975 60.1194 152.975 61.5001C152.975 62.8808 154.094 64.0001 155.475 64.0001Z" fill="#00112C"/>
<path fill-rule="evenodd" clip-rule="evenodd" d="M132.975 61.5001C132.975 62.8808 131.856 64.0001 130.475 64.0001C129.094 64.0001 127.975 62.8808 127.975 61.5001C127.975 60.1194 129.094 59.0001 130.475 59.0001C131.856 59.0001 132.975 60.1194 132.975 61.5001Z" fill="#00112C"/>
<path fill-rule="evenodd" clip-rule="evenodd" d="M167.925 63.9751C167.925 64.1501 167.925 64.3251 167.9 64.5001H167.875C167.825 64.6501 167.775 64.8001 167.7 64.9501C167.65 65.1001 167.6 65.2501 167.5 65.3751C167.375 65.5251 167.25 65.65 167.125 65.775C167.05 65.85 166.9 66.0251 166.9 66.0251L147.175 80.3751L149.4 82.0001C150.525 82.8251 150.775 84.3751 149.95 85.5001C149.45 86.1751 148.7 86.5251 147.925 86.5251C147.4 86.5251 146.9 86.3751 146.45 86.0501L142.925 83.4751L139.4 86.0501C138.95 86.3751 138.425 86.5251 137.925 86.5251C137.15 86.5251 136.4 86.1751 135.9 85.5001C135.075 84.3751 135.325 82.8001 136.45 82.0001L138.675 80.3751L118.95 66.0251C118.892 65.9814 118.85 65.9292 118.806 65.8735C118.775 65.8336 118.742 65.7918 118.7 65.7501C118.6 65.6501 118.475 65.5251 118.375 65.4001C118.338 65.3251 118.306 65.2501 118.275 65.1751C118.244 65.1001 118.212 65.0251 118.175 64.9501C118.164 64.9222 118.151 64.8931 118.139 64.863C118.094 64.7582 118.044 64.6416 118.025 64.5251C118 64.3501 118 64.1751 118 64.0001V63.6501C118.025 63.4501 121.025 43.9751 142.95 43.9751C164.875 43.9751 167.9 63.4251 167.925 63.6251C167.941 63.7075 167.936 63.779 167.931 63.8539C167.928 63.8927 167.925 63.9325 167.925 63.9751ZM162.675 62.9501C161.65 59.1251 157.525 49.0001 142.975 49.0001C128.45 49.0001 124.325 59.1501 123.275 62.9501L134.425 71.0751C135.875 69.2001 138.7 66.5251 142.975 66.5251C147.25 66.5251 150.075 69.1751 151.525 71.0751L162.675 62.9501ZM142.975 71.5001C140.85 71.5001 139.325 72.9251 138.475 74.0001L142.975 77.2751L147.475 74.0001C146.625 72.9251 145.1 71.5001 142.975 71.5001Z" fill="#00112C"/>
</svg>
