<svg width="286" height="176" viewBox="0 0 286 176" fill="none" xmlns="http://www.w3.org/2000/svg">
<path d="M251.38 1H34.6C16.0432 1 1 16.0432 1 34.6V140.86C1 159.417 16.0432 174.46 34.6 174.46H251.38C269.937 174.46 284.98 159.417 284.98 140.86V34.6C284.98 16.0432 269.937 1 251.38 1Z" fill="#E7ECF2" stroke="#00112C" stroke-width="2" stroke-linecap="round" stroke-linejoin="round"/>
<path d="M108.864 125.104C108.864 128.848 111.072 130.288 114.24 130.288C117.528 130.288 119.664 128.824 119.664 124.864V113.488H116.424V124.936C116.424 126.952 115.56 127.624 114.24 127.624C112.92 127.624 112.032 126.976 112.032 125.08V124.312H108.864V125.104ZM121.963 126.904C121.963 128.92 123.379 130.192 125.899 130.192C127.915 130.192 129.187 129.496 129.739 128.248H129.835V130H132.787V122.32C132.787 119.512 131.083 118 127.603 118C124.627 118 122.611 119.464 122.419 122.08H125.299C125.395 120.904 126.163 120.16 127.603 120.16C129.043 120.16 129.691 121 129.691 121.984C129.691 122.704 129.427 122.776 128.203 122.968L125.851 123.304C123.139 123.688 121.963 124.792 121.963 126.904ZM129.691 125.176C129.691 127.096 128.323 128.032 126.715 128.032C125.635 128.032 125.011 127.48 125.011 126.544C125.011 125.728 125.587 125.224 126.739 125.032L128.539 124.744C129.091 124.648 129.475 124.48 129.691 124.192V125.176ZM138.851 132.256C138.851 131.464 138.851 129.856 138.707 128.32H138.803C139.499 129.64 140.699 130.288 142.451 130.288C145.451 130.288 147.923 127.984 147.923 124.048C147.923 120.112 145.595 118 142.643 118C140.819 118 139.475 118.648 138.803 119.968H138.707V118.288H135.755V135.28H138.851V132.256ZM144.755 124.048C144.755 126.424 143.555 127.936 141.827 127.936C140.075 127.936 138.851 126.52 138.851 124.144V123.976C138.923 121.696 140.099 120.352 141.827 120.352C143.555 120.352 144.755 121.672 144.755 124.048ZM149.608 126.904C149.608 128.92 151.024 130.192 153.544 130.192C155.56 130.192 156.832 129.496 157.384 128.248H157.48V130H160.432V122.32C160.432 119.512 158.728 118 155.248 118C152.272 118 150.256 119.464 150.064 122.08H152.944C153.04 120.904 153.808 120.16 155.248 120.16C156.688 120.16 157.336 121 157.336 121.984C157.336 122.704 157.072 122.776 155.848 122.968L153.496 123.304C150.784 123.688 149.608 124.792 149.608 126.904ZM157.336 125.176C157.336 127.096 155.968 128.032 154.36 128.032C153.28 128.032 152.656 127.48 152.656 126.544C152.656 125.728 153.232 125.224 154.384 125.032L156.184 124.744C156.736 124.648 157.12 124.48 157.336 124.192V125.176ZM163.4 130H166.496V123.832C166.496 121.648 167.648 120.4 169.184 120.4C170.552 120.4 171.464 121.144 171.464 123.28V130H174.56V122.896C174.56 119.248 172.448 118 170.048 118C168.416 118 167.12 118.648 166.448 119.968H166.352V118.288H163.4V130Z" fill="#00112C"/>
<path fill-rule="evenodd" clip-rule="evenodd" d="M145.475 62.5001C145.475 63.8808 144.356 65.0001 142.975 65.0001C141.594 65.0001 140.475 63.8808 140.475 62.5001C140.475 61.1194 141.594 60.0001 142.975 60.0001C144.356 60.0001 145.475 61.1194 145.475 62.5001Z" fill="#00112C"/>
<path fill-rule="evenodd" clip-rule="evenodd" d="M155.475 70.0001C156.856 70.0001 157.975 68.8808 157.975 67.5001C157.975 66.1194 156.856 65.0001 155.475 65.0001C154.094 65.0001 152.975 66.1194 152.975 67.5001C152.975 68.8808 154.094 70.0001 155.475 70.0001Z" fill="#00112C"/>
<path fill-rule="evenodd" clip-rule="evenodd" d="M132.975 67.5001C132.975 68.8808 131.856 70.0001 130.475 70.0001C129.094 70.0001 127.975 68.8808 127.975 67.5001C127.975 66.1194 129.094 65.0001 130.475 65.0001C131.856 65.0001 132.975 66.1194 132.975 67.5001Z" fill="#00112C"/>
<path fill-rule="evenodd" clip-rule="evenodd" d="M167.925 69.9751C167.925 70.1501 167.925 70.3251 167.9 70.5001H167.875C167.825 70.6501 167.775 70.8001 167.7 70.9501C167.65 71.1001 167.6 71.2501 167.5 71.3751C167.375 71.5251 167.25 71.65 167.125 71.775C167.05 71.85 166.9 72.0251 166.9 72.0251L147.175 86.3751L149.4 88.0001C150.525 88.8251 150.775 90.3751 149.95 91.5001C149.45 92.1751 148.7 92.5251 147.925 92.5251C147.4 92.5251 146.9 92.3751 146.45 92.0501L142.925 89.4751L139.4 92.0501C138.95 92.3751 138.425 92.5251 137.925 92.5251C137.15 92.5251 136.4 92.1751 135.9 91.5001C135.075 90.3751 135.325 88.8001 136.45 88.0001L138.675 86.3751L118.95 72.0251C118.892 71.9814 118.85 71.9292 118.806 71.8735C118.775 71.8336 118.742 71.7918 118.7 71.7501C118.6 71.6501 118.475 71.5251 118.375 71.4001C118.338 71.3251 118.306 71.2501 118.275 71.1751C118.244 71.1001 118.212 71.0251 118.175 70.9501C118.164 70.9222 118.151 70.8931 118.139 70.863C118.094 70.7582 118.044 70.6416 118.025 70.5251C118 70.3501 118 70.1751 118 70.0001V69.6501C118.025 69.4501 121.025 49.9751 142.95 49.9751C164.875 49.9751 167.9 69.4251 167.925 69.6251C167.941 69.7075 167.936 69.779 167.931 69.8539C167.928 69.8927 167.925 69.9325 167.925 69.9751ZM162.675 68.9501C161.65 65.1251 157.525 55.0001 142.975 55.0001C128.45 55.0001 124.325 65.1501 123.275 68.9501L134.425 77.0751C135.875 75.2001 138.7 72.5251 142.975 72.5251C147.25 72.5251 150.075 75.1751 151.525 77.0751L162.675 68.9501ZM142.975 77.5001C140.85 77.5001 139.325 78.9251 138.475 80.0001L142.975 83.2751L147.475 80.0001C146.625 78.9251 145.1 77.5001 142.975 77.5001Z" fill="#00112C"/>
</svg>
