<svg width="286" height="176" viewBox="0 0 286 176" fill="none" xmlns="http://www.w3.org/2000/svg">
<path d="M251.38 1H34.6C16.0432 1 1 16.0432 1 34.6V140.86C1 159.417 16.0432 174.46 34.6 174.46H251.38C269.937 174.46 284.98 159.417 284.98 140.86V34.6C284.98 16.0432 269.937 1 251.38 1Z" fill="white" stroke="#00112C" stroke-width="2" stroke-linecap="round" stroke-linejoin="round"/>
<path d="M124.755 130H127.995V123.592L134.163 113.488H130.755L126.483 120.592H126.387L122.331 113.488H118.683L124.755 123.688V130ZM136.108 130H148.3V127.336H139.324V122.848H146.38V120.304H139.324V116.152H148.084V113.488H136.108V130ZM151.22 130H154.436L154.34 118.96H154.436L162.764 130H165.62V113.488H162.404L162.5 124.528H162.404L154.124 113.488H151.22V130Z" fill="#00112C"/>
<path d="M98.2691 76.188C98.2691 84.456 103.145 87.636 110.141 87.636C117.402 87.636 122.119 84.403 122.119 75.658V50.536H114.964V75.817C114.964 80.269 113.056 81.753 110.141 81.753C107.226 81.753 105.265 80.322 105.265 76.135V74.439H98.2691V76.188ZM129.574 87H136.676V75.075H145.262C153.954 75.075 158.777 69.828 158.777 62.567C158.777 55.465 153.954 50.536 145.262 50.536H129.574V87ZM144.626 56.26C149.29 56.26 151.569 58.857 151.569 62.673C151.569 66.542 149.29 69.351 144.626 69.351H136.676V56.26H144.626ZM164.862 74.651H172.176V78.096H164.862V81.647H172.176V87H178.96V81.647H186.274V78.096H178.96V74.651H186.274V71.1H179.013L190.567 50.536H183.253L175.833 64.475H175.621L168.413 50.536H160.569L172.123 71.1H164.862V74.651Z" fill="#00112C"/>
<path d="M251.38 1H34.6C16.0432 1 1 16.0432 1 34.6V140.86C1 159.417 16.0432 174.46 34.6 174.46H251.38C269.937 174.46 284.98 159.417 284.98 140.86V34.6C284.98 16.0432 269.937 1 251.38 1Z" fill="white" stroke="#00112C" stroke-width="2" stroke-linecap="round" stroke-linejoin="round"/>
<path d="M124.755 130H127.995V123.592L134.163 113.488H130.755L126.483 120.592H126.387L122.331 113.488H118.683L124.755 123.688V130ZM136.108 130H148.3V127.336H139.324V122.848H146.38V120.304H139.324V116.152H148.084V113.488H136.108V130ZM151.22 130H154.436L154.34 118.96H154.436L162.764 130H165.62V113.488H162.404L162.5 124.528H162.404L154.124 113.488H151.22V130Z" fill="#00112C"/>
<path d="M98.2691 76.188C98.2691 84.456 103.145 87.636 110.141 87.636C117.402 87.636 122.119 84.403 122.119 75.658V50.536H114.964V75.817C114.964 80.269 113.056 81.753 110.141 81.753C107.226 81.753 105.265 80.322 105.265 76.135V74.439H98.2691V76.188ZM129.574 87H136.676V75.075H145.262C153.954 75.075 158.777 69.828 158.777 62.567C158.777 55.465 153.954 50.536 145.262 50.536H129.574V87ZM144.626 56.26C149.29 56.26 151.569 58.857 151.569 62.673C151.569 66.542 149.29 69.351 144.626 69.351H136.676V56.26H144.626ZM164.862 74.651H172.176V78.096H164.862V81.647H172.176V87H178.96V81.647H186.274V78.096H178.96V74.651H186.274V71.1H179.013L190.567 50.536H183.253L175.833 64.475H175.621L168.413 50.536H160.569L172.123 71.1H164.862V74.651Z" fill="#00112C"/>
</svg>
