<svg width="286" height="176" viewBox="0 0 286 176" fill="none" xmlns="http://www.w3.org/2000/svg">
<path d="M251.38 1H34.6C16.0432 1 1 16.0432 1 34.6V140.86C1 159.417 16.0432 174.46 34.6 174.46H251.38C269.937 174.46 284.98 159.417 284.98 140.86V34.6C284.98 16.0432 269.937 1 251.38 1Z" fill="#0ABE53" stroke="#00112C" stroke-width="2" stroke-linecap="round" stroke-linejoin="round"/>
<path fill-rule="evenodd" clip-rule="evenodd" d="M143 47.5C130.574 47.5 120.5 57.5736 120.5 70C120.5 82.4264 130.574 92.5 143 92.5C155.426 92.5 165.5 82.4264 165.5 70C165.5 57.5736 155.426 47.5 143 47.5ZM125.514 69.2884C125.888 59.9533 133.573 52.5 143 52.5C147.891 52.5 152.314 54.5068 155.49 57.742C154.693 57.5832 153.869 57.5 153.024 57.5C146.111 57.5 140.574 63.0775 140.574 69.975L140.575 70.0024L140.575 70.025C140.575 74.1693 137.244 77.5 133.1 77.5C128.959 77.5 125.625 74.1484 125.625 70.025C125.625 69.7686 125.586 69.5212 125.514 69.2884ZM130.478 82.2247C133.656 85.4794 138.092 87.5 143 87.5C152.656 87.5 160.486 79.6792 160.5 70.0264C160.5 70.0093 160.499 69.9922 160.499 69.975C160.499 65.8307 157.169 62.5 153.024 62.5C148.888 62.5 145.574 65.8225 145.574 69.975L145.574 69.9976L145.575 70.025C145.575 76.9307 140.005 82.5 133.1 82.5C132.2 82.5 131.323 82.4051 130.478 82.2247Z" fill="white"/>
<path d="M75.2 125.104C75.2 128.392 77.504 130.288 81.896 130.288C86.336 130.288 88.832 128.152 88.832 125.08C88.832 121.6 86.024 120.832 83.408 120.328L82.304 120.136C80.216 119.752 78.68 119.392 78.68 117.856C78.68 116.344 80.096 115.6 81.944 115.6C83.792 115.6 85.16 116.416 85.16 118.144H88.304C88.304 115.048 85.784 113.2 81.944 113.2C78.008 113.2 75.488 115.36 75.488 118.168C75.488 121.744 78.44 122.488 81.152 122.944L82.256 123.136C84.176 123.448 85.544 123.952 85.544 125.392C85.544 127 84.296 127.888 81.896 127.888C79.76 127.888 78.344 126.904 78.344 125.104H75.2ZM90.7033 124.144C90.7033 128.056 93.1753 130.288 96.9193 130.288C100.471 130.288 103.111 127.984 103.111 124.144C103.111 120.232 100.639 118 96.9193 118C93.3433 118 90.7033 120.304 90.7033 124.144ZM93.8953 124.144C93.8953 121.816 95.0953 120.376 96.9193 120.376C98.7433 120.376 99.9193 121.744 99.9193 124.144C99.9193 126.472 98.7433 127.936 96.9193 127.936C95.0953 127.936 93.8953 126.472 93.8953 124.144ZM105.266 125.392C105.266 129.04 107.378 130.288 109.778 130.288C111.41 130.288 112.658 129.64 113.33 128.32H113.426V130H116.354V118.288H113.282V124.48C113.282 126.664 112.178 127.888 110.642 127.888C109.298 127.888 108.362 127.192 108.362 125.008V118.288H105.266V125.392ZM119.923 126.16C119.923 128.944 121.123 130 124.171 130H125.899V127.504H124.555C123.403 127.504 122.995 127.072 122.995 126.04V120.592H125.899V118.288H122.995V114.736H119.923V118.288H117.715V120.592H119.923V126.16ZM127.923 130H131.019V123.76C131.019 121.648 132.171 120.4 133.707 120.4C135.075 120.4 135.987 121.12 135.987 123.28V130H139.083V122.896C139.083 119.248 136.971 118 134.571 118C132.915 118 131.643 118.672 130.971 119.968H130.875C131.019 118.408 131.019 116.824 131.019 116.032V112.432H127.923V130ZM147.348 130H150.564V125.128L152.772 122.776L158.22 130H161.916L154.836 120.592L161.532 113.488H157.812L150.564 121.312V113.488H147.348V130ZM162.06 124.144C162.06 128.056 164.532 130.288 168.276 130.288C171.828 130.288 174.468 127.984 174.468 124.144C174.468 120.232 171.996 118 168.276 118C164.7 118 162.06 120.304 162.06 124.144ZM165.252 124.144C165.252 121.816 166.452 120.376 168.276 120.376C170.1 120.376 171.276 121.744 171.276 124.144C171.276 126.472 170.1 127.936 168.276 127.936C166.452 127.936 165.252 126.472 165.252 124.144ZM176.815 130H179.911V124.408C179.911 122.344 180.751 120.76 182.503 120.76C182.959 120.76 183.439 120.88 183.943 121.144L184.567 118.48C183.967 118.072 183.415 118 182.935 118C181.399 118 180.391 118.816 179.815 120.064H179.767V118.288H176.815V130ZM184.946 124.192C184.946 128.128 187.202 130.288 191.066 130.288C194.522 130.288 196.25 128.488 196.634 126.352H193.682C193.418 127.24 192.65 128.032 191.114 128.032C189.386 128.032 188.186 126.904 188.09 124.696H196.754V123.832C196.754 120.088 194.546 118 191.018 118C187.442 118 184.946 120.4 184.946 124.192ZM191.018 120.256C192.578 120.256 193.442 121.12 193.634 122.824H188.186C188.498 121.192 189.506 120.256 191.018 120.256ZM198.374 126.904C198.374 128.92 199.79 130.192 202.31 130.192C204.326 130.192 205.598 129.496 206.15 128.248H206.246V130H209.198V122.32C209.198 119.512 207.494 118 204.014 118C201.038 118 199.022 119.464 198.83 122.08H201.71C201.806 120.904 202.574 120.16 204.014 120.16C205.454 120.16 206.102 121 206.102 121.984C206.102 122.704 205.838 122.776 204.614 122.968L202.262 123.304C199.55 123.688 198.374 124.792 198.374 126.904ZM206.102 125.176C206.102 127.096 204.734 128.032 203.126 128.032C202.046 128.032 201.422 127.48 201.422 126.544C201.422 125.728 201.998 125.224 203.15 125.032L204.95 124.744C205.502 124.648 205.886 124.48 206.102 124.192V125.176Z" fill="white"/>
<path d="M251.38 1H34.6C16.0432 1 1 16.0432 1 34.6V140.86C1 159.417 16.0432 174.46 34.6 174.46H251.38C269.937 174.46 284.98 159.417 284.98 140.86V34.6C284.98 16.0432 269.937 1 251.38 1Z" fill="#0ABE53" stroke="#00112C" stroke-width="2" stroke-linecap="round" stroke-linejoin="round"/>
<path fill-rule="evenodd" clip-rule="evenodd" d="M143 41.5C130.574 41.5 120.5 51.5736 120.5 64C120.5 76.4264 130.574 86.5 143 86.5C155.426 86.5 165.5 76.4264 165.5 64C165.5 51.5736 155.426 41.5 143 41.5ZM125.514 63.2884C125.888 53.9533 133.573 46.5 143 46.5C147.891 46.5 152.314 48.5068 155.49 51.742C154.693 51.5832 153.869 51.5 153.024 51.5C146.111 51.5 140.574 57.0775 140.574 63.975L140.575 64.0024L140.575 64.025C140.575 68.1693 137.244 71.5 133.1 71.5C128.959 71.5 125.625 68.1484 125.625 64.025C125.625 63.7686 125.586 63.5212 125.514 63.2884ZM130.478 76.2247C133.656 79.4794 138.092 81.5 143 81.5C152.656 81.5 160.486 73.6792 160.5 64.0264C160.5 64.0093 160.499 63.9922 160.499 63.975C160.499 59.8307 157.169 56.5 153.024 56.5C148.888 56.5 145.574 59.8225 145.574 63.975L145.574 63.9976L145.575 64.025C145.575 70.9307 140.005 76.5 133.1 76.5C132.2 76.5 131.323 76.4051 130.478 76.2247Z" fill="#00112C"/>
<path d="M31 123.84C31 129.32 34.84 132.48 42.16 132.48C49.56 132.48 53.72 128.92 53.72 123.8C53.72 118 49.04 116.72 44.68 115.88L42.84 115.56C39.36 114.92 36.8 114.32 36.8 111.76C36.8 109.24 39.16 108 42.24 108C45.32 108 47.6 109.36 47.6 112.24H52.84C52.84 107.08 48.64 104 42.24 104C35.68 104 31.48 107.6 31.48 112.28C31.48 118.24 36.4 119.48 40.92 120.24L42.76 120.56C45.96 121.08 48.24 121.92 48.24 124.32C48.24 127 46.16 128.48 42.16 128.48C38.6 128.48 36.24 126.84 36.24 123.84H31ZM56.8388 122.24C56.8388 128.76 60.9588 132.48 67.1988 132.48C73.1188 132.48 77.5188 128.64 77.5188 122.24C77.5188 115.72 73.3988 112 67.1988 112C61.2388 112 56.8388 115.84 56.8388 122.24ZM62.1588 122.24C62.1588 118.36 64.1588 115.96 67.1988 115.96C70.2388 115.96 72.1988 118.24 72.1988 122.24C72.1988 126.12 70.2388 128.56 67.1988 128.56C64.1588 128.56 62.1588 126.12 62.1588 122.24ZM81.1097 124.32C81.1097 130.4 84.6297 132.48 88.6297 132.48C91.3497 132.48 93.4297 131.4 94.5497 129.2H94.7097V132H99.5897V112.48H94.4697V122.8C94.4697 126.44 92.6297 128.48 90.0697 128.48C87.8297 128.48 86.2697 127.32 86.2697 123.68V112.48H81.1097V124.32ZM105.539 125.6C105.539 130.24 107.539 132 112.619 132H115.499V127.84H113.259C111.339 127.84 110.659 127.12 110.659 125.4V116.32H115.499V112.48H110.659V106.56H105.539V112.48H101.859V116.32H105.539V125.6ZM118.872 132H124.032V121.6C124.032 118.08 125.952 116 128.512 116C130.792 116 132.312 117.2 132.312 120.8V132H137.472V120.16C137.472 114.08 133.952 112 129.952 112C127.192 112 125.072 113.12 123.952 115.28H123.792C124.032 112.68 124.032 110.04 124.032 108.72V102.72H118.872V132ZM151.246 132H156.606V123.88L160.286 119.96L169.366 132H175.526L163.726 116.32L174.886 104.48H168.686L156.606 117.52V104.48H151.246V132ZM175.767 122.24C175.767 128.76 179.887 132.48 186.127 132.48C192.047 132.48 196.447 128.64 196.447 122.24C196.447 115.72 192.327 112 186.127 112C180.167 112 175.767 115.84 175.767 122.24ZM181.087 122.24C181.087 118.36 183.087 115.96 186.127 115.96C189.167 115.96 191.127 118.24 191.127 122.24C191.127 126.12 189.167 128.56 186.127 128.56C183.087 128.56 181.087 126.12 181.087 122.24ZM200.358 132H205.518V122.68C205.518 119.24 206.918 116.6 209.838 116.6C210.598 116.6 211.398 116.8 212.238 117.24L213.278 112.8C212.278 112.12 211.358 112 210.558 112C207.998 112 206.318 113.36 205.358 115.44H205.278V112.48H200.358V132ZM213.91 122.32C213.91 128.88 217.67 132.48 224.11 132.48C229.87 132.48 232.75 129.48 233.39 125.92H228.47C228.03 127.4 226.75 128.72 224.19 128.72C221.31 128.72 219.31 126.84 219.15 123.16H233.59V121.72C233.59 115.48 229.91 112 224.03 112C218.07 112 213.91 116 213.91 122.32ZM224.03 115.76C226.63 115.76 228.07 117.2 228.39 120.04H219.31C219.83 117.32 221.51 115.76 224.03 115.76ZM236.289 126.84C236.289 130.2 238.649 132.32 242.849 132.32C246.209 132.32 248.329 131.16 249.249 129.08H249.409V132H254.329V119.2C254.329 114.52 251.489 112 245.689 112C240.729 112 237.369 114.44 237.049 118.8H241.849C242.009 116.84 243.289 115.6 245.689 115.6C248.089 115.6 249.169 117 249.169 118.64C249.169 119.84 248.729 119.96 246.689 120.28L242.769 120.84C238.249 121.48 236.289 123.32 236.289 126.84ZM249.169 123.96C249.169 127.16 246.889 128.72 244.209 128.72C242.409 128.72 241.369 127.8 241.369 126.24C241.369 124.88 242.329 124.04 244.249 123.72L247.249 123.24C248.169 123.08 248.809 122.8 249.169 122.32V123.96Z" fill="#00112C"/>
</svg>
