<svg width="286" height="176" viewBox="0 0 286 176" fill="none" xmlns="http://www.w3.org/2000/svg">
<path d="M251.38 1H34.6C16.0432 1 1 16.0432 1 34.6V140.86C1 159.417 16.0432 174.46 34.6 174.46H251.38C269.937 174.46 284.98 159.417 284.98 140.86V34.6C284.98 16.0432 269.937 1 251.38 1Z" fill="#00112C" stroke="#00112C" stroke-width="2" stroke-linecap="round" stroke-linejoin="round"/>
<path d="M86.2 125.104C86.2 128.392 88.504 130.288 92.896 130.288C97.336 130.288 99.832 128.152 99.832 125.08C99.832 121.6 97.024 120.832 94.408 120.328L93.304 120.136C91.216 119.752 89.68 119.392 89.68 117.856C89.68 116.344 91.096 115.6 92.944 115.6C94.792 115.6 96.16 116.416 96.16 118.144H99.304C99.304 115.048 96.784 113.2 92.944 113.2C89.008 113.2 86.488 115.36 86.488 118.168C86.488 121.744 89.44 122.488 92.152 122.944L93.256 123.136C95.176 123.448 96.544 123.952 96.544 125.392C96.544 127 95.296 127.888 92.896 127.888C90.76 127.888 89.344 126.904 89.344 125.104H86.2ZM102.375 115.312H105.663V112.432H102.375V115.312ZM102.471 130H105.567V118.288H102.471V130ZM108.677 130H111.773V123.832C111.773 121.648 112.925 120.4 114.461 120.4C115.829 120.4 116.741 121.144 116.741 123.28V130H119.837V122.896C119.837 119.248 117.725 118 115.325 118C113.693 118 112.397 118.648 111.725 119.968H111.629V118.288H108.677V130ZM122.372 131.296C122.444 134.128 124.724 135.472 127.988 135.472C131.732 135.472 134.204 133.72 134.204 129.328V118.288H131.252V119.968H131.156C130.46 118.648 129.26 118 127.508 118C124.508 118 122.036 120.304 122.036 124.24C122.036 128.176 124.364 130.288 127.316 130.288C129.14 130.288 130.484 129.64 131.156 128.32H131.252V129.328C131.252 132.208 130.076 133.312 128.036 133.312C126.404 133.312 125.348 132.568 125.276 131.296H122.372ZM125.228 124.24C125.228 121.864 126.404 120.352 128.156 120.352C129.884 120.352 131.108 121.792 131.108 124.192C131.108 126.52 129.884 127.936 128.156 127.936C126.404 127.936 125.228 126.616 125.228 124.24ZM136.564 126.904C136.564 128.92 137.98 130.192 140.5 130.192C142.516 130.192 143.788 129.496 144.34 128.248H144.436V130H147.388V122.32C147.388 119.512 145.684 118 142.204 118C139.228 118 137.212 119.464 137.02 122.08H139.9C139.996 120.904 140.764 120.16 142.204 120.16C143.644 120.16 144.292 121 144.292 121.984C144.292 122.704 144.028 122.776 142.804 122.968L140.452 123.304C137.74 123.688 136.564 124.792 136.564 126.904ZM144.292 125.176C144.292 127.096 142.924 128.032 141.316 128.032C140.236 128.032 139.612 127.48 139.612 126.544C139.612 125.728 140.188 125.224 141.34 125.032L143.14 124.744C143.692 124.648 144.076 124.48 144.292 124.192V125.176ZM153.451 132.256C153.451 131.464 153.451 129.856 153.307 128.32H153.403C154.099 129.64 155.299 130.288 157.051 130.288C160.051 130.288 162.523 127.984 162.523 124.048C162.523 120.112 160.195 118 157.243 118C155.419 118 154.075 118.648 153.403 119.968H153.307V118.288H150.355V135.28H153.451V132.256ZM159.355 124.048C159.355 126.424 158.155 127.936 156.427 127.936C154.675 127.936 153.451 126.52 153.451 124.144V123.976C153.523 121.696 154.699 120.352 156.427 120.352C158.155 120.352 159.355 121.672 159.355 124.048ZM164.253 124.144C164.253 128.056 166.725 130.288 170.469 130.288C174.021 130.288 176.661 127.984 176.661 124.144C176.661 120.232 174.189 118 170.469 118C166.893 118 164.253 120.304 164.253 124.144ZM167.445 124.144C167.445 121.816 168.645 120.376 170.469 120.376C172.293 120.376 173.469 121.744 173.469 124.144C173.469 126.472 172.293 127.936 170.469 127.936C168.645 127.936 167.445 126.472 167.445 124.144ZM179.008 130H182.104V124.408C182.104 122.344 182.944 120.76 184.696 120.76C185.152 120.76 185.632 120.88 186.136 121.144L186.76 118.48C186.16 118.072 185.608 118 185.128 118C183.592 118 182.584 118.816 182.008 120.064H181.96V118.288H179.008V130ZM187.139 124.192C187.139 128.128 189.395 130.288 193.259 130.288C196.715 130.288 198.443 128.488 198.827 126.352H195.875C195.611 127.24 194.843 128.032 193.307 128.032C191.579 128.032 190.379 126.904 190.283 124.696H198.947V123.832C198.947 120.088 196.739 118 193.211 118C189.635 118 187.139 120.4 187.139 124.192ZM193.211 120.256C194.771 120.256 195.635 121.12 195.827 122.824H190.379C190.691 121.192 191.699 120.256 193.211 120.256Z" fill="white"/>
<path fill-rule="evenodd" clip-rule="evenodd" d="M120.5 47.5C119.119 47.5 118 48.6193 118 50V90C118 91.3807 119.119 92.5 120.5 92.5H130.5C131.881 92.5 133 91.3807 133 90V62.5H135.5V90C135.5 91.3807 136.619 92.5 138 92.5H148C149.381 92.5 150.5 91.3807 150.5 90V62.5H153V90C153 91.3807 154.119 92.5 155.5 92.5H165.5C166.881 92.5 168 91.3807 168 90V50C168 48.6193 166.881 47.5 165.5 47.5H155.5C154.119 47.5 153 48.6193 153 50V57.5H133V50C133 48.6193 131.881 47.5 130.5 47.5H120.5ZM128 57.5V52.5H123V57.5H128ZM123 62.5V87.5H128V62.5H123ZM158 62.5V87.5H163V62.5H158ZM163 57.5H158V52.5H163V57.5ZM145.5 62.5H140.5V87.5H145.5V62.5Z" fill="white"/>
</svg>
