<svg width="286" height="176" viewBox="0 0 286 176" fill="none" xmlns="http://www.w3.org/2000/svg">
<path d="M251.38 1H34.6C16.0432 1 1 16.0432 1 34.6V140.86C1 159.417 16.0432 174.46 34.6 174.46H251.38C269.937 174.46 284.98 159.417 284.98 140.86V34.6C284.98 16.0432 269.937 1 251.38 1Z" fill="#0ABE53" stroke="#00112C" stroke-width="2" stroke-linecap="round" stroke-linejoin="round"/>
<path d="M49 123.84C49 129.32 52.84 132.48 60.16 132.48C67.56 132.48 71.72 128.92 71.72 123.8C71.72 118 67.04 116.72 62.68 115.88L60.84 115.56C57.36 114.92 54.8 114.32 54.8 111.76C54.8 109.24 57.16 108 60.24 108C63.32 108 65.6 109.36 65.6 112.24H70.84C70.84 107.08 66.64 104 60.24 104C53.68 104 49.48 107.6 49.48 112.28C49.48 118.24 54.4 119.48 58.92 120.24L60.76 120.56C63.96 121.08 66.24 121.92 66.24 124.32C66.24 127 64.16 128.48 60.16 128.48C56.6 128.48 54.24 126.84 54.24 123.84H49ZM75.9588 107.52H81.4388V102.72H75.9588V107.52ZM76.1188 132H81.2788V112.48H76.1188V132ZM86.4609 132H91.6209V121.72C91.6209 118.08 93.5409 116 96.1009 116C98.3809 116 99.9009 117.24 99.9009 120.8V132H105.061V120.16C105.061 114.08 101.541 112 97.5409 112C94.8209 112 92.6609 113.08 91.5409 115.28H91.3809V112.48H86.4609V132ZM109.286 134.16C109.406 138.88 113.206 141.12 118.646 141.12C124.886 141.12 129.006 138.2 129.006 130.88V112.48H124.086V115.28H123.926C122.766 113.08 120.766 112 117.846 112C112.846 112 108.726 115.84 108.726 122.4C108.726 128.96 112.606 132.48 117.526 132.48C120.566 132.48 122.806 131.4 123.926 129.2H124.086V130.88C124.086 135.68 122.126 137.52 118.726 137.52C116.006 137.52 114.246 136.28 114.126 134.16H109.286ZM114.046 122.4C114.046 118.44 116.006 115.92 118.926 115.92C121.806 115.92 123.846 118.32 123.846 122.32C123.846 126.2 121.806 128.56 118.926 128.56C116.006 128.56 114.046 126.36 114.046 122.4ZM132.939 126.84C132.939 130.2 135.299 132.32 139.499 132.32C142.859 132.32 144.979 131.16 145.899 129.08H146.059V132H150.979V119.2C150.979 114.52 148.139 112 142.339 112C137.379 112 134.019 114.44 133.699 118.8H138.499C138.659 116.84 139.939 115.6 142.339 115.6C144.739 115.6 145.819 117 145.819 118.64C145.819 119.84 145.379 119.96 143.339 120.28L139.419 120.84C134.899 121.48 132.939 123.32 132.939 126.84ZM145.819 123.96C145.819 127.16 143.539 128.72 140.859 128.72C139.059 128.72 138.019 127.8 138.019 126.24C138.019 124.88 138.979 124.04 140.899 123.72L143.899 123.24C144.819 123.08 145.459 122.8 145.819 122.32V123.96ZM161.085 135.76C161.085 134.44 161.085 131.76 160.845 129.2H161.005C162.165 131.4 164.165 132.48 167.085 132.48C172.085 132.48 176.205 128.64 176.205 122.08C176.205 115.52 172.325 112 167.405 112C164.365 112 162.125 113.08 161.005 115.28H160.845V112.48H155.925V140.8H161.085V135.76ZM170.925 122.08C170.925 126.04 168.925 128.56 166.045 128.56C163.125 128.56 161.085 126.2 161.085 122.24V121.96C161.205 118.16 163.165 115.92 166.045 115.92C168.925 115.92 170.925 118.12 170.925 122.08ZM179.089 122.24C179.089 128.76 183.209 132.48 189.449 132.48C195.369 132.48 199.769 128.64 199.769 122.24C199.769 115.72 195.649 112 189.449 112C183.489 112 179.089 115.84 179.089 122.24ZM184.409 122.24C184.409 118.36 186.409 115.96 189.449 115.96C192.489 115.96 194.449 118.24 194.449 122.24C194.449 126.12 192.489 128.56 189.449 128.56C186.409 128.56 184.409 126.12 184.409 122.24ZM203.68 132H208.84V122.68C208.84 119.24 210.24 116.6 213.16 116.6C213.92 116.6 214.72 116.8 215.56 117.24L216.6 112.8C215.6 112.12 214.68 112 213.88 112C211.32 112 209.64 113.36 208.68 115.44H208.6V112.48H203.68V132ZM217.232 122.32C217.232 128.88 220.992 132.48 227.432 132.48C233.192 132.48 236.072 129.48 236.712 125.92H231.792C231.352 127.4 230.072 128.72 227.512 128.72C224.632 128.72 222.632 126.84 222.472 123.16H236.912V121.72C236.912 115.48 233.232 112 227.352 112C221.392 112 217.232 116 217.232 122.32ZM227.352 115.76C229.952 115.76 231.392 117.2 231.712 120.04H222.632C223.152 117.32 224.832 115.76 227.352 115.76Z" fill="#00112C"/>
<path fill-rule="evenodd" clip-rule="evenodd" d="M120.5 41.5C119.119 41.5 118 42.6193 118 44V84C118 85.3807 119.119 86.5 120.5 86.5H130.5C131.881 86.5 133 85.3807 133 84V56.5H135.5V84C135.5 85.3807 136.619 86.5 138 86.5H148C149.381 86.5 150.5 85.3807 150.5 84V56.5H153V84C153 85.3807 154.119 86.5 155.5 86.5H165.5C166.881 86.5 168 85.3807 168 84V44C168 42.6193 166.881 41.5 165.5 41.5H155.5C154.119 41.5 153 42.6193 153 44V51.5H133V44C133 42.6193 131.881 41.5 130.5 41.5H120.5ZM128 51.5V46.5H123V51.5H128ZM123 56.5V81.5H128V56.5H123ZM158 56.5V81.5H163V56.5H158ZM163 51.5H158V46.5H163V51.5ZM145.5 56.5H140.5V81.5H145.5V56.5Z" fill="#00112C"/>
</svg>
