<svg width="286" height="176" viewBox="0 0 286 176" fill="none" xmlns="http://www.w3.org/2000/svg">
<path d="M251.38 1H34.6C16.0432 1 1 16.0432 1 34.6V140.86C1 159.417 16.0432 174.46 34.6 174.46H251.38C269.937 174.46 284.98 159.417 284.98 140.86V34.6C284.98 16.0432 269.937 1 251.38 1Z" fill="#79DBA0" stroke="#00112C" stroke-width="2" stroke-linecap="round" stroke-linejoin="round"/>
<path d="M117.342 125.104C117.342 128.392 119.646 130.288 124.038 130.288C128.478 130.288 130.974 128.152 130.974 125.08C130.974 121.6 128.166 120.832 125.55 120.328L124.446 120.136C122.358 119.752 120.822 119.392 120.822 117.856C120.822 116.344 122.238 115.6 124.086 115.6C125.934 115.6 127.302 116.416 127.302 118.144H130.446C130.446 115.048 127.926 113.2 124.086 113.2C120.15 113.2 117.63 115.36 117.63 118.168C117.63 121.744 120.582 122.488 123.294 122.944L124.398 123.136C126.318 123.448 127.686 123.952 127.686 125.392C127.686 127 126.438 127.888 124.038 127.888C121.902 127.888 120.486 126.904 120.486 125.104H117.342ZM146.554 130H148.594V121.096H141.274V123.544H145.738V123.808C145.738 126.16 143.626 127.528 141.226 127.528C138.154 127.528 136.114 125.176 136.114 121.744C136.114 118.312 138.154 115.96 141.226 115.96C143.65 115.96 144.922 117.208 145.378 118.696H148.594C148.018 115.6 145.402 113.2 141.226 113.2C136.138 113.2 132.802 116.8 132.802 121.744C132.802 126.712 135.994 130.288 141.01 130.288C143.386 130.288 144.97 129.544 146.098 128.008H146.194L146.554 130ZM152.153 130H157.937C163.745 130 166.793 126.52 166.793 121.744C166.793 116.968 163.745 113.488 157.937 113.488H152.153V130ZM157.817 116.152C161.945 116.152 163.481 118.744 163.481 121.744C163.481 124.744 161.945 127.336 157.817 127.336H155.369V116.152H157.817Z" fill="#00112C"/>
<path d="M113.652 83.188C113.652 90.449 118.74 94.636 128.439 94.636C138.244 94.636 143.756 89.919 143.756 83.135C143.756 75.45 137.555 73.754 131.778 72.641L129.34 72.217C124.729 71.369 121.337 70.574 121.337 67.182C121.337 63.843 124.464 62.2 128.545 62.2C132.626 62.2 135.647 64.002 135.647 67.818H142.59C142.59 60.981 137.025 56.9 128.545 56.9C119.853 56.9 114.288 61.67 114.288 67.871C114.288 75.768 120.807 77.411 126.796 78.418L129.234 78.842C133.474 79.531 136.495 80.644 136.495 83.824C136.495 87.375 133.739 89.336 128.439 89.336C123.722 89.336 120.595 87.163 120.595 83.188H113.652ZM147.624 83.612C147.836 89.707 151.599 93.629 158.012 94.477V100.36H163.418V94.424C169.831 93.576 173.806 89.495 173.806 83.347C173.806 77.782 170.573 74.761 164.849 73.118L160.45 71.793C157.058 70.786 155.309 69.726 155.309 66.758C155.309 63.578 157.747 62.094 160.715 62.094C163.524 62.094 165.803 63.578 166.227 67.023H172.852C172.481 61.67 168.771 58.013 163.418 57.112V51.388H158.012V57.112C152.076 58.119 148.366 62.041 148.366 67.553C148.366 74.072 153.242 76.669 156.899 77.782L161.298 79.054C164.637 80.061 166.863 81.227 166.863 84.248C166.863 87.693 164.372 89.548 160.715 89.548C157.111 89.548 154.567 87.481 154.355 83.612H147.624Z" fill="#00112C"/>
</svg>
