<svg width="286" height="176" viewBox="0 0 286 176" fill="none" xmlns="http://www.w3.org/2000/svg">
<path d="M251.38 1H34.6C16.0432 1 1 16.0432 1 34.6V140.86C1 159.417 16.0432 174.46 34.6 174.46H251.38C269.937 174.46 284.98 159.417 284.98 140.86V34.6C284.98 16.0432 269.937 1 251.38 1Z" fill="#79DBA0" stroke="#00112C" stroke-width="2" stroke-linecap="round" stroke-linejoin="round"/>
<path d="M101.404 126.84C101.404 132.32 105.244 135.48 112.564 135.48C119.964 135.48 124.124 131.92 124.124 126.8C124.124 121 119.444 119.72 115.084 118.88L113.244 118.56C109.764 117.92 107.204 117.32 107.204 114.76C107.204 112.24 109.564 111 112.644 111C115.724 111 118.004 112.36 118.004 115.24H123.244C123.244 110.08 119.044 107 112.644 107C106.084 107 101.884 110.6 101.884 115.28C101.884 121.24 106.804 122.48 111.324 123.24L113.164 123.56C116.364 124.08 118.644 124.92 118.644 127.32C118.644 130 116.564 131.48 112.564 131.48C109.004 131.48 106.644 129.84 106.644 126.84H101.404ZM150.09 135H153.49V120.16H141.29V124.24H148.73V124.68C148.73 128.6 145.21 130.88 141.21 130.88C136.09 130.88 132.69 126.96 132.69 121.24C132.69 115.52 136.09 111.6 141.21 111.6C145.25 111.6 147.37 113.68 148.13 116.16H153.49C152.53 111 148.17 107 141.21 107C132.73 107 127.17 113 127.17 121.24C127.17 129.52 132.49 135.48 140.85 135.48C144.81 135.48 147.45 134.24 149.33 131.68H149.49L150.09 135ZM159.422 135H169.062C178.742 135 183.822 129.2 183.822 121.24C183.822 113.28 178.742 107.48 169.062 107.48H159.422V135ZM168.862 111.92C175.742 111.92 178.302 116.24 178.302 121.24C178.302 126.24 175.742 130.56 168.862 130.56H164.782V111.92H168.862Z" fill="#00112C"/>
<path d="M113.652 83.188C113.652 90.449 118.74 94.636 128.439 94.636C138.244 94.636 143.756 89.919 143.756 83.135C143.756 75.45 137.555 73.754 131.778 72.641L129.34 72.217C124.729 71.369 121.337 70.574 121.337 67.182C121.337 63.843 124.464 62.2 128.545 62.2C132.626 62.2 135.647 64.002 135.647 67.818H142.59C142.59 60.981 137.025 56.9 128.545 56.9C119.853 56.9 114.288 61.67 114.288 67.871C114.288 75.768 120.807 77.411 126.796 78.418L129.234 78.842C133.474 79.531 136.495 80.644 136.495 83.824C136.495 87.375 133.739 89.336 128.439 89.336C123.722 89.336 120.595 87.163 120.595 83.188H113.652ZM147.624 83.612C147.836 89.707 151.599 93.629 158.012 94.477V100.36H163.418V94.424C169.831 93.576 173.806 89.495 173.806 83.347C173.806 77.782 170.573 74.761 164.849 73.118L160.45 71.793C157.058 70.786 155.309 69.726 155.309 66.758C155.309 63.578 157.747 62.094 160.715 62.094C163.524 62.094 165.803 63.578 166.227 67.023H172.852C172.481 61.67 168.771 58.013 163.418 57.112V51.388H158.012V57.112C152.076 58.119 148.366 62.041 148.366 67.553C148.366 74.072 153.242 76.669 156.899 77.782L161.298 79.054C164.637 80.061 166.863 81.227 166.863 84.248C166.863 87.693 164.372 89.548 160.715 89.548C157.111 89.548 154.567 87.481 154.355 83.612H147.624Z" fill="#00112C"/>
</svg>
