<svg width="286" height="176" viewBox="0 0 286 176" fill="none" xmlns="http://www.w3.org/2000/svg">
<path d="M251.38 1H34.6C16.0432 1 1 16.0432 1 34.6V140.86C1 159.417 16.0432 174.46 34.6 174.46H251.38C269.937 174.46 284.98 159.417 284.98 140.86V34.6C284.98 16.0432 269.937 1 251.38 1Z" fill="white" stroke="#00112C" stroke-width="2" stroke-linecap="round" stroke-linejoin="round"/>
<path d="M104.192 116.176H109.784V130H113V116.176H118.592V113.488H104.192V116.176ZM116.885 126.904C116.885 128.92 118.301 130.192 120.821 130.192C122.837 130.192 124.109 129.496 124.661 128.248H124.757V130H127.709V122.32C127.709 119.512 126.005 118 122.525 118C119.549 118 117.533 119.464 117.341 122.08H120.221C120.317 120.904 121.085 120.16 122.525 120.16C123.965 120.16 124.613 121 124.613 121.984C124.613 122.704 124.349 122.776 123.125 122.968L120.773 123.304C118.061 123.688 116.885 124.792 116.885 126.904ZM124.613 125.176C124.613 127.096 123.245 128.032 121.637 128.032C120.557 128.032 119.933 127.48 119.933 126.544C119.933 125.728 120.509 125.224 121.661 125.032L123.461 124.744C124.013 124.648 124.397 124.48 124.613 124.192V125.176ZM130.581 115.312H133.869V112.432H130.581V115.312ZM130.677 130H133.773V118.288H130.677V130ZM138.754 130H142.21L144.466 121.456H144.562L146.794 130H150.274L153.682 118.288H150.682L148.546 126.952H148.45L146.074 118.288H143.05L140.674 126.952H140.578L138.442 118.288H135.346L138.754 130ZM154.462 126.904C154.462 128.92 155.878 130.192 158.398 130.192C160.414 130.192 161.686 129.496 162.238 128.248H162.334V130H165.286V122.32C165.286 119.512 163.582 118 160.102 118C157.126 118 155.11 119.464 154.918 122.08H157.798C157.894 120.904 158.662 120.16 160.102 120.16C161.542 120.16 162.19 121 162.19 121.984C162.19 122.704 161.926 122.776 160.702 122.968L158.35 123.304C155.638 123.688 154.462 124.792 154.462 126.904ZM162.19 125.176C162.19 127.096 160.822 128.032 159.214 128.032C158.134 128.032 157.51 127.48 157.51 126.544C157.51 125.728 158.086 125.224 159.238 125.032L161.038 124.744C161.59 124.648 161.974 124.48 162.19 124.192V125.176ZM168.253 130H171.349V123.832C171.349 121.648 172.501 120.4 174.037 120.4C175.405 120.4 176.317 121.144 176.317 123.28V130H179.413V122.896C179.413 119.248 177.301 118 174.901 118C173.269 118 171.973 118.648 171.301 119.968H171.205V118.288H168.253V130Z" fill="#00112C"/>
<path fill-rule="evenodd" clip-rule="evenodd" d="M138 87.5C139.381 87.5 140.5 86.3807 140.5 85C140.5 83.6193 139.381 82.5 138 82.5C136.619 82.5 135.5 83.6193 135.5 85C135.5 86.3807 136.619 87.5 138 87.5Z" fill="#00112C"/>
<path fill-rule="evenodd" clip-rule="evenodd" d="M148 82.5C149.381 82.5 150.5 81.3807 150.5 80C150.5 78.6193 149.381 77.5 148 77.5C146.619 77.5 145.5 78.6193 145.5 80C145.5 81.3807 146.619 82.5 148 82.5Z" fill="#00112C"/>
<path fill-rule="evenodd" clip-rule="evenodd" d="M143 75C143 76.3807 141.881 77.5 140.5 77.5C139.119 77.5 138 76.3807 138 75C138 73.6193 139.119 72.5 140.5 72.5C141.881 72.5 143 73.6193 143 75Z" fill="#00112C"/>
<path fill-rule="evenodd" clip-rule="evenodd" d="M155.5 47.5C155.5 46.1193 154.381 45 153 45C151.619 45 150.5 46.1193 150.5 47.5V60H123C121.619 60 120.5 61.1193 120.5 62.5C120.5 63.8807 121.619 65 123 65H125.882L130.534 92.911C130.735 94.1165 131.778 95 133 95H153C154.222 95 155.265 94.1165 155.466 92.911L160.118 65H163C164.381 65 165.5 63.8807 165.5 62.5C165.5 61.1193 164.381 60 163 60H155.5V47.5ZM130.951 65H155.049L150.882 90H148C148 88.6193 146.881 87.5 145.5 87.5C144.119 87.5 143 88.6193 143 90H135.118L130.951 65Z" fill="#00112C"/>
</svg>
