<svg width="286" height="176" viewBox="0 0 286 176" fill="none" xmlns="http://www.w3.org/2000/svg">
<path d="M251.38 1H34.6C16.0432 1 1 16.0432 1 34.6V140.86C1 159.417 16.0432 174.46 34.6 174.46H251.38C269.937 174.46 284.98 159.417 284.98 140.86V34.6C284.98 16.0432 269.937 1 251.38 1Z" fill="white" stroke="#00112C" stroke-width="2" stroke-linecap="round" stroke-linejoin="round"/>
<path d="M78.32 108.96H87.64V132H93V108.96H102.32V104.48H78.32V108.96ZM99.4753 126.84C99.4753 130.2 101.835 132.32 106.035 132.32C109.395 132.32 111.515 131.16 112.435 129.08H112.595V132H117.515V119.2C117.515 114.52 114.675 112 108.875 112C103.915 112 100.555 114.44 100.235 118.8H105.035C105.195 116.84 106.475 115.6 108.875 115.6C111.275 115.6 112.355 117 112.355 118.64C112.355 119.84 111.915 119.96 109.875 120.28L105.955 120.84C101.435 121.48 99.4753 123.32 99.4753 126.84ZM112.355 123.96C112.355 127.16 110.075 128.72 107.395 128.72C105.595 128.72 104.555 127.8 104.555 126.24C104.555 124.88 105.515 124.04 107.435 123.72L110.435 123.24C111.355 123.08 111.995 122.8 112.355 122.32V123.96ZM122.301 107.52H127.781V102.72H122.301V107.52ZM122.461 132H127.621V112.48H122.461V132ZM135.923 132H141.683L145.443 117.76H145.603L149.323 132H155.123L160.803 112.48H155.803L152.243 126.92H152.083L148.123 112.48H143.083L139.123 126.92H138.963L135.403 112.48H130.243L135.923 132ZM162.103 126.84C162.103 130.2 164.463 132.32 168.663 132.32C172.023 132.32 174.143 131.16 175.063 129.08H175.223V132H180.143V119.2C180.143 114.52 177.303 112 171.503 112C166.543 112 163.183 114.44 162.863 118.8H167.663C167.823 116.84 169.103 115.6 171.503 115.6C173.903 115.6 174.983 117 174.983 118.64C174.983 119.84 174.543 119.96 172.503 120.28L168.583 120.84C164.063 121.48 162.103 123.32 162.103 126.84ZM174.983 123.96C174.983 127.16 172.703 128.72 170.023 128.72C168.223 128.72 167.183 127.8 167.183 126.24C167.183 124.88 168.143 124.04 170.063 123.72L173.063 123.24C173.983 123.08 174.623 122.8 174.983 122.32V123.96ZM185.089 132H190.249V121.72C190.249 118.08 192.169 116 194.729 116C197.009 116 198.529 117.24 198.529 120.8V132H203.689V120.16C203.689 114.08 200.169 112 196.169 112C193.449 112 191.289 113.08 190.169 115.28H190.009V112.48H185.089V132Z" fill="#00112C"/>
<path fill-rule="evenodd" clip-rule="evenodd" d="M138 81.5C139.381 81.5 140.5 80.3807 140.5 79C140.5 77.6193 139.381 76.5 138 76.5C136.619 76.5 135.5 77.6193 135.5 79C135.5 80.3807 136.619 81.5 138 81.5Z" fill="#00112C"/>
<path fill-rule="evenodd" clip-rule="evenodd" d="M148 76.5C149.381 76.5 150.5 75.3807 150.5 74C150.5 72.6193 149.381 71.5 148 71.5C146.619 71.5 145.5 72.6193 145.5 74C145.5 75.3807 146.619 76.5 148 76.5Z" fill="#00112C"/>
<path fill-rule="evenodd" clip-rule="evenodd" d="M143 69C143 70.3807 141.881 71.5 140.5 71.5C139.119 71.5 138 70.3807 138 69C138 67.6193 139.119 66.5 140.5 66.5C141.881 66.5 143 67.6193 143 69Z" fill="#00112C"/>
<path fill-rule="evenodd" clip-rule="evenodd" d="M155.5 41.5C155.5 40.1193 154.381 39 153 39C151.619 39 150.5 40.1193 150.5 41.5V54H123C121.619 54 120.5 55.1193 120.5 56.5C120.5 57.8807 121.619 59 123 59H125.882L130.534 86.911C130.735 88.1165 131.778 89 133 89H153C154.222 89 155.265 88.1165 155.466 86.911L160.118 59H163C164.381 59 165.5 57.8807 165.5 56.5C165.5 55.1193 164.381 54 163 54H155.5V41.5ZM130.951 59H155.049L150.882 84H148C148 82.6193 146.881 81.5 145.5 81.5C144.119 81.5 143 82.6193 143 84H135.118L130.951 59Z" fill="#00112C"/>
</svg>
