<svg width="286" height="176" viewBox="0 0 286 176" fill="none" xmlns="http://www.w3.org/2000/svg">
<path d="M251.38 1H34.6C16.0432 1 1 16.0432 1 34.6V140.86C1 159.417 16.0432 174.46 34.6 174.46H251.38C269.937 174.46 284.98 159.417 284.98 140.86V34.6C284.98 16.0432 269.937 1 251.38 1Z" fill="white" stroke="#00112C" stroke-width="2" stroke-linecap="round" stroke-linejoin="round"/>
<path d="M124.755 130H127.995V123.592L134.163 113.488H130.755L126.483 120.592H126.387L122.331 113.488H118.683L124.755 123.688V130ZM136.108 130H148.3V127.336H139.324V122.848H146.38V120.304H139.324V116.152H148.084V113.488H136.108V130ZM151.22 130H154.436L154.34 118.96H154.436L162.764 130H165.62V113.488H162.404L162.5 124.528H162.404L154.124 113.488H151.22V130Z" fill="#00112C"/>
<path d="M98.2691 76.188C98.2691 84.456 103.145 87.636 110.141 87.636C117.402 87.636 122.119 84.403 122.119 75.658V50.536H114.964V75.817C114.964 80.269 113.056 81.753 110.141 81.753C107.226 81.753 105.265 80.322 105.265 76.135V74.439H98.2691V76.188ZM129.574 87H136.676V75.075H145.262C153.954 75.075 158.777 69.828 158.777 62.567C158.777 55.465 153.954 50.536 145.262 50.536H129.574V87ZM144.626 56.26C149.29 56.26 151.569 58.857 151.569 62.673C151.569 66.542 149.29 69.351 144.626 69.351H136.676V56.26H144.626ZM164.862 74.651H172.176V78.096H164.862V81.647H172.176V87H178.96V81.647H186.274V78.096H178.96V74.651H186.274V71.1H179.013L190.567 50.536H183.253L175.833 64.475H175.621L168.413 50.536H160.569L172.123 71.1H164.862V74.651Z" fill="#00112C"/>
<path d="M251.38 1H34.6C16.0432 1 1 16.0432 1 34.6V140.86C1 159.417 16.0432 174.46 34.6 174.46H251.38C269.937 174.46 284.98 159.417 284.98 140.86V34.6C284.98 16.0432 269.937 1 251.38 1Z" fill="white" stroke="#00112C" stroke-width="2" stroke-linecap="round" stroke-linejoin="round"/>
<path d="M104.1 123.96C104.1 132.48 109.06 135.48 115.98 135.48C122.9 135.48 127.82 132.48 127.82 123.96V107.48H122.42V123.88C122.42 128.4 120.3 130.88 115.98 130.88C111.62 130.88 109.5 128.4 109.5 123.88V107.48H104.1V123.96ZM131.887 126.84C131.887 132.32 135.727 135.48 143.047 135.48C150.447 135.48 154.607 131.92 154.607 126.8C154.607 121 149.927 119.72 145.567 118.88L143.727 118.56C140.247 117.92 137.687 117.32 137.687 114.76C137.687 112.24 140.047 111 143.127 111C146.207 111 148.487 112.36 148.487 115.24H153.727C153.727 110.08 149.527 107 143.127 107C136.567 107 132.367 110.6 132.367 115.28C132.367 121.24 137.287 122.48 141.807 123.24L143.647 123.56C146.847 124.08 149.127 124.92 149.127 127.32C149.127 130 147.047 131.48 143.047 131.48C139.487 131.48 137.127 129.84 137.127 126.84H131.887ZM159.445 135H169.085C178.765 135 183.845 129.2 183.845 121.24C183.845 113.28 178.765 107.48 169.085 107.48H159.445V135ZM168.885 111.92C175.765 111.92 178.325 116.24 178.325 121.24C178.325 126.24 175.765 130.56 168.885 130.56H164.805V111.92H168.885Z" fill="#00112C"/>
<path d="M95.7209 72.372C95.7209 83.661 102.293 87.636 111.462 87.636C120.631 87.636 127.15 83.661 127.15 72.372V50.536H119.995V72.266C119.995 78.255 117.186 81.541 111.462 81.541C105.685 81.541 102.876 78.255 102.876 72.266V50.536H95.7209V72.372ZM132.538 76.188C132.538 83.449 137.626 87.636 147.325 87.636C157.13 87.636 162.642 82.919 162.642 76.135C162.642 68.45 156.441 66.754 150.664 65.641L148.226 65.217C143.615 64.369 140.223 63.574 140.223 60.182C140.223 56.843 143.35 55.2 147.431 55.2C151.512 55.2 154.533 57.002 154.533 60.818H161.476C161.476 53.981 155.911 49.9 147.431 49.9C138.739 49.9 133.174 54.67 133.174 60.871C133.174 68.768 139.693 70.411 145.682 71.418L148.12 71.842C152.36 72.531 155.381 73.644 155.381 76.824C155.381 80.375 152.625 82.336 147.325 82.336C142.608 82.336 139.481 80.163 139.481 76.188H132.538ZM166.509 76.612C166.721 82.707 170.484 86.629 176.897 87.477V93.36H182.303V87.424C188.716 86.576 192.691 82.495 192.691 76.347C192.691 70.782 189.458 67.761 183.734 66.118L179.335 64.793C175.943 63.786 174.194 62.726 174.194 59.758C174.194 56.578 176.632 55.094 179.6 55.094C182.409 55.094 184.688 56.578 185.112 60.023H191.737C191.366 54.67 187.656 51.013 182.303 50.112V44.388H176.897V50.112C170.961 51.119 167.251 55.041 167.251 60.553C167.251 67.072 172.127 69.669 175.784 70.782L180.183 72.054C183.522 73.061 185.748 74.227 185.748 77.248C185.748 80.693 183.257 82.548 179.6 82.548C175.996 82.548 173.452 80.481 173.24 76.612H166.509Z" fill="#00112C"/>
</svg>
