<svg width="286" height="176" viewBox="0 0 286 176" fill="none" xmlns="http://www.w3.org/2000/svg">
<path d="M251.38 1H34.6C16.0432 1 1 16.0432 1 34.6V140.86C1 159.417 16.0432 174.46 34.6 174.46H251.38C269.937 174.46 284.98 159.417 284.98 140.86V34.6C284.98 16.0432 269.937 1 251.38 1Z" fill="white" stroke="#00112C" stroke-width="2" stroke-linecap="round" stroke-linejoin="round"/>
<path d="M124.755 130H127.995V123.592L134.163 113.488H130.755L126.483 120.592H126.387L122.331 113.488H118.683L124.755 123.688V130ZM136.108 130H148.3V127.336H139.324V122.848H146.38V120.304H139.324V116.152H148.084V113.488H136.108V130ZM151.22 130H154.436L154.34 118.96H154.436L162.764 130H165.62V113.488H162.404L162.5 124.528H162.404L154.124 113.488H151.22V130Z" fill="#00112C"/>
<path d="M98.2691 76.188C98.2691 84.456 103.145 87.636 110.141 87.636C117.402 87.636 122.119 84.403 122.119 75.658V50.536H114.964V75.817C114.964 80.269 113.056 81.753 110.141 81.753C107.226 81.753 105.265 80.322 105.265 76.135V74.439H98.2691V76.188ZM129.574 87H136.676V75.075H145.262C153.954 75.075 158.777 69.828 158.777 62.567C158.777 55.465 153.954 50.536 145.262 50.536H129.574V87ZM144.626 56.26C149.29 56.26 151.569 58.857 151.569 62.673C151.569 66.542 149.29 69.351 144.626 69.351H136.676V56.26H144.626ZM164.862 74.651H172.176V78.096H164.862V81.647H172.176V87H178.96V81.647H186.274V78.096H178.96V74.651H186.274V71.1H179.013L190.567 50.536H183.253L175.833 64.475H175.621L168.413 50.536H160.569L172.123 71.1H164.862V74.651Z" fill="#00112C"/>
<path d="M251.38 1H34.6C16.0432 1 1 16.0432 1 34.6V140.86C1 159.417 16.0432 174.46 34.6 174.46H251.38C269.937 174.46 284.98 159.417 284.98 140.86V34.6C284.98 16.0432 269.937 1 251.38 1Z" fill="white" stroke="#00112C" stroke-width="2" stroke-linecap="round" stroke-linejoin="round"/>
<path d="M119.86 123.376C119.86 128.488 122.836 130.288 126.988 130.288C131.14 130.288 134.092 128.488 134.092 123.376V113.488H130.852V123.328C130.852 126.04 129.58 127.528 126.988 127.528C124.372 127.528 123.1 126.04 123.1 123.328V113.488H119.86V123.376ZM136.532 125.104C136.532 128.392 138.836 130.288 143.228 130.288C147.668 130.288 150.164 128.152 150.164 125.08C150.164 121.6 147.356 120.832 144.74 120.328L143.636 120.136C141.548 119.752 140.012 119.392 140.012 117.856C140.012 116.344 141.428 115.6 143.276 115.6C145.124 115.6 146.492 116.416 146.492 118.144H149.636C149.636 115.048 147.116 113.2 143.276 113.2C139.34 113.2 136.82 115.36 136.82 118.168C136.82 121.744 139.772 122.488 142.484 122.944L143.588 123.136C145.508 123.448 146.876 123.952 146.876 125.392C146.876 127 145.628 127.888 143.228 127.888C141.092 127.888 139.676 126.904 139.676 125.104H136.532ZM153.067 130H158.851C164.659 130 167.707 126.52 167.707 121.744C167.707 116.968 164.659 113.488 158.851 113.488H153.067V130ZM158.731 116.152C162.859 116.152 164.395 118.744 164.395 121.744C164.395 124.744 162.859 127.336 158.731 127.336H156.283V116.152H158.731Z" fill="#00112C"/>
<path d="M95.7209 72.372C95.7209 83.661 102.293 87.636 111.462 87.636C120.631 87.636 127.15 83.661 127.15 72.372V50.536H119.995V72.266C119.995 78.255 117.186 81.541 111.462 81.541C105.685 81.541 102.876 78.255 102.876 72.266V50.536H95.7209V72.372ZM132.538 76.188C132.538 83.449 137.626 87.636 147.325 87.636C157.13 87.636 162.642 82.919 162.642 76.135C162.642 68.45 156.441 66.754 150.664 65.641L148.226 65.217C143.615 64.369 140.223 63.574 140.223 60.182C140.223 56.843 143.35 55.2 147.431 55.2C151.512 55.2 154.533 57.002 154.533 60.818H161.476C161.476 53.981 155.911 49.9 147.431 49.9C138.739 49.9 133.174 54.67 133.174 60.871C133.174 68.768 139.693 70.411 145.682 71.418L148.12 71.842C152.36 72.531 155.381 73.644 155.381 76.824C155.381 80.375 152.625 82.336 147.325 82.336C142.608 82.336 139.481 80.163 139.481 76.188H132.538ZM166.509 76.612C166.721 82.707 170.484 86.629 176.897 87.477V93.36H182.303V87.424C188.716 86.576 192.691 82.495 192.691 76.347C192.691 70.782 189.458 67.761 183.734 66.118L179.335 64.793C175.943 63.786 174.194 62.726 174.194 59.758C174.194 56.578 176.632 55.094 179.6 55.094C182.409 55.094 184.688 56.578 185.112 60.023H191.737C191.366 54.67 187.656 51.013 182.303 50.112V44.388H176.897V50.112C170.961 51.119 167.251 55.041 167.251 60.553C167.251 67.072 172.127 69.669 175.784 70.782L180.183 72.054C183.522 73.061 185.748 74.227 185.748 77.248C185.748 80.693 183.257 82.548 179.6 82.548C175.996 82.548 173.452 80.481 173.24 76.612H166.509Z" fill="#00112C"/>
</svg>
