<svg width="286" height="176" viewBox="0 0 286 176" fill="none" xmlns="http://www.w3.org/2000/svg">
<path d="M251.38 1H34.6C16.0432 1 1 16.0432 1 34.6V140.86C1 159.417 16.0432 174.46 34.6 174.46H251.38C269.937 174.46 284.98 159.417 284.98 140.86V34.6C284.98 16.0432 269.937 1 251.38 1Z" fill="#79DBA0" stroke="#00112C" stroke-width="2" stroke-linecap="round" stroke-linejoin="round"/>
<path d="M76.2 132H82.52L92.48 104.48H87.04L79.52 126.92H79.36L72 104.48H66.32L76.2 132ZM95.0369 107.52H100.517V102.72H95.0369V107.52ZM95.1969 132H100.357V112.48H95.1969V132ZM104.179 122.32C104.179 128.88 107.939 132.48 114.379 132.48C120.139 132.48 123.019 129.48 123.659 125.92H118.739C118.299 127.4 117.019 128.72 114.459 128.72C111.579 128.72 109.579 126.84 109.419 123.16H123.859V121.72C123.859 115.48 120.179 112 114.299 112C108.339 112 104.179 116 104.179 122.32ZM114.299 115.76C116.899 115.76 118.339 117.2 118.659 120.04H109.579C110.099 117.32 111.779 115.76 114.299 115.76ZM128.632 125.6C128.632 130.24 130.632 132 135.712 132H138.592V127.84H136.352C134.432 127.84 133.752 127.12 133.752 125.4V116.32H138.592V112.48H133.752V106.56H128.632V112.48H124.952V116.32H128.632V125.6ZM141.966 132H147.126V121.72C147.126 118.08 149.046 116 151.606 116C153.886 116 155.406 117.24 155.406 120.8V132H160.566V120.16C160.566 114.08 157.046 112 153.046 112C150.326 112 148.166 113.08 147.046 115.28H146.886V112.48H141.966V132ZM164.157 126.84C164.157 130.2 166.517 132.32 170.717 132.32C174.077 132.32 176.197 131.16 177.117 129.08H177.277V132H182.197V119.2C182.197 114.52 179.357 112 173.557 112C168.597 112 165.237 114.44 164.917 118.8H169.717C169.877 116.84 171.157 115.6 173.557 115.6C175.957 115.6 177.037 117 177.037 118.64C177.037 119.84 176.597 119.96 174.557 120.28L170.637 120.84C166.117 121.48 164.157 123.32 164.157 126.84ZM177.037 123.96C177.037 127.16 174.757 128.72 172.077 128.72C170.277 128.72 169.237 127.8 169.237 126.24C169.237 124.88 170.197 124.04 172.117 123.72L175.117 123.24C176.037 123.08 176.677 122.8 177.037 122.32V123.96ZM187.142 132H192.302V121.64C192.302 118 194.222 116 196.622 116C198.742 116 200.102 117.16 200.102 120.56V132H205.222V121.68C205.222 118.12 207.102 116 209.542 116C211.782 116 213.022 117.16 213.022 120.56V132H218.182V120C218.182 114.08 215.022 112 211.062 112C208.382 112 205.942 112.96 204.502 115.8C203.342 113.08 200.982 112 198.142 112C195.462 112 193.342 113.08 192.222 115.28H192.062V112.48H187.142V132Z" fill="#00112C"/>
<path fill-rule="evenodd" clip-rule="evenodd" d="M156.7 41L160.7 61V60.975C160.9 61.975 160.475 62.975 159.65 63.55L144.4 73.8C143.975 74.075 143.5 74.225 143 74.225H140.65C141.025 75.25 141.25 76.35 141.25 77.475C141.25 82.575 137.1 86.725 132 86.725C126.9 86.725 122.75 82.575 122.75 77.475C122.75 76.35 122.975 75.25 123.35 74.225H120.5C119.125 74.225 118 73.1 118 71.725C118 65.275 119.9 60.225 123.675 56.7L120.775 56.75H120.75C119.375 56.75 118.25 55.65 118.25 54.275C118.25 52.9 119.35 51.75 120.725 51.75L139.475 51.5C140.7 51.475 141.75 52.325 141.975 53.525L143.475 61.275C143.75 62.625 142.85 63.95 141.5 64.2C141.35 64.25 141.175 64.25 141.025 64.25C139.85 64.25 138.8 63.425 138.575 62.225L137.5 56.725C136.1 56.725 130.8 56.925 127.075 60.4C124.85 62.475 123.525 65.45 123.125 69.25H142.25L155.475 60.35L152.2 44H143C141.625 44 140.5 42.875 140.5 41.5C140.5 40.125 141.625 39 143 39H154.25C155.45 39 156.475 39.825 156.7 41ZM132 81.75C134.35 81.75 136.25 79.85 136.25 77.5H136.225C136.225 76.225 135.65 75.05 134.675 74.25H129.3C128.35 75.05 127.75 76.225 127.75 77.5C127.75 79.85 129.65 81.75 132 81.75Z" fill="#00112C"/>
<path fill-rule="evenodd" clip-rule="evenodd" d="M149.5 77.4999C149.5 72.3999 153.65 68.2499 158.75 68.2499C163.85 68.2499 168 72.3999 168 77.4999C168 82.5999 163.85 86.7499 158.75 86.7499C153.65 86.7499 149.5 82.5999 149.5 77.4999ZM154.5 77.4999C154.5 79.8499 156.4 81.7499 158.75 81.7499C161.1 81.7499 163 79.8499 163 77.4999C163 75.1499 161.1 73.2499 158.75 73.2499C156.4 73.2499 154.5 75.1499 154.5 77.4999Z" fill="#00112C"/>
</svg>
