<svg width="286" height="176" viewBox="0 0 286 176" fill="none" xmlns="http://www.w3.org/2000/svg">
<path d="M251.38 1H34.6C16.0432 1 1 16.0432 1 34.6V140.86C1 159.417 16.0432 174.46 34.6 174.46H251.38C269.937 174.46 284.98 159.417 284.98 140.86V34.6C284.98 16.0432 269.937 1 251.38 1Z" fill="#0ABE53" stroke="#00112C" stroke-width="2" stroke-linecap="round" stroke-linejoin="round"/>
<path d="M110.26 130H116.58L126.54 102.48H121.1L113.58 124.92H113.42L106.06 102.48H100.38L110.26 130ZM129.697 130H135.057L134.897 111.6H135.057L148.937 130H153.697V102.48H148.337L148.497 120.88H148.337L134.537 102.48H129.697V130ZM159.766 130H169.406C179.086 130 184.166 124.2 184.166 116.24C184.166 108.28 179.086 102.48 169.406 102.48H159.766V130ZM169.206 106.92C176.086 106.92 178.646 111.24 178.646 116.24C178.646 121.24 176.086 125.56 169.206 125.56H165.126V106.92H169.206Z" fill="#00112C"/>
<path d="M141.594 77.53C138.378 77.53 135.746 76.3287 133.697 73.926C131.683 71.5233 130.676 68.0077 130.676 63.379C130.676 58.6797 131.7 55.1287 133.75 52.726C135.799 50.3233 138.484 49.122 141.806 49.122C143.89 49.122 145.604 49.5283 146.947 50.341C148.289 51.1537 149.349 52.1607 150.127 53.362H150.392C150.392 53.362 150.339 53.044 150.233 52.408C150.162 51.7367 150.074 50.9417 149.968 50.023C149.862 49.069 149.809 48.1857 149.809 47.373V46.048H141.647V40.907H149.809V36.72H157.706V40.907H161.734V46.048H157.706V77H151.664L150.127 73.237H149.809C149.031 74.4383 147.989 75.463 146.682 76.311C145.374 77.1237 143.678 77.53 141.594 77.53ZM144.35 71.223C146.505 71.223 148.024 70.64 148.908 69.474C149.791 68.308 150.268 66.5413 150.339 64.174V63.432C150.339 60.888 149.897 58.9447 149.014 57.602C148.166 56.224 146.576 55.535 144.244 55.535C142.512 55.535 141.152 56.224 140.163 57.602C139.173 58.9447 138.679 60.9057 138.679 63.485C138.679 66.0643 139.173 68.0077 140.163 69.315C141.152 70.587 142.548 71.223 144.35 71.223ZM156.381 85.374H134.386V81.77H156.381V85.374Z" fill="#00112C"/>
</svg>
